<svg id="Layer_1" data-name="Layer 1" xmlns="http://www.w3.org/2000/svg" viewBox="0 0 378.2 278.15"><defs><style>.cls-1,.cls-10{fill:#fff;}.cls-2{fill:#e0e0e0;}.cls-3{fill:#424242;}.cls-4{fill:#bdbdbd;}.cls-5{fill:#757576;}.cls-6{fill:#616262;}.cls-7{fill:#ef5350;}.cls-8{fill:#eee;}.cls-9{fill:none;}.cls-10{isolation:isolate;font-size:14px;font-family:LIBRARY3AMsoft, "LIBRARY 3 AM soft";}.cls-11{letter-spacing:-0.03em;}.cls-12{letter-spacing:-0.01em;}.cls-13{letter-spacing:0em;}.cls-14{letter-spacing:-0.02em;}.cls-15{fill:#fafafa;}</style></defs><g id="BACKGROUND_2" data-name="BACKGROUND 2"><path class="cls-1" d="M264.39,301.47c-19.6,0-27.45-7.84-27.45-25V223.49c0-3.77,1.66-5.43,5.43-5.43h23.38c3.77,0,5.43,1.66,5.43,5.43v41.33c0,3.17,1.81,5.13,4.68,5.13h14V223.49c0-3.77,1.66-5.43,5.43-5.43h23.23c3.77,0,5.43,1.66,5.43,5.43v97.74c0,3.77-1.66,5.43-5.43,5.43H295.31c-3.77,0-5.43-1.66-5.43-5.43V301.47Z" transform="translate(-195.24 -89.02)"/><path class="cls-1" d="M453.48,301.47c-19.61,0-27.45-7.84-27.45-25V223.49c0-3.77,1.66-5.43,5.43-5.43h23.38c3.77,0,5.43,1.66,5.43,5.43v41.33c0,3.17,1.81,5.13,4.67,5.13h14V223.49c0-3.77,1.66-5.43,5.43-5.43h23.22c3.78,0,5.43,1.66,5.43,5.43v97.74c0,3.77-1.65,5.43-5.43,5.43H484.4c-3.77,0-5.43-1.66-5.43-5.43V301.47Z" transform="translate(-195.24 -89.02)"/><path class="cls-2" d="M316,241.67a6.63,6.63,0,0,0-8.15,3.43,6.44,6.44,0,0,0,3.89,8.71l12.22,4V244.28Z" transform="translate(-195.24 -89.02)"/><path class="cls-2" d="M431.46,218.06c-3.77,0-5.43,1.66-5.43,5.43v16.74A41.78,41.78,0,0,0,441.17,228l2.45,1a2.66,2.66,0,0,0,3.46-1.52l3.68-9.41Zm19.27,42.65a6.63,6.63,0,0,0-8.78,1.07l-10.81,12L426,264.24v12.19c0,6.08,1,11,3.12,14.79a6.41,6.41,0,0,0,5.41-2.08l17.12-18.94A6.44,6.44,0,0,0,450.73,260.71Z" transform="translate(-195.24 -89.02)"/><path class="cls-1" d="M445.4,255.39a6.63,6.63,0,0,0-8.78,1.07l-10.81,12-8.57-16a12.78,12.78,0,0,0-6.65-5.9h0l-47.16-18.43v0a12.79,12.79,0,0,0-12,1.41h0l-.33.22-.18.14-19.28,13.31-21-6.86a6.61,6.61,0,0,0-8.15,3.43,6.43,6.43,0,0,0,3.88,8.7l24.26,8a6.39,6.39,0,0,0,5.64-.84l0,0,11.83-8.18,4-2.74a2.46,2.46,0,0,1,3.69,2.92l-1.75,4.48L322.18,333.7l17.25,6.75,17.12-43.82a2.25,2.25,0,0,1,3.24-1.11,24.49,24.49,0,0,0,3.77,1.86,26.3,26.3,0,0,0,4.07,1.2,2.24,2.24,0,0,1,1.58,3L352.1,345.39l17.24,6.74,31.89-81.61,2.74-7a2.46,2.46,0,0,1,4.46-.27l3.56,6.64,6.81,12.67h0a6.2,6.2,0,0,0,1.34,1.74,6.42,6.42,0,0,0,9.08-.45h0l17.11-18.95A6.43,6.43,0,0,0,445.4,255.39Z" transform="translate(-195.24 -89.02)"/><circle class="cls-3" cx="206.01" cy="111.94" r="33.09"/><path class="cls-4" d="M368.92,172.43l-.78-.31a1.47,1.47,0,0,0-1.9.83L365,176.08l2.15.84Z" transform="translate(-195.24 -89.02)"/><path class="cls-2" d="M444.72,207.22l-6.15-2.4-6.42,16.45,6.14,2.4a2.69,2.69,0,0,0,3.47-1.52l4.48-11.46A2.69,2.69,0,0,0,444.72,207.22Z" transform="translate(-195.24 -89.02)"/><path class="cls-2" d="M361.55,177.6l-4.48,11.46a2.68,2.68,0,0,0,1.52,3.47l6.14,2.4,6.43-16.45-6.14-2.4A2.68,2.68,0,0,0,361.55,177.6Z" transform="translate(-195.24 -89.02)"/><rect class="cls-5" x="366.62" y="174.49" width="0.69" height="3.92" transform="translate(-126.17 365.03) rotate(-68.66)"/><rect class="cls-6" x="359.58" y="158.43" width="28.12" height="1.48" transform="translate(-105.84 360.26) rotate(-68.66)"/><path class="cls-1" d="M380.93,146.93a2.25,2.25,0,1,1-1.28-2.92A2.26,2.26,0,0,1,380.93,146.93Z" transform="translate(-195.24 -89.02)"/><path class="cls-2" d="M355.18,340.49c3.34-3.23,7.9-3,12.59-1.18,6.37,2.49,10.55,7,7.4,15.09l-18.34-7.16-4.73-1.85,2.07-5.29Z" transform="translate(-195.24 -89.02)"/><path class="cls-2" d="M340.49,334.75c-.27-4.64-3.77-7.57-8.45-9.4-6.37-2.49-12.52-2-15.67,6.08l18.33,7.16,4.73,1.85,2.07-5.29Z" transform="translate(-195.24 -89.02)"/><path class="cls-1" d="M418,158.13a41.85,41.85,0,1,0,23.76,54.22A41.86,41.86,0,0,0,418,158.13ZM389.2,231.74a30.91,30.91,0,1,1,40-17.53A30.9,30.9,0,0,1,389.2,231.74Z" transform="translate(-195.24 -89.02)"/><polygon class="cls-1" points="210.45 154.2 174.06 139.98 177.14 132.08 192.95 145.08 213.54 146.3 210.45 154.2"/><path class="cls-7" d="M406.6,241.5l-36.81-14.38a1.07,1.07,0,0,0-1.38.61l-.41,1a1.07,1.07,0,0,0,.61,1.39l36.81,14.38a1.07,1.07,0,0,0,1.39-.6l.4-1A1.07,1.07,0,0,0,406.6,241.5Z" transform="translate(-195.24 -89.02)"/><path class="cls-1" d="M397.12,175c-8.82.7-13.36,6.95-11.7,8.72s6.67.45,12.35.14c5.65-.58,11.22.31,12.54-1.77S406,174.35,397.12,175Z" transform="translate(-195.24 -89.02)"/><path class="cls-1" d="M378.18,186.49c-1.83,2.28-1.72,5.08-.24,5.78s3.51-.37,4.87-2.05,1.87-3.83.84-5.12S380,184.22,378.18,186.49Z" transform="translate(-195.24 -89.02)"/><path class="cls-8" d="M393.08,258.28l-24.72-9.66a1.82,1.82,0,0,0-2.36,1l-7,17.87a1.82,1.82,0,0,0,1,2.35l24.72,9.66a1.81,1.81,0,0,0,2.35-1l7-17.87A1.8,1.8,0,0,0,393.08,258.28Z" transform="translate(-195.24 -89.02)"/><path class="cls-2" d="M349,304.7l-13.68-5.35a1.71,1.71,0,0,0-2.21,1l-3.29,8.41a1.71,1.71,0,0,0,1,2.22l13.68,5.34a1.71,1.71,0,0,0,2.22-1l3.28-8.41A1.71,1.71,0,0,0,349,304.7Z" transform="translate(-195.24 -89.02)"/><path class="cls-2" d="M369.29,312.63,383,318a1.72,1.72,0,0,1,1,2.22l-3.29,8.41a1.71,1.71,0,0,1-2.22,1l-13.68-5.35a1.72,1.72,0,0,1-1-2.22l3.29-8.41A1.7,1.7,0,0,1,369.29,312.63Z" transform="translate(-195.24 -89.02)"/><rect class="cls-7" x="377.07" y="250.14" width="2.9" height="17.84" transform="translate(-195.77 428.33) rotate(-68.66)"/><rect class="cls-7" x="375.12" y="255.14" width="2.9" height="17.84" transform="translate(-201.67 429.69) rotate(-68.66)"/><rect class="cls-7" x="373.16" y="260.14" width="2.9" height="17.84" transform="translate(-207.57 431.05) rotate(-68.66)"/><rect class="cls-9" x="41.7" y="243.39" width="276.11" height="22"/><text class="cls-10" transform="translate(192.04 256.61)"><tspan class="cls-11">P</tspan><tspan class="cls-12" x="9.27" y="0">A</tspan><tspan x="19.49" y="0">GE </tspan><tspan class="cls-11" x="44.11" y="0">L</tspan><tspan class="cls-13" x="51.48" y="0">OS</tspan><tspan class="cls-11" x="71.25" y="0">T</tspan><tspan x="79.47" y="0" xml:space="preserve"> IN S</tspan><tspan class="cls-14" x="115.81" y="0">P</tspan><tspan class="cls-12" x="125.08" y="0">A</tspan><tspan class="cls-13" x="135.29" y="0">CE</tspan></text><path class="cls-15" d="M472.13,157.68h3.44a.76.76,0,0,0,.75-.75v-3.36a1.56,1.56,0,0,1,1.42-1.58,1.5,1.5,0,0,1,1.59,1.5v3.44a.76.76,0,0,0,.75.75h3.35A1.56,1.56,0,0,1,485,159.1a1.5,1.5,0,0,1-1.5,1.59h-3.44a.76.76,0,0,0-.75.75v3.35a1.56,1.56,0,0,1-1.43,1.59,1.5,1.5,0,0,1-1.58-1.5v-3.44a.76.76,0,0,0-.75-.75h-3.36a1.57,1.57,0,0,1-1.59-1.43A1.51,1.51,0,0,1,472.13,157.68Z" transform="translate(-195.24 -89.02)"/><path class="cls-15" d="M238.45,336.48h3.44a.76.76,0,0,0,.75-.75v-3.35a1.56,1.56,0,0,1,1.42-1.59,1.5,1.5,0,0,1,1.59,1.5v3.44a.76.76,0,0,0,.75.75h3.35a1.56,1.56,0,0,1,1.59,1.42,1.5,1.5,0,0,1-1.5,1.59H246.4a.76.76,0,0,0-.75.75v3.35a1.56,1.56,0,0,1-1.42,1.59,1.5,1.5,0,0,1-1.59-1.5v-3.44a.76.76,0,0,0-.75-.75h-3.35a1.56,1.56,0,0,1-1.59-1.42A1.5,1.5,0,0,1,238.45,336.48Z" transform="translate(-195.24 -89.02)"/><path class="cls-15" d="M312.16,182.87h3.43a.74.74,0,0,0,.75-.75v-3.35a1.57,1.57,0,0,1,1.43-1.59,1.52,1.52,0,0,1,1.59,1.51v3.43a.74.74,0,0,0,.75.75h3.35a1.57,1.57,0,0,1,1.59,1.43,1.52,1.52,0,0,1-1.51,1.59h-3.43a.74.74,0,0,0-.75.75V190a1.57,1.57,0,0,1-1.43,1.59,1.52,1.52,0,0,1-1.59-1.51v-3.43a.74.74,0,0,0-.75-.75h-3.35a1.56,1.56,0,0,1-1.59-1.43A1.52,1.52,0,0,1,312.16,182.87Z" transform="translate(-195.24 -89.02)"/><path class="cls-15" d="M297,143.25h.74a1,1,0,0,0,1-1v-.73a.61.61,0,0,1,1.22,0v.73a1,1,0,0,0,.95,1h.74a.61.61,0,0,1,.61.61.61.61,0,0,1-.61.61h-.74a1,1,0,0,0-.95.95v.74a.61.61,0,1,1-1.22,0v-.74a1,1,0,0,0-1-.95H297a.61.61,0,0,1-.61-.61A.61.61,0,0,1,297,143.25Z" transform="translate(-195.24 -89.02)"/><path class="cls-15" d="M505.84,362.58h.74a1,1,0,0,0,.95-.95v-.74a.61.61,0,0,1,1.22,0v.74a1,1,0,0,0,.95.95h.74a.61.61,0,0,1,.61.61.61.61,0,0,1-.61.61h-.74a1,1,0,0,0-.95.95v.74a.61.61,0,0,1-1.22,0v-.74a1,1,0,0,0-.95-.95h-.74a.61.61,0,0,1-.61-.61A.61.61,0,0,1,505.84,362.58Z" transform="translate(-195.24 -89.02)"/><path class="cls-15" d="M552.5,199.62h.74a1,1,0,0,0,1-1v-.74a.6.6,0,0,1,.61-.6.61.61,0,0,1,.61.6v.74a1,1,0,0,0,1,1h.74a.61.61,0,1,1,0,1.21h-.74a1,1,0,0,0-1,1v.73a.61.61,0,0,1-.61.61.61.61,0,0,1-.61-.61v-.73a1,1,0,0,0-1-1h-.74a.61.61,0,1,1,0-1.21Z" transform="translate(-195.24 -89.02)"/><path class="cls-15" d="M482.72,110.39h.74a1,1,0,0,0,1-1v-.74a.61.61,0,0,1,.61-.61.61.61,0,0,1,.61.61v.74a1,1,0,0,0,1,1h.73a.61.61,0,1,1,0,1.22h-.73a1,1,0,0,0-1,1v.74a.61.61,0,0,1-.61.61.61.61,0,0,1-.61-.61v-.74a1,1,0,0,0-1-1h-.74a.61.61,0,0,1,0-1.22Z" transform="translate(-195.24 -89.02)"/><path class="cls-15" d="M232.25,191.42a1.07,1.07,0,1,1-1.07,1.07A1.07,1.07,0,0,1,232.25,191.42Z" transform="translate(-195.24 -89.02)"/><path class="cls-15" d="M453.34,365a1.07,1.07,0,1,1-1.07,1.07A1.07,1.07,0,0,1,453.34,365Z" transform="translate(-195.24 -89.02)"/><path class="cls-15" d="M307.23,359.21a1.07,1.07,0,0,1,1.15,1,1.07,1.07,0,0,1-2.13.18A1.07,1.07,0,0,1,307.23,359.21Z" transform="translate(-195.24 -89.02)"/><path class="cls-15" d="M543,134a1.07,1.07,0,1,1-1.07,1.07A1.06,1.06,0,0,1,543,134Z" transform="translate(-195.24 -89.02)"/><path class="cls-15" d="M201.46,270.29a2.07,2.07,0,1,1-2.07,2.07A2.07,2.07,0,0,1,201.46,270.29Z" transform="translate(-195.24 -89.02)"/><path class="cls-15" d="M197.32,153.18a2.07,2.07,0,1,1-2.08,2.07A2.07,2.07,0,0,1,197.32,153.18Z" transform="translate(-195.24 -89.02)"/><path class="cls-15" d="M411.52,89a2.07,2.07,0,1,1-2.07,2.07A2.07,2.07,0,0,1,411.52,89Z" transform="translate(-195.24 -89.02)"/><circle class="cls-15" cx="377.13" cy="196.36" r="1.07"/><path class="cls-15" d="M417.4,306.76a1.07,1.07,0,1,1-1.07,1.07A1.07,1.07,0,0,1,417.4,306.76Z" transform="translate(-195.24 -89.02)"/><path class="cls-15" d="M264,109.93a1.07,1.07,0,1,1-1.11,1A1.07,1.07,0,0,1,264,109.93Z" transform="translate(-195.24 -89.02)"/></g></svg>