<svg xmlns="http://www.w3.org/2000/svg" viewBox="0 0 415.82 325.91"><defs><style>.cls-1{fill:#1a2835;}.cls-2{fill:#032442;}.cls-3{fill:#0b6060;}.cls-4{fill:#10949b;}.cls-5{fill:#6d431b;}.cls-6{fill:#b4763b;}.cls-7{opacity:0.38;}.cls-11,.cls-8{fill:#f2f2f2;}.cls-9{fill:#fff;}.cls-10{fill:#17cece;}.cls-11{font-size:114.22px;font-family:LIBRARY3AM, "LIBRARY 3 AM";}.cls-12{fill:#fff7bb;}</style></defs><g id="OBJECTS"><path class="cls-1" d="M177.34,132.35l-.15,0-3.7,12.52c-4.82,14.7-16.59,3.2-16.59,3.2s-18-7.56-12.8,2.84,22.21,4.22,22.21,4.22c1.06,2.62-1.91,12.66-1.91,12.66-9.56,15.18-22.39-2.06-31.08-8.4s-7.76-.21-7.76-.21c1.75,15.81,32.16,17.17,32.16,17.17-3.88,10-11.68,10-11.71,10-1.67.13-3.22.19-4.66.19-.62,0-1.23,0-1.81,0l-.66,0a31.7,31.7,0,0,1-3.94-.48c-.41-.07-.81-.16-1.2-.25a21.85,21.85,0,0,1-2.79-.85c-.39-.15-.77-.31-1.13-.48a15.57,15.57,0,0,1-3.2-1.91c-.18-.14-.36-.28-.53-.43a16.4,16.4,0,0,1-1.48-1.4l-.08-.09a18.3,18.3,0,0,1-2-2.73c-3.69-5.93-4.46-13.38-9.79-17.21-10.23-7.37-8,.6-8,.6A41,41,0,0,0,115,177a63,63,0,0,0,5.11,4.51c.6.47,1.19.92,1.78,1.35s1,.7,1.46,1l.81.56c1.63,1.09,3.14,2,4.47,2.79l.79.44c1,.58,1.93,1,2.61,1.38l1,.48.51.23a13,13,0,0,1-5.13,5.42c-.25.15-.5.29-.75.41a19.29,19.29,0,0,1-9.29,1.91c-.9-.33-1.77-.7-2.6-1.1h0c-19.78-9.42-20.4-35.06-27.1-26.85-5.41,6.63,10.34,19.23,17.7,24.56-.16,1.18-.42,3.55-.58,6.75-2.31,1-5.82,1.14-11.08-1-12.72-5.17-11.68-32-16.43-25.26s2.22,23.56,2.22,23.56c-6-1.66-10.35-4.1-13.49-7-14.45-13.28-2.74-36-2.74-36l.05-.07s-33.56-23.4-8.65-44.54c0,0,2.85,17.68,10.68,21.84s-7.5-19.33,1.07-28.8,15.33-2.9,15.33-2.9S67.46,128,78.28,133s-4-20.34,11.46-36.29c0,0,9.14-4.9,17.69,1.1,0,0-14.8,17.19-10.35,36.43a7,7,0,0,0,.46,1.11c.89,1.74,3.14,4.18,7-3.63a11.68,11.68,0,0,0,1-5.81c-.38-9.94-8.14-22.2,14.83-29.86,0,0,6.34-2.72,14.62,3.52.4.29.8.61,1.21,1,0,0-26.37,12.84-19.44,27.6,0,0,2.47,5.83,6.81-3.15s6.51-29.25,23.18-19.38c0,0,8,7.82,8.51,10.56,0,0-18.47,1-17.52,12.25S150.69,126,150.69,126s4.31-14.75,16.51-3.49Z" transform="translate(-34.38 -61.12)"/><path class="cls-2" d="M106.31,194.14c2.14,1.55,3.57,2.49,3.57,2.49a7.29,7.29,0,0,1-4.15,4.26C105.89,197.69,106.15,195.32,106.31,194.14Z" transform="translate(-34.38 -61.12)"/><path class="cls-3" d="M172.85,248.88v0c-1.38,5.81-3.69,10.3-5.61,12.36a10.26,10.26,0,0,0-2.33,9.83s0,0,0,0a17.92,17.92,0,0,0,1.58,4.08v0c.44.8.77,1.27.77,1.27l3.14,6.91v0l.65,1.44c-.17-.36-.35-.71-.55-1.06h0a22.28,22.28,0,0,0-4.87-5.65h0a40.39,40.39,0,0,0-5.17-3.74c-.54-.34-1.09-.67-1.64-1a90.62,90.62,0,0,0-18.52-7.73,46.29,46.29,0,0,1-8.14-3.3,41.71,41.71,0,0,1-8-5.39l-.54-.47a.69.69,0,0,1-.13-.11,43.55,43.55,0,0,1-7.12-8.18,51.7,51.7,0,0,1-4-7.08,68.21,68.21,0,0,1-5-15.52c-.3-1.5-.55-3-.77-4.47a102.09,102.09,0,0,1-1-11.35c-.1-3.36,0-6.39.09-8.91.16-3.2.42-5.57.58-6.75.06-.55.11-.84.11-.84l11.37,4.7-2.05-1.56h0L108.6,191v-6.12c1.3-5.39,3.86-7.39,6.38-7.89a10.61,10.61,0,0,1,6.72,1.32c.27-.16.53-.31.8-.44,4.69-2.33,9.6-.23,13.7,3.23h0a35.64,35.64,0,0,1,5.14,5.46,37.5,37.5,0,0,1,2.63,4l0,.06a19.9,19.9,0,0,1,1.28,2.63,12.41,12.41,0,0,0,7,7.33l2.64,11.79,0-9.18a46.06,46.06,0,0,1,15.45,18.2c0,.12.11.23.16.35A42.86,42.86,0,0,1,172.85,248.88Z" transform="translate(-34.38 -61.12)"/><path class="cls-4" d="M121.69,178.34c12.14,30.31,23.77,62.06,40.1,90.4,2.51,4.35,5.89,7.66,9,11.54,2.49,3.08,6.5,9.81,4.13,13.92-2.6,4.51-8.06-13.45-9-15.48-2.57-5.46-7.05-9.86-9.18-15.55C153.4,254.15,125.79,195.66,121.69,178.34Z" transform="translate(-34.38 -61.12)"/><path class="cls-4" d="M126.3,177.87c-.09,0,0-.14.06-.09s0,.16,0,.23a40,40,0,0,1-2.94,4.39Z" transform="translate(-34.38 -61.12)"/><path class="cls-4" d="M128.43,177.17a11.43,11.43,0,0,1-3.52,7.43Z" transform="translate(-34.38 -61.12)"/><path class="cls-4" d="M132.3,178.76A16,16,0,0,1,127.41,190Z" transform="translate(-34.38 -61.12)"/><path class="cls-4" d="M136.22,181.07a.17.17,0,0,1,0,.07,15.68,15.68,0,0,1-1.27,4.9,20.59,20.59,0,0,1-1.94,3.53,26.19,26.19,0,0,1-3.36,4l2.36-4.48,1.74-3.3,2.45-4.66Z" transform="translate(-34.38 -61.12)"/><path class="cls-4" d="M140,185a16.62,16.62,0,0,1-2.86,5.89c-2,2.93-4.07,5.89-7.09,7.69Z" transform="translate(-34.38 -61.12)"/><path class="cls-4" d="M144.14,190.35c-2.38,5.41-5.7,10.78-11,13.47Z" transform="translate(-34.38 -61.12)"/><path class="cls-4" d="M146.92,196.65A19.79,19.79,0,0,1,135,208.82Z" transform="translate(-34.38 -61.12)"/><path class="cls-4" d="M150.94,200.14a31.67,31.67,0,0,1-4.58,9.24,13,13,0,0,1-8.62,5.22Z" transform="translate(-34.38 -61.12)"/><path class="cls-4" d="M152.51,204a26.77,26.77,0,0,1-3.63,10.27,16.91,16.91,0,0,1-8.25,6.92Z" transform="translate(-34.38 -61.12)"/><path class="cls-4" d="M155,212.66a6.42,6.42,0,0,1-.42,4.43,18.24,18.24,0,0,1-2.49,3.79c-2.56,3.21-5.46,6.5-9.41,7.61Z" transform="translate(-34.38 -61.12)"/><path class="cls-4" d="M160.88,208.6c.36,4.86.67,10-1.39,14.38-2.42,5.19-7.62,8.4-12.55,11.3Z" transform="translate(-34.38 -61.12)"/><path class="cls-4" d="M166.75,215.1a42.3,42.3,0,0,1-4.56,16.69c-2.79,5.1-7.22,9.45-12.71,11.35Z" transform="translate(-34.38 -61.12)"/><path class="cls-4" d="M170.48,221.22c.62,4.58-1.25,9.12-3.49,13.17-3.39,6.15-8.26,12.15-15.08,13.83Z" transform="translate(-34.38 -61.12)"/><path class="cls-4" d="M173.69,233.57c-.81,6.54-5.7,11.75-10.52,16.26-2.24,2.09-4.66,4.22-7.66,4.88Z" transform="translate(-34.38 -61.12)"/><path class="cls-4" d="M173.37,248.41a67.25,67.25,0,0,0-7.87,8.4c-1.71,2.17-3.63,4.64-6.38,4.9Z" transform="translate(-34.38 -61.12)"/><path class="cls-4" d="M122.55,182.69a4.54,4.54,0,0,1-2.53.17,6.4,6.4,0,0,1-1.27-.45,11.25,11.25,0,0,1-4.39-3.58Z" transform="translate(-34.38 -61.12)"/><path class="cls-4" d="M123.8,184.87a11.88,11.88,0,0,1-7.15-.32,11.55,11.55,0,0,1-5.61-4.44Z" transform="translate(-34.38 -61.12)"/><path class="cls-4" d="M126.06,190.71a12.16,12.16,0,0,0-3.84.22c-4.66.49-9.24-2.35-11.73-6.31Z" transform="translate(-34.38 -61.12)"/><path class="cls-4" d="M127.42,194.2a9.05,9.05,0,0,1-5.88,1.74,7.5,7.5,0,0,1-3.89-.84Z" transform="translate(-34.38 -61.12)"/><path class="cls-4" d="M128.92,198.62a17.47,17.47,0,0,1-6.24.81,5.88,5.88,0,0,1-1.33-.12,5.35,5.35,0,0,1-1.16-.48l-2.25-1.13Z" transform="translate(-34.38 -61.12)"/><path class="cls-4" d="M130.91,204.91a20.88,20.88,0,0,1-6.26,1.31,20.22,20.22,0,0,1-3.38-.38,39.67,39.67,0,0,1-6.92-1.58,13.54,13.54,0,0,1-5.88-3.82Z" transform="translate(-34.38 -61.12)"/><path class="cls-4" d="M132.94,209.1a21,21,0,0,1-6.85,1.81c-4.48.35-8.9-1-13.19-2.27-2.07-.63-4.28-1.36-5.58-3.09Z" transform="translate(-34.38 -61.12)"/><path class="cls-4" d="M135.09,214.67c-3.92,2.68-8.93,3.08-13.67,3.1a26.74,26.74,0,0,1-6.92-.65,10.66,10.66,0,0,1-5.81-3.6Z" transform="translate(-34.38 -61.12)"/><path class="cls-4" d="M138.88,222.06a26.21,26.21,0,0,1-15.64,4.84,22.85,22.85,0,0,1-15.07-6.16Z" transform="translate(-34.38 -61.12)"/><path class="cls-4" d="M141.8,228.92a26.2,26.2,0,0,1-4.29,3.3,19.57,19.57,0,0,1-4.63,1.79,32,32,0,0,1-12,1.11,21.58,21.58,0,0,1-11.12-4.47Z" transform="translate(-34.38 -61.12)"/><path class="cls-4" d="M144.5,236.18c-4.68,4-11,5.54-17.09,6.33-4.26.55-8.81.74-12.59-1.29Z" transform="translate(-34.38 -61.12)"/><path class="cls-4" d="M148.46,243.83a3.77,3.77,0,0,1-1.39,1.5c-7.34,5.29-17.22,6.15-26,4Z" transform="translate(-34.38 -61.12)"/><path class="cls-4" d="M150.64,249.17a25.18,25.18,0,0,1-24.44,6.19Z" transform="translate(-34.38 -61.12)"/><path class="cls-4" d="M153.43,255.45a18.78,18.78,0,0,1-15.78,5.4Z" transform="translate(-34.38 -61.12)"/><path class="cls-4" d="M156.05,262.09c-1.72,1.71-4.18,2.42-6.56,2.83a36.12,36.12,0,0,1-6.48.55Z" transform="translate(-34.38 -61.12)"/><path class="cls-2" d="M320.26,161.83a2,2,0,1,1-4,0,2,2,0,0,1,2-2,1.94,1.94,0,0,1,1,.28A2,2,0,0,1,320.26,161.83Z" transform="translate(-34.38 -61.12)"/><path class="cls-2" d="M370.6,189.8a20.9,20.9,0,0,1-5.23.08A7.8,7.8,0,0,1,370.6,189.8Z" transform="translate(-34.38 -61.12)"/><path class="cls-2" d="M376,188a15.64,15.64,0,0,1-4.31,1.6A8.76,8.76,0,0,1,376,188Z" transform="translate(-34.38 -61.12)"/><path class="cls-1" d="M403.42,99l0-.1s.25-41.41-34.92-32.5c0,0,14.24,12.4,13,21.34s-12.75-17.24-26.84-15.42-12.46,11.21-12.46,11.21,34.54,2.68,32.11,14.56c-2,9.64-11.21-6.15-27.66-10.35A30.46,30.46,0,0,0,334,87.17s-10.3,4.89-10.33,15.46c0,0,25.1-2.68,39.72,12,0,0,5.76,6.42-7.06,4.82s-16.41-24.92-42.56-6.9c0,0-4.2,2.42-5.68,8.78-.1.42-.19.85-.26,1.3s-.14.94-.18,1.44c0,.1,0,.2,0,.3q-.06.7-.06,1.47c0,.34,0,.69,0,1s0,.44,0,.67,0,.53.06.8c0,0,.5-.26,1.37-.68h0l2-.9h0c.55-.24,1.17-.5,1.83-.76,1-.41,2.07-.82,3.24-1.24l.17-.07h0c1-.34,2-.68,3.06-1h0a57.55,57.55,0,0,1,6-1.48c7.64-1.41,15.74-1,19.81,5.48,0,0,3.72,5.37-7.22,3.92l-1.1-.16c-.51-.09-1-.2-1.58-.31-4.59-.94-10.15-2.64-15.23-3.08h0a19.19,19.19,0,0,0-6.54.39h0a9.42,9.42,0,0,0-5.63,3.92,12,12,0,0,0-1.08,2,15,15,0,0,0-.74,2.29,18,18,0,0,0-.39,2.11q-.09.6-.15,1.26s.14.83.4,2.08c.13.66.29,1.43.48,2.27.05.21.1.42.16.64h0c.21.88.45,1.81.7,2.71.13.46.27.92.42,1.36a20.42,20.42,0,0,0,.74,2,9.8,9.8,0,0,0,.64,1.26,3.3,3.3,0,0,0,.6.76s.28-.33.78-.86a41,41,0,0,1,4.67-4.2c.38-.3.79-.6,1.2-.88a24.16,24.16,0,0,1,2.45-1.54c.51-.29,1-.56,1.56-.8h0c3.75-1.71,7.95-2.26,11.68.53.29.22.55.43.79.63,3.2,2.81,1.74,4.82-1,6.22-.28.13-.58.27-.89.39a24.38,24.38,0,0,1-3.35,1.12,47.23,47.23,0,0,1-5.95,1.14s-7.82-2.29-11.76,1.9a3.17,3.17,0,0,0-.3.34,6.38,6.38,0,0,0-.6.84v0a7.88,7.88,0,0,0-.7,1.52,15.28,15.28,0,0,0-.37,7.25l2.42,13.94-.12.11,13.89,4c16.44,4.29,13.54-12.09,13.54-12.09s4.66-19.38,10.77-9.13-10.39,21-10.39,21c1.7,2.37,12.73,5.57,12.73,5.57,19.9.58,12.47-19.95,12.28-30.84s4.78-6.62,4.78-6.62c13.23,10.43-5,36.71-5,36.71a24.17,24.17,0,0,0,2.61.41h0a7.8,7.8,0,0,1,5.23-.08l1.09-.2h0A8.76,8.76,0,0,1,376,188a11.44,11.44,0,0,0,3.34-2.66c21.16-23.55-1.89-29.76-2-42.52s5.67-6.36,5.67-6.36c13,16,7.44,40.32,7.44,40.32,10.64,1.2,16.75-8.34,16.75-8.34,5.67-19.56-11-34.15-9.65-39.05.27-1,1.27-1.57,3.31-1.74,7-.57,9.56,10.32,10.49,19.78a111.68,111.68,0,0,1,.45,13.39,8.9,8.9,0,0,0,7-1.37c2.2-1.48,4.4-4.3,5.74-9.55C428,136.29,403,122,412.11,121.8c2.89-.06,5.95,1.44,8.78,3.52a2.07,2.07,0,0,1,1.35-.51,2,2,0,0,1,1.73,3,63.83,63.83,0,0,1,8.11,9.15C445.12,103.56,403.42,99,403.42,99Zm-85.18,64.83a2,2,0,0,1-2-2,2,2,0,0,1,2-2,1.94,1.94,0,0,1,1,.28,2,2,0,0,1,1,1.74A2,2,0,0,1,318.24,163.85Z" transform="translate(-34.38 -61.12)"/><path class="cls-2" d="M424.26,126.83a2,2,0,0,1-.29,1,35.48,35.48,0,0,0-3.08-2.54,2.07,2.07,0,0,1,1.35-.51A2,2,0,0,1,424.26,126.83Z" transform="translate(-34.38 -61.12)"/><polygon class="cls-5" points="227.16 224.02 221.91 223.48 231.86 85.1 237.12 85.64 227.16 224.02"/><path class="cls-5" d="M337.89,161l-18.64-.95L317.4,160l-9.17-.47-37.52-1.91-5.27-.27-63.31-3.23-2.57-1.71,13.59.59h0l2.44.1h0l49.93,2.16,5.27.22,7.6.33.81,0h0l21.59.93h0l8.65.37,2.44.11h0l21.09.91.83,0,1.58.07h0Z" transform="translate(-34.38 -61.12)"/><polygon class="cls-5" points="302.72 63.08 302.52 70.29 302.2 81.38 295.57 82.76 300.66 79.87 300.85 73.21 300.86 72.79 300.94 69.98 301.18 61.57 302.72 63.08"/><polygon class="cls-5" points="301.88 92.53 298.59 92.36 301.13 97.15 301.71 98.25 300.14 98.17 298.72 97.05 293.17 92.65 291.64 91.44 295.43 87.62 298.44 84.92 300.57 83.01 302.15 83.1 301.88 92.53"/><path class="cls-6" d="M335.56,122.69l-.24,8.41-.08,2.81v.42L335,141,330,143.88l5,.25L334.7,153l-2.91-.74-1.28-.33.39.72,3,5.55.59,1.09-17.3-.88-8.28-.42-.43,0h-.08l-29.77-1.52h0l-1.31-.07h0l-6.5-.33-5.27-.27-66-3.36.31-10.62v-.36l.17-5.89.79-1,.1-.13h0l.61-.78-1.38-2.36.21-7.43,2.65-1.67.3-.19-.29-.65-2.43-5.5L223.07,117h0l.67,0,20.75,1.06.7,0h0l33.55,1.71h0l.29,0,29,1.48,17.31.88Z" transform="translate(-34.38 -61.12)"/><g class="cls-7"><path class="cls-5" d="M223.84,116.55a6.8,6.8,0,0,1-1.24,2.94,4.83,4.83,0,0,1-1.31,1.18,3.42,3.42,0,0,1-1.77.48,26.41,26.41,0,0,1-3.1-.67,3.35,3.35,0,0,0-2.64.79,11.31,11.31,0,0,1-2.61,1.75,6.39,6.39,0,0,1-3.39.43,21.57,21.57,0,0,1-3-.68,17.8,17.8,0,0,1-2.88-1.11l0-.2a24.57,24.57,0,0,1,6-.13,7.94,7.94,0,0,0,2.55-.09c.8-.23,1.72-.66,2.75-.95a9.59,9.59,0,0,1,3.16-.45,12.06,12.06,0,0,0,2.9-.35,6.86,6.86,0,0,0,1.08-.38,6.24,6.24,0,0,0,1-.69c.7-.56,1.36-1.31,2.2-2Z" transform="translate(-34.38 -61.12)"/><path class="cls-5" d="M233.79,117.7A6.73,6.73,0,0,1,230,121a7.2,7.2,0,0,1-2.59.44,18,18,0,0,0-2.15,0,2.1,2.1,0,0,0-1.47.87,1.37,1.37,0,0,0-.19.9,5,5,0,0,1,0,1.3,1.61,1.61,0,0,1-.85,1.15,2.29,2.29,0,0,1-1.36.25,20.75,20.75,0,0,1-2.35-.72,8.17,8.17,0,0,0-4.27.39c-1.44.44-2.91,1.09-4.59,1.44a12.76,12.76,0,0,1-9.62-1.89l.08-.19a20.3,20.3,0,0,0,9.08,0c1.44-.33,2.95-.85,4.59-1.19a10.83,10.83,0,0,1,2.57-.25,6.37,6.37,0,0,1,2.56.68,9.49,9.49,0,0,0,2.06,1.07c.63.17,1.43-.22,1.46-.82a3.3,3.3,0,0,0-.21-1.06,2.63,2.63,0,0,1,0-1.45,3.2,3.2,0,0,1,2.08-2.08,7.28,7.28,0,0,1,2.6-.21,8.4,8.4,0,0,0,2.13-.15,10.22,10.22,0,0,0,4-1.94Z" transform="translate(-34.38 -61.12)"/><path class="cls-5" d="M244.52,117.86a1.31,1.31,0,0,1,1.21.92,2,2,0,0,1,0,1.66,2.88,2.88,0,0,1-1.12,1.22,6.78,6.78,0,0,1-1.36.62,7.26,7.26,0,0,0-1.1.47,1.75,1.75,0,0,0-.7.62,2.87,2.87,0,0,1-.59.68,1.72,1.72,0,0,1-.62.31,2.48,2.48,0,0,1-.53.07h-.29a.45.45,0,0,0-.22.17c-.21.23-.44.65-.78,1.06a5.25,5.25,0,0,1-1.14,1,7.74,7.74,0,0,1-2.66,1.08,23.59,23.59,0,0,1-5.49.22l-5.34-.07c-1.77,0-3.53,0-5.3.1-3.53,0-7,.24-10.69.34l0-.2a34.43,34.43,0,0,1,10.65-2.27,39.94,39.94,0,0,1,5.47.14,34.87,34.87,0,0,1,5.38.87,10.14,10.14,0,0,0,5.2.24,4.77,4.77,0,0,0,2.12-1.3,4.21,4.21,0,0,0,.67-1,11.38,11.38,0,0,1,.61-1.24,2.23,2.23,0,0,1,.76-.73,2,2,0,0,1,.59-.21,2.51,2.51,0,0,1,.42,0l.12,0a2.14,2.14,0,0,0,.29-.32,3.54,3.54,0,0,1,1.35-1.08,7.93,7.93,0,0,1,1.43-.44,3.45,3.45,0,0,0,2-.89c.36-.4.47-1.51-.28-1.84Z" transform="translate(-34.38 -61.12)"/><path class="cls-5" d="M251.13,118.51a1.63,1.63,0,0,1,.9,1.59,3.27,3.27,0,0,1-.63,1.81,2.86,2.86,0,0,1-.76.71,5.47,5.47,0,0,1-.83.43c-.56.24-1.11.41-1.57.6a3.36,3.36,0,0,0-1.15.71c-.33.31-.66.76-1.13,1.21a8.62,8.62,0,0,1-3.15,1.81,39.56,39.56,0,0,1-6.68,1.47q-3.33.56-6.61,1.28a14.9,14.9,0,0,1-3.47.47,17.55,17.55,0,0,1-3.45-.53,21.33,21.33,0,0,0-6.34-.22c-2.17.15-4.39.48-6.67.56a17.48,17.48,0,0,1-6.78-.85l.05-.2c4.48.3,8.62-1.13,13.2-1.63a21.37,21.37,0,0,1,3.49-.09,19.29,19.29,0,0,1,3.49.6,26.55,26.55,0,0,0,3.12.76,17.08,17.08,0,0,0,3.21.05,38.54,38.54,0,0,0,6.63-.84,28.43,28.43,0,0,0,6.16-2.36,11.11,11.11,0,0,0,2.59-1.58c.35-.3.71-.74,1.21-1.18a4.9,4.9,0,0,1,1.77-.91c.58-.18,1.13-.26,1.63-.39a6.37,6.37,0,0,0,.7-.24,1.82,1.82,0,0,0,.54-.34,2.58,2.58,0,0,0,.73-1.2,1.25,1.25,0,0,0-.3-1.33Z" transform="translate(-34.38 -61.12)"/><path class="cls-5" d="M259.15,118.9a2.24,2.24,0,0,1,.6,2.09,4.65,4.65,0,0,1-1.9,2.76,8.74,8.74,0,0,1-1,.53c-.65.29-1.28.54-1.84.81a4,4,0,0,0-1.35,1c-.34.34-.48.93-1,1.69a2.73,2.73,0,0,1-1.16.91,4.49,4.49,0,0,1-1.27.26c-.79.05-1.37,0-2,0a13.88,13.88,0,0,0-3.81.68,27.21,27.21,0,0,0-3.69,1.64,15.75,15.75,0,0,1-8.11,1.59,60.74,60.74,0,0,1-8.13-1.15,30.69,30.69,0,0,0-7.83-.29c-5.26.39-10.46,1.92-15.78,3.19l-.07-.19a45.88,45.88,0,0,1,15.66-5.12,25.93,25.93,0,0,1,8.38.56c2.71.57,5.26,1.44,7.88,1.91a13.8,13.8,0,0,0,4,.17,10.26,10.26,0,0,0,3.75-1.25c1.18-.64,2.29-1.45,3.56-2.09a14.24,14.24,0,0,1,4.07-1.3,20.2,20.2,0,0,1,2.05-.16,1.46,1.46,0,0,0,1.15-.48,18.44,18.44,0,0,1,1.15-1.74,5.37,5.37,0,0,1,2-1.28c1.37-.56,2.69-.69,3.58-1.45a3.82,3.82,0,0,0,1.09-1.43A1.89,1.89,0,0,0,259,119Z" transform="translate(-34.38 -61.12)"/><path class="cls-5" d="M278.85,119.67a2.33,2.33,0,0,1,.94,2.52,3.42,3.42,0,0,1-1.75,2.29,10.87,10.87,0,0,1-2.56,1c-.85.23-1.71.44-2.57.6-3.42.7-6.82,1.15-9.7,2.66-.36.2-.71.37-1.12.61a4.1,4.1,0,0,1-1.46.54,11.33,11.33,0,0,0-2.45.2c-.63.27-1.35.9-2.13,1.35a13.94,13.94,0,0,1-2.41,1.14,31.69,31.69,0,0,1-10.4,1.42c-3.49.06-6.93,0-10.33.25a82.55,82.55,0,0,0-10.13,1.58,74.35,74.35,0,0,1-10.4,1.42,30.43,30.43,0,0,1-5.31-.25,20.56,20.56,0,0,1-5.07-1.43l.06-.19a29.6,29.6,0,0,0,5.1.62,34.62,34.62,0,0,0,5.09-.32c3.37-.45,6.71-1.22,10.11-1.94a58.61,58.61,0,0,1,10.45-1.36,77.38,77.38,0,0,1,10.47.53c3.41.29,6.95.38,10.12-.93a11.27,11.27,0,0,0,2.2-1.23c.33-.27.65-.51,1-.8a5.77,5.77,0,0,1,1.13-.86,9.45,9.45,0,0,1,2.66-.57,10.16,10.16,0,0,0,2-1.22,16.05,16.05,0,0,1,5.08-1.93c1.75-.38,3.48-.58,5.19-.81a23.89,23.89,0,0,0,4.9-1,2.71,2.71,0,0,0,1.58-1.51,2,2,0,0,0-.39-2.19Z" transform="translate(-34.38 -61.12)"/><path class="cls-5" d="M331.54,126.36c-5.62-.76-11.24-1.39-16.88-1.73s-11.26-.4-16.9-.32a124.14,124.14,0,0,0-16.9,1.19,15.22,15.22,0,0,0-7.62,3.12,10.39,10.39,0,0,0-1.38,1.51c-.41.56-.78,1.16-1.2,1.75a8.27,8.27,0,0,1-3.28,3,13.4,13.4,0,0,1-4.27,1.21c-1.45.2-2.86.28-4.28.39-2.84.2-5.68.36-8.52.45-5.68.2-11.41.2-17.05,0a40.88,40.88,0,0,0-8.29.47c-2.74.45-5.5,1.15-8.35,1.59a23.89,23.89,0,0,1-8.68,0,14.61,14.61,0,0,0-4.09-.51,4.07,4.07,0,0,0-3.3,2l-.19-.08a4.38,4.38,0,0,1,3.39-2.61,13.71,13.71,0,0,1,4.35.15,23.88,23.88,0,0,0,8.24-.56c2.73-.59,5.45-1.39,8.29-2a40.83,40.83,0,0,1,8.66-.7c5.7.14,11.31.3,17,.24,2.83,0,5.65-.07,8.48-.16s5.69.05,8.16-1a7.27,7.27,0,0,0,3.06-2.51,18.92,18.92,0,0,1,2.83-3.28,17.41,17.41,0,0,1,7.95-3.24,152.69,152.69,0,0,1,16.94-2.21,106.13,106.13,0,0,1,17.1.44,103.6,103.6,0,0,1,16.79,3.08Z" transform="translate(-34.38 -61.12)"/><path class="cls-5" d="M198.81,142a19.55,19.55,0,0,1,4.67-2,45.71,45.71,0,0,1,5-1.17c3.32-.62,6.66-1.18,10-1.58a192.45,192.45,0,0,1,20.21-1.35c6.74-.06,13.49.06,20.24.28s13.48.67,20.19,1.39,13.39,1.72,20,3a68.19,68.19,0,0,1,9.92,2.56c.81.29,1.62.59,2.41.94.39.18.79.33,1.25.59a3.65,3.65,0,0,1,1.31,1.22,2.72,2.72,0,0,1,.3,2,3.26,3.26,0,0,1-1,1.58,5.7,5.7,0,0,1-2.76,1.36c-7,1.31-13.75-.16-20.36-.19a36.86,36.86,0,0,0-4.93.28c-.82.08-1.61.28-2.42.44-.4.09-.79.22-1.18.33a7.87,7.87,0,0,0-1.13.38c-.69.31-1.28.82-1.28,1.41a7.2,7.2,0,0,0,.24,1.18,1.74,1.74,0,0,1-.46,1.44,2.93,2.93,0,0,1-2.57.77,5.82,5.82,0,0,0-2.45-.07l-.07-.19a5.84,5.84,0,0,1,2.55-.18,2.38,2.38,0,0,0,2-.75,1.06,1.06,0,0,0,.21-.9,6.87,6.87,0,0,1-.35-1.27A2,2,0,0,1,279,152a4.11,4.11,0,0,1,1.15-.87,8.36,8.36,0,0,1,1.23-.5c.41-.15.81-.31,1.22-.43a25,25,0,0,1,2.52-.61,30.48,30.48,0,0,1,5.12-.55c6.83-.2,13.59.94,20-.34a3.81,3.81,0,0,0,1.72-.84,1.16,1.16,0,0,0,.36-.52.54.54,0,0,0-.07-.42,3.6,3.6,0,0,0-1.57-.95c-.75-.33-1.51-.64-2.28-.94a68,68,0,0,0-9.57-2.67c-6.57-1.34-13.18-2.63-19.81-3.71a137.75,137.75,0,0,0-20.07-1.83c-3.36,0-6.72.06-10.09.21s-6.72.34-10.08.53c-6.71.34-13.42.63-20.1,1.22-3.34.3-6.69.61-10,1.08a32.51,32.51,0,0,0-9.71,2.32Z" transform="translate(-34.38 -61.12)"/><path class="cls-5" d="M224.43,149.51a56.56,56.56,0,0,1-6.13.9,3.72,3.72,0,0,1-1.87-.31,2.4,2.4,0,0,1-1.3-1.8,3.34,3.34,0,0,1,1-2.86,4.33,4.33,0,0,1,.79-.58,5.43,5.43,0,0,1,1.67-.6c.54-.12,1-.17,1.55-.24,1-.13,2.07-.21,3.1-.28,2.06-.12,4.1-.29,6.14-.49l6.13-.68c2-.22,4.09-.29,6.14-.37a23.48,23.48,0,0,1,6.33.35,10.91,10.91,0,0,1,3.13,1.21,8.12,8.12,0,0,1,2.51,2.3l.54.79-.74.43a17.14,17.14,0,0,1-3.78,1.65,15,15,0,0,1-4,.62l0-.2a22.38,22.38,0,0,0,3.65-1.45,21.36,21.36,0,0,0,3.26-2l-.2,1.22a8.28,8.28,0,0,0-4.77-2.48,20.32,20.32,0,0,0-2.86-.35c-1-.08-2-.11-3-.12-2,0-4.08-.06-6.12-.16s-4.08-.18-6.12-.09a30.72,30.72,0,0,0-6,.84c-1,.23-2,.5-2.95.77a13,13,0,0,0-2.63.89,2.08,2.08,0,0,0-.43.34,1.57,1.57,0,0,0-.3.37,1.66,1.66,0,0,0-.22.95.85.85,0,0,0,.37.64,2.45,2.45,0,0,0,1.11.26c2,0,4.08.11,6.12.35Z" transform="translate(-34.38 -61.12)"/><path class="cls-5" d="M247,150.72a22.08,22.08,0,0,0,4.34.31,6.45,6.45,0,0,0,3.76-1.42,4.89,4.89,0,0,0,1.17-1.57,4.9,4.9,0,0,1,.71-1.06,2.59,2.59,0,0,1,1.28-.76,5.32,5.32,0,0,1,2.55.16c.75.21,1.4.38,2.11.53a30.42,30.42,0,0,0,8.5.63c1.37-.08,2.5-.49,3-1.5a1.48,1.48,0,0,0,0-1.41c-.24-.44-.73-.7-1-.56l-3.76,1.82,3-2.84,1.54-1.43.33.93a166.81,166.81,0,0,0-20.32-2.12c-3.4-.18-6.81-.26-10.2-.42s-6.81-.32-10.16-.27a95.75,95.75,0,0,0-19.94,2.93l-5,1.16c-1.55.32-3.09,1.1-2.68,2.31a3.44,3.44,0,0,0,1.44,1.58c.68.47,1.4.91,2.13,1.32a21.18,21.18,0,0,0,4.68,1.87l0,.2a19.16,19.16,0,0,1-5-1.36,16.37,16.37,0,0,1-2.33-1.17,4.44,4.44,0,0,1-2-2,2.54,2.54,0,0,1-.07-1.68,2.9,2.9,0,0,1,.94-1.35,6.53,6.53,0,0,1,2.56-1.24c1.63-.49,3.27-1,4.92-1.42,6.58-1.82,13.43-3.29,20.4-3.12,3.46.06,6.86.32,10.26.63s6.79.69,10.18,1.07c6.78.82,13.56,1.52,20.37,2l1.11.08-.79.85-1.42,1.55-.72-1a1.91,1.91,0,0,1,1.62,0,2.57,2.57,0,0,1,1.13,1,2.62,2.62,0,0,1,.48,1.41,3.33,3.33,0,0,1-.25,1.41,3.93,3.93,0,0,1-1.86,2,6.28,6.28,0,0,1-2.44.64,27.69,27.69,0,0,1-9-.78c-1.46-.33-2.95-1.06-3.94-.87-.49.08-.78.39-1.17,1a5.8,5.8,0,0,1-1.6,1.83,7,7,0,0,1-4.48,1.26,18.29,18.29,0,0,1-4.39-.88Z" transform="translate(-34.38 -61.12)"/><path class="cls-5" d="M200.5,149.61a13.58,13.58,0,0,0,2.45.31,10.38,10.38,0,0,1,2.5.38c.82.27,1.61.71,2.45.9a7.85,7.85,0,0,0,2.56.09,25,25,0,0,1,2.55-.21c.84,0,1.66-.11,2.49-.1a50.26,50.26,0,0,1,5.09.27l0,.2a10.51,10.51,0,0,1-5.07,1.66,13.71,13.71,0,0,1-2.64-.14,12.06,12.06,0,0,1-2.58-.59,9.85,9.85,0,0,0-2.54-.54c-.86-.07-1.76.12-2.63.1a9,9,0,0,1-2.56-.5,4,4,0,0,1-2.24-1.67Z" transform="translate(-34.38 -61.12)"/><path class="cls-5" d="M332.41,138.64c-1.42,0-2.82,0-4.22.14s-2.79.22-4.17.4a18.48,18.48,0,0,0-3.93.79,3.93,3.93,0,0,0-1.48.89,1.73,1.73,0,0,0-.52,1.25l-.7-.85c.76.18,1.53.34,2.28.54l1,.26-.43.94a2.25,2.25,0,0,1-1.21,1.16,2.1,2.1,0,0,1-1.7,0l1.13-.81a1,1,0,0,0,.27.68,2.77,2.77,0,0,0,.84.59c.67.34,1.53.54,2.37.91a13.56,13.56,0,0,1,2.32,1.31,11.63,11.63,0,0,1,1.05.8,3.2,3.2,0,0,1,.91,1.1,1.64,1.64,0,0,1-.09,1.52,2.57,2.57,0,0,1-1.1.93,5.22,5.22,0,0,1-1.3.43l-1.26.27c-1.68.36-3.36.73-5.05,1.06a86.1,86.1,0,0,1-10.23,1.51c-1.72.16-3.44.29-5.17.39-.85.06-1.75.06-2.56.09a3.3,3.3,0,0,0-.94.15c-.23.1-.27.15-.33.25l-.71-1.45c1.62.45,3.25.84,4.87,1.26s3.27.78,4.91,1.15c3.29.75,6.6,1.38,9.93,2l0,.2a80.72,80.72,0,0,1-10.18-.69c-1.69-.22-3.37-.48-5-.8s-3.34-.7-5-1.09l-1.17-.28.46-1.17a2.61,2.61,0,0,1,1.54-1.41,5.1,5.1,0,0,1,1.59-.27l2.57-.06c1.71,0,3.41-.09,5.11-.18,3.39-.22,6.8-.45,10.2-.76,1.7-.17,3.4-.36,5.09-.62a9.43,9.43,0,0,0,2.42-.55,2,2,0,0,0,.85-.69,1,1,0,0,0,0-.95,4.76,4.76,0,0,0-1.79-1.52,11.36,11.36,0,0,0-2.27-1c-.77-.25-1.62-.33-2.52-.66a4,4,0,0,1-1.34-.76,2.53,2.53,0,0,1-.86-1.57l-.15-1.1,1.28.29a.59.59,0,0,0,.38,0,.58.58,0,0,0,.27-.31l.61,1.2c-.77-.15-1.53-.33-2.29-.49l-.7-.15v-.7a3.47,3.47,0,0,1,.27-1.41,3.72,3.72,0,0,1,.8-1.13,5.72,5.72,0,0,1,2.14-1.24,9.23,9.23,0,0,1,2.25-.44c.71-.08,1.43-.14,2.14-.16a38.53,38.53,0,0,1,4.3.05,35.32,35.32,0,0,1,4.23.61Z" transform="translate(-34.38 -61.12)"/><path class="cls-5" d="M325.53,131.61c-.49-.94-1.52-1.16-2.52-1.38l-3.12-.65c-2.07-.42-4.14-.75-6.22-1.14a40.41,40.41,0,0,0-6.3-.94,24.24,24.24,0,0,0-3.19.09,7,7,0,0,0-2.91.81,1.78,1.78,0,0,0-.8.87,1.49,1.49,0,0,0,.08,1,2.43,2.43,0,0,0,1.82,1.38,28.06,28.06,0,0,0,3,.42l3.15.32c4.2.46,8.42.69,12.74.95l0,.2a43,43,0,0,1-12.95,1c-1.08-.09-2.16-.19-3.23-.38a24.56,24.56,0,0,1-3.3-.68,4.63,4.63,0,0,1-1.72-.94,3.59,3.59,0,0,1-1.09-1.75,2.8,2.8,0,0,1,.23-2.11,3,3,0,0,1,1.54-1.25,9.67,9.67,0,0,1,3.35-.5l3.23-.06c2.15,0,4.34-.22,6.52-.06a28.53,28.53,0,0,1,6.39,1.29,30.32,30.32,0,0,1,3.06,1.13,6.2,6.2,0,0,1,1.49.85,2.17,2.17,0,0,1,.89,1.49Z" transform="translate(-34.38 -61.12)"/><path class="cls-5" d="M329.51,129.21a74.14,74.14,0,0,0-14.08-3,68,68,0,0,0-7.13-.39c-2.39,0-4.78,0-7.16.26s-4.81.6-7.25.77c-.62,0-1.23.07-1.84.07s-1.23-.05-1.81,0a3.22,3.22,0,0,0-1.58.41,1.74,1.74,0,0,0-.75,1.29,2.83,2.83,0,0,0,.29,1.56,3.35,3.35,0,0,0,1,1.23,11.86,11.86,0,0,0,3.15,1.46c2.28.83,4.54,1.71,6.8,2.58l.9.35-.48.89-.66,1.25V137c.06.07.12.12.37.17a3.32,3.32,0,0,0,.95,0l2.42-.22,4.83-.42c3.23-.26,6.46-.45,9.69-.63s6.47-.25,9.66-.45a31.71,31.71,0,0,0,9.36-1.91l.09.18a21.44,21.44,0,0,1-4.49,2,36.19,36.19,0,0,1-4.8,1.09c-3.24.53-6.46.76-9.68,1.1s-6.45.55-9.67.76l-4.85.28-2.42.13a5,5,0,0,1-1.46-.07,2.29,2.29,0,0,1-1.59-1.11l-.24-.48.24-.41.73-1.22.42,1.24c-2.21-1-4.42-2-6.6-3.05a13.44,13.44,0,0,1-3.27-1.89,4.07,4.07,0,0,1-1.41-3.62,2.49,2.49,0,0,1,1.11-1.71,3.73,3.73,0,0,1,1.89-.49,28.89,28.89,0,0,0,3.62-.11c2.39-.25,4.72-.91,7.13-1.35a41.83,41.83,0,0,1,7.33-.79,46.48,46.48,0,0,1,7.36.53A44.35,44.35,0,0,1,329.59,129Z" transform="translate(-34.38 -61.12)"/></g><path class="cls-8" d="M234.12,134.21q-.12,4.9-1.71,7.5a4.76,4.76,0,0,1-4.5,2.47,5.35,5.35,0,0,1-4.53-2.9c-1.09-1.85-1.6-4.42-1.52-7.73a15.22,15.22,0,0,1,1.85-7.72,5,5,0,0,1,4.72-2.63,4.75,4.75,0,0,1,3,1.13,6.1,6.1,0,0,1,1.79,2.78A22,22,0,0,1,234.12,134.21Zm-1-.55A14.63,14.63,0,0,0,232,127a4.13,4.13,0,0,0-3.64-2.63,4.2,4.2,0,0,0-3.89,2.28,14,14,0,0,0-1.59,7c-.08,3.55.6,6.2,2,7.93a3.77,3.77,0,0,0,2.79,1.49,4.12,4.12,0,0,0,2.62-.65,4.84,4.84,0,0,0,1.61-2.07A18.1,18.1,0,0,0,233.12,133.66Z" transform="translate(-34.38 -61.12)"/><path class="cls-8" d="M249.39,137.13a15.68,15.68,0,0,1-.44,3.54A7.52,7.52,0,0,1,248,143a4.68,4.68,0,0,1-1.31,1.28,4.27,4.27,0,0,1-4.09.35,5.46,5.46,0,0,1-1.59-1,5.06,5.06,0,0,1-1.32-2.28,11.87,11.87,0,0,1-.43-3.74,11.33,11.33,0,0,1,1.45-5.76,4.05,4.05,0,0,1,3.85-2.07,4.14,4.14,0,0,1,3.67,2.28A10.05,10.05,0,0,1,249.39,137.13Zm-5.53,6.72.33.05.3,0c2.49-.15,3.78-2.36,3.89-6.65a9.19,9.19,0,0,0-.89-4.47,3.4,3.4,0,0,0-3.1-1.93,2.93,2.93,0,0,0-2.35.94q-1.66,1.77-1.75,5.67v.23a8.53,8.53,0,0,0,.84,4.2A3.48,3.48,0,0,0,243.86,143.85Z" transform="translate(-34.38 -61.12)"/><path class="cls-8" d="M264.47,137.81a15.68,15.68,0,0,1-.44,3.54,7.35,7.35,0,0,1-.94,2.32,4.59,4.59,0,0,1-1.31,1.29,4.27,4.27,0,0,1-4.09.35,5.46,5.46,0,0,1-1.59-1,5,5,0,0,1-1.32-2.28,11.87,11.87,0,0,1-.43-3.74,11.33,11.33,0,0,1,1.45-5.76,4.07,4.07,0,0,1,3.85-2.08,4.18,4.18,0,0,1,3.67,2.28A10.19,10.19,0,0,1,264.47,137.81Zm-5.53,6.72.33,0h.3c2.49-.15,3.78-2.36,3.89-6.65a9.23,9.23,0,0,0-.89-4.48,3.41,3.41,0,0,0-3.1-1.92,2.94,2.94,0,0,0-2.35.93q-1.67,1.78-1.75,5.67v.24a8.58,8.58,0,0,0,.83,4.19A3.5,3.5,0,0,0,258.94,144.53Z" transform="translate(-34.38 -61.12)"/><path class="cls-8" d="M270.78,153.55l-1,0,.53-22.32,1,.05,0,1.78a5,5,0,0,1,3.91-1.94,3.81,3.81,0,0,1,2.25,1c1.57,1.34,2.33,3.51,2.26,6.5q-.13,5.29-3.81,6.77a13.09,13.09,0,0,1-4.92.73ZM278,141.87a9.45,9.45,0,0,0,.66-3.56,8.09,8.09,0,0,0-1-4.14,3.29,3.29,0,0,0-2.68-2,3,3,0,0,0-1.92.58,10.48,10.48,0,0,0-1.84,1.75L271,145C274.65,145.18,277,144.13,278,141.87Z" transform="translate(-34.38 -61.12)"/><path class="cls-8" d="M289.81,145.44a4.64,4.64,0,0,0,2.33-1.11,2.93,2.93,0,0,0,.69-2,2.47,2.47,0,0,0-.83-2,4.6,4.6,0,0,0-2.1-1c-.83-.17-1.65-.37-2.48-.57a4.24,4.24,0,0,1-2.09-1.21,3.41,3.41,0,0,1-.82-2.54q.08-3.45,5-3.23a24.51,24.51,0,0,1,4.18.6l0,1.16a22.84,22.84,0,0,0-4.12-.66,6.74,6.74,0,0,0-2.85.4,1.75,1.75,0,0,0-1.2,1.7,2.28,2.28,0,0,0,.83,1.94,5.29,5.29,0,0,0,2.1,1q1.23.32,2.49.69A4.45,4.45,0,0,1,293,140a4,4,0,0,1,.81,2.76,3.31,3.31,0,0,1-1.63,3.06,9.85,9.85,0,0,1-1.5.69,6.59,6.59,0,0,1-1.89.29c-1.25.06-2.43.07-3.56,0l-.69,0,0-1.11A20.23,20.23,0,0,0,289.81,145.44Z" transform="translate(-34.38 -61.12)"/><path class="cls-8" d="M300.93,147.46l-2.11-.09.07-2.83,2.1.1Z" transform="translate(-34.38 -61.12)"/><path class="cls-8" d="M308.62,147.81l-2.11-.1.07-2.82,2.11.09Z" transform="translate(-34.38 -61.12)"/><path class="cls-8" d="M316.31,148.15l-2.11-.09.07-2.83,2.11.1Z" transform="translate(-34.38 -61.12)"/><path class="cls-2" d="M65.42,304.09q1,3.14,2,6.22A29.58,29.58,0,0,1,65.42,304.09Z" transform="translate(-34.38 -61.12)"/><path class="cls-2" d="M157.59,280.32a2.34,2.34,0,0,1-.28.47l-.37-.31a1.27,1.27,0,0,1,.62-.16Z" transform="translate(-34.38 -61.12)"/><path class="cls-1" d="M161.26,293.69v14l-.14-.08-12.31,6C134,320.36,134.05,304,134.05,304s-7.57-18-11.65-7.14,13.24,18.71,13.24,18.71c-1.22,2.57-11.09,7.38-11.09,7.38-18.69,3.69-15-17.34-16.64-27.91s-5.6-5.66-5.6-5.66c-10.77,12.16,10.74,34.74,10.74,34.74-10.56,4.16-16.35-1.41-16.35-1.41-23.82-19.47-3.08-29.09-5-41.46S85.26,276,85.26,276c-9.68,17.55-.42,40.18-.42,40.18C75,319,67.67,310.76,67.67,310.76s-.13-.27-.19-.41,0,0,0,0q-1.08-3.09-2-6.22v0c-3.92-18.86,12.07-34.62,1.57-33.78-4.7.37-6.41,5.9-6.78,12.38h0c-.55,9.65,1.89,21.42,1.89,21.42s-8.3,4-13.79-8.57,15.76-30.39,7.11-29.14-16.35,17.85-16.35,17.85c-15-25.54,10-37.32,18.32-40.4,1.55-.58,2.51-.85,2.51-.85H60s-7-40,27.62-36.92c0,0-11.4,14.23-8.77,22.69s9.21-18.69,22.8-19.13a24,24,0,0,1,4,.18c4.06.55,6.4,2.2,7.74,3.92a8.7,8.7,0,0,1,1.67,3.53,6.52,6.52,0,0,1,.17,1.27s-3.79.94-8.6,2.63c-9.19,3.23-22.09,9.19-19.31,16.49,3.08,8.09,8.33-4.53,20.08-12a35,35,0,0,1,4.15-2.26,28.52,28.52,0,0,1,12-2.62,15.66,15.66,0,0,1,1.87.74,20.46,20.46,0,0,1,6.09,4.23,15.48,15.48,0,0,1,2.68,3.62,14.77,14.77,0,0,1,1.44,3.78c.08.32.14.64.2,1a59.75,59.75,0,0,0-23.46,7.06,36.26,36.26,0,0,0-12.05,10.74s-4.39,7.12,7.45,3.56c3.64-1.1,6.12-4.05,8.62-7.22a58.16,58.16,0,0,1,4.55-5.39,17.37,17.37,0,0,1,4.77-3.46,15.55,15.55,0,0,1,7.87-1.34,27.26,27.26,0,0,1,6.15,1.23,49.86,49.86,0,0,1,7.06,2.83,7,7,0,0,1,1,.52,8.5,8.5,0,0,1,.74.49s0,0,0,0a14.1,14.1,0,0,1,3.91,4.32c.11.18.22.36.32.55a20.71,20.71,0,0,1,2.35,8.45h0c-.13-.05-.6-.2-1.34-.42l-.68-.19-.37-.11a73.64,73.64,0,0,0-8.74-1.85,48.65,48.65,0,0,0-9.64-.54,20.41,20.41,0,0,0-10.43,3l-.24.17c-.18.14-.36.27-.54.42a11.58,11.58,0,0,0-3.49,4.73s-2.63,5.79,7.45,2.67c1.56-.48,3.29-1.19,5.11-2,2.12-.91,4.38-1.92,6.65-2.79a32.36,32.36,0,0,1,7.78-2.1c.39-.05.79-.07,1.17-.09a11.76,11.76,0,0,1,3,.25,8.84,8.84,0,0,1,4.85,2.84,11.77,11.77,0,0,1,1.71,2.48,20.71,20.71,0,0,1,1.68,4.49v.33c0,.71,0,2.49-.16,4.52,0,.36,0,.73-.07,1.1-.19,2.67-.56,5.53-1.24,6.92h0a1.27,1.27,0,0,0-.62.16c-2.31-1.86-14.85-11.34-22-3.69-7.89,8.45,11.4,7.56,11.4,7.56s9.34-4.6,13.23,2.14A15,15,0,0,1,161.26,293.69Z" transform="translate(-34.38 -61.12)"/><path class="cls-1" d="M438.1,291a54,54,0,0,0-6.28-5.4l.07-.07s21.22-38-15.67-47.63c0,0,6.81,18.64,1.14,26.23s-3-22.34-16.89-27.81c-5.34-2.1-9.11-2-11.73-1.07a9.05,9.05,0,0,0-5.43,5.08s.56.36,1.5,1l.34.23c.51.35,1.1.78,1.76,1.25,7.79,5.68,25,19.58,18.58,27.19-6.67,7.84-7.19-11.18-20-23.4a33.34,33.34,0,0,0-4.06-3.3,32,32,0,0,0-3.33-2,32.65,32.65,0,0,0-4.15-1.81,22.56,22.56,0,0,0-9.19,1.74,18.11,18.11,0,0,0-2.27,1.17,16.3,16.3,0,0,0-3.86,3.19c-.19.22-.38.45-.56.69a16.31,16.31,0,0,0-1.47,2.21l.74.33.4.19a69.6,69.6,0,0,1,8.15,4.61c1.34.89,2.77,1.89,4.23,3s3.14,2.53,4.7,4c5.17,4.86,10,11.19,12.28,19,0,0,0,.08,0,.22a7,7,0,0,1,.11,1.33c0,2.11-1.22,5-9.09-.7a12.33,12.33,0,0,1-2.65-2.65,20.18,20.18,0,0,1-2.23-3.94c-1-2.24-1.76-4.7-2.67-7.13l-.33-.87c-.23-.59-.47-1.18-.73-1.76a27.31,27.31,0,0,0-1.57-3l-.37-.59a16.3,16.3,0,0,0-4.5-4.66h0a18.5,18.5,0,0,0-5.66-2.55c-.25-.07-.5-.14-.77-.2l-.54-.13a38.88,38.88,0,0,0-9.59-.69h0c-1.16.05-2.38.13-3.67.26l-.39,0a12.22,12.22,0,0,0-4.81,1.42c-2.82,1.42-6.31,4.29-8.81,10a78.41,78.41,0,0,1,17.36,2.7,45.8,45.8,0,0,1,4.83,1.65l.44.18h0l1,.46a29.61,29.61,0,0,1,3.26,1.71c.37.23.73.46,1.08.71a18,18,0,0,1,3.92,3.53,13,13,0,0,1,2.17,3.73,12.64,12.64,0,0,1,.79,3.75s.69,6.72-8.42.1l-.22-.15c-.95-.7-1.95-1.53-3-2.43-.85-.75-1.72-1.54-2.62-2.36l-.56-.51-1-.91-.34-.31-.16-.14c-.88-.79-1.77-1.58-2.68-2.35-7.6-6.43-16.13-11.15-23.85.35,0,0-3.88,11.28-2.84,14.18a38.69,38.69,0,0,1,13.4-2.25,17.08,17.08,0,0,1,5,.91h0c.32.11.64.24.95.38a10.25,10.25,0,0,1,3.47,2.51c.15.16.29.33.43.51l.33.44a12,12,0,0,1,1.66,3.64,5,5,0,0,1,.17,1.52c-.28,6.13-15.3,0-15.3,0s-12.47-12.56-18.67,4l-4.84,14.06-.17,0,10.75,10.75c13,12.29,18.6-4.27,18.6-4.27s14.12-15.48,14.55-2.94-20.22,14.08-20.22,14.08c.36,3.05,8.89,11.58,8.89,11.58,18,10.64,21.59-12,26.94-22.16s7.77-3.67,7.77-3.67c6.89,16.31-23.23,31.25-23.23,31.25,9.46,8.12,17.39,4.62,17.39,4.62,31.43-11,13.35-28.37,19.7-40.18s8.45-3,8.45-3c3.88,21.38-13.6,40.9-13.6,40.9,9.2,6.5,19.66.82,19.66.82,18.16-18.16,3.05-46.05,14.84-40.77s-6.74,36.09-6.74,36.09a9.2,9.2,0,0,0,5.46,2.29c3,.25,7.07-.86,11.79-5.89s3.76-13.51,2.28-20.53c-1.67-7.89-4-14,.53-11.64a10.64,10.64,0,0,1,3.1,2.55c6,6.86,7.58,21.58,7.58,21.58C459.79,317.71,446.94,299.71,438.1,291Zm-42,7.83a2,2,0,1,1,2-2A2,2,0,0,1,396.11,298.82Z" transform="translate(-34.38 -61.12)"/><path class="cls-2" d="M398.13,296.79a2,2,0,1,1-2-2A2,2,0,0,1,398.13,296.79Z" transform="translate(-34.38 -61.12)"/><path class="cls-9" d="M160.25,323.85a25.13,25.13,0,0,1,3.77-.25,5.89,5.89,0,0,1,3.76,1,3.39,3.39,0,0,1,1.26,2.72,3.61,3.61,0,0,1-1.08,2.75,5.89,5.89,0,0,1-4.14,1.33,5.82,5.82,0,0,1-1.27-.11v4.53h-2.3Zm2.3,5.66a5,5,0,0,0,1.29.13c1.79,0,2.9-.81,2.9-2.25s-1.09-2-2.7-2a8.35,8.35,0,0,0-1.49.11Z" transform="translate(-34.38 -61.12)"/><path class="cls-9" d="M174.12,332.32,173,335.84h-2.43l4.29-12.13h3l4.42,12.13h-2.55l-1.25-3.52Zm3.92-1.73-1.11-3.06c-.26-.73-.47-1.46-.67-2.12h0c-.19.67-.38,1.4-.61,2.11l-1.08,3.07Z" transform="translate(-34.38 -61.12)"/><path class="cls-9" d="M196.29,335.21a14.23,14.23,0,0,1-4.43.76,7.38,7.38,0,0,1-5.32-1.76,5.84,5.84,0,0,1-1.76-4.32c0-3.61,2.83-6.31,7.39-6.31a9.5,9.5,0,0,1,3.67.64l-.53,1.83a7.71,7.71,0,0,0-3.22-.59c-2.92,0-4.88,1.66-4.88,4.27s1.85,4.38,4.78,4.38a5.47,5.47,0,0,0,2-.28v-2.91H191.6v-1.8h4.69Z" transform="translate(-34.38 -61.12)"/><path class="cls-9" d="M207.93,330.51H202.8V334h5.73v1.87h-8.05V323.71h7.76v1.87H202.8v3.05h5.13Z" transform="translate(-34.38 -61.12)"/><path class="cls-9" d="M218.19,335.84V323.71H221l3.5,5.22a31.22,31.22,0,0,1,2.28,4.14l.05,0a42.39,42.39,0,0,1-.19-4.84v-4.5h2.16v12.13h-2.47l-3.54-5.39a44.77,44.77,0,0,1-2.45-4.3l-.07,0c.09,1.63.11,3.19.11,5v4.65Z" transform="translate(-34.38 -61.12)"/><path class="cls-9" d="M245.36,329.67a6.14,6.14,0,0,1-6.5,6.39,6,6,0,0,1-6.25-6.15,6.18,6.18,0,0,1,6.43-6.42A6,6,0,0,1,245.36,329.67Zm-10.3.17c0,2.42,1.5,4.41,3.92,4.41s3.92-1.92,3.92-4.5c0-2.32-1.39-4.45-3.91-4.45S235.06,327.36,235.06,329.84Z" transform="translate(-34.38 -61.12)"/><path class="cls-9" d="M251.27,325.6h-3.89v-1.89h10.14v1.89h-3.93v10.24h-2.32Z" transform="translate(-34.38 -61.12)"/><path class="cls-9" d="M266.56,323.71h7.7v1.87h-5.38v3.26h5v1.87h-5v5.13h-2.32Z" transform="translate(-34.38 -61.12)"/><path class="cls-9" d="M290.45,329.67a6.14,6.14,0,0,1-6.5,6.39,6,6,0,0,1-6.25-6.15,6.18,6.18,0,0,1,6.43-6.42A6,6,0,0,1,290.45,329.67Zm-10.3.17c0,2.42,1.5,4.41,3.92,4.41s3.92-1.92,3.92-4.5c0-2.32-1.39-4.45-3.91-4.45S280.15,327.36,280.15,329.84Z" transform="translate(-34.38 -61.12)"/><path class="cls-9" d="M296.58,323.71v6.77c0,2.5,1.1,3.77,2.85,3.77s2.95-1.25,2.95-3.77v-6.77h2.31v6.68c0,3.94-2.15,5.67-5.36,5.67-3,0-5.07-1.59-5.07-5.68v-6.67Z" transform="translate(-34.38 -61.12)"/><path class="cls-9" d="M309.17,335.84V323.71H312l3.51,5.22a31.22,31.22,0,0,1,2.28,4.14l0,0a44.82,44.82,0,0,1-.19-4.84v-4.5h2.16v12.13h-2.47l-3.54-5.39a47,47,0,0,1-2.45-4.3l-.07,0c.09,1.63.11,3.19.11,5v4.65Z" transform="translate(-34.38 -61.12)"/><path class="cls-9" d="M324.23,323.87a29.16,29.16,0,0,1,4-.27c2.56,0,4.3.52,5.55,1.53a5.25,5.25,0,0,1,2,4.33,6.17,6.17,0,0,1-2,4.72,9.39,9.39,0,0,1-6.15,1.79,28.57,28.57,0,0,1-3.41-.17Zm2.32,10.23a10.61,10.61,0,0,0,1.49.07c3.4,0,5.28-1.74,5.28-4.61,0-2.65-1.78-4.18-4.94-4.18a8.86,8.86,0,0,0-1.83.16Z" transform="translate(-34.38 -61.12)"/><path class="cls-3" d="M388.74,235.24a48.19,48.19,0,0,1-1.83,7.59,40.47,40.47,0,0,1-1.45,3.79,36.45,36.45,0,0,1-15.94,17.53c-.62.36-1.26.69-1.91,1l-1,.51h0c-1.12.56-3.06,1.57-5.33,2.93-1.38.82-2.88,1.77-4.4,2.84a47,47,0,0,0-7.36,6.17c-.43.45-.82.89-1.22,1.35,0,0,0,0,0,0a17.54,17.54,0,0,0-3.58,6.32l2-7.48s.1-.21.25-.58h0l.21-.58h0c.09-.26.19-.56.28-.89a12.71,12.71,0,0,0,.41-5,8.19,8.19,0,0,0-1.65-4,8.92,8.92,0,0,0-1.57-1.56c-1.88-1.45-4.4-4.86-6.34-9.51h0c-.23-.54-.44-1.09-.64-1.66a35.56,35.56,0,0,1-1.15-21.17s0,0,0,0a0,0,0,0,1,0,0s0,0,0,0l.09-.34a38.74,38.74,0,0,1,10.35-17.24l1.24,7.63.59-10.16a10.5,10.5,0,0,0,4.82-7,16.54,16.54,0,0,1,.7-2.35.14.14,0,0,1,0-.06h0a31,31,0,0,1,5.18-8.88v0a14.61,14.61,0,0,1,5.88-4.42h0a7.8,7.8,0,0,1,5.23-.08c.18.06.37.12.56.2,0,0,.19-.16.53-.4h0A8.76,8.76,0,0,1,376,188c2.29-.13,5,1,6.93,5.69l.82,5.09-6.68,7,8.81-5.46S391.61,217.74,388.74,235.24Z" transform="translate(-34.38 -61.12)"/><path class="cls-4" d="M371.16,190c-6,26.86-11.28,54.85-21,80.64-1.49,4-3.85,7.18-5.94,10.84-1.65,2.9-4.06,9-1.53,12.14,2.78,3.39,4.86-12.29,5.38-14.11,1.4-4.89,4.52-9.16,5.51-14.18C355.15,257.37,370.11,205,371.16,190Z" transform="translate(-34.38 -61.12)"/><path class="cls-4" d="M367.27,190.25c.06,0,0-.12-.07-.07s0,.13,0,.18a33.5,33.5,0,0,0,3.05,3.25Z" transform="translate(-34.38 -61.12)"/><path class="cls-4" d="M365.4,190a9.6,9.6,0,0,0,3.94,5.7Z" transform="translate(-34.38 -61.12)"/><path class="cls-4" d="M362.4,191.81a13.38,13.38,0,0,0,5.6,8.68Z" transform="translate(-34.38 -61.12)"/><path class="cls-4" d="M359.45,194.26c1,3.93,3.87,7.16,7.18,9.5Z" transform="translate(-34.38 -61.12)"/><path class="cls-4" d="M356.87,198.06a13.86,13.86,0,0,0,3.18,4.51c2,2.16,4.18,4.34,6.94,5.42Z" transform="translate(-34.38 -61.12)"/><path class="cls-4" d="M354.13,203.06c2.72,4.17,6.22,8.19,11,9.7Z" transform="translate(-34.38 -61.12)"/><path class="cls-4" d="M352.68,208.68a16.7,16.7,0,0,0,11.57,8.49Z" transform="translate(-34.38 -61.12)"/><path class="cls-4" d="M349.82,212.12a26.77,26.77,0,0,0,5.06,7.07,11,11,0,0,0,7.89,3.16Z" transform="translate(-34.38 -61.12)"/><path class="cls-4" d="M349,215.57a22.61,22.61,0,0,0,4.42,8,14.25,14.25,0,0,0,7.81,4.63Z" transform="translate(-34.38 -61.12)"/><path class="cls-4" d="M348.12,223.1a5.37,5.37,0,0,0,1,3.62,14.66,14.66,0,0,0,2.59,2.81c2.56,2.33,5.42,4.66,8.86,5.05Z" transform="translate(-34.38 -61.12)"/><path class="cls-4" d="M342.71,220.52c.37,4.09.8,8.38,3.12,11.77,2.72,4,7.48,5.94,12,7.67Z" transform="translate(-34.38 -61.12)"/><path class="cls-4" d="M338.72,226.73A35.49,35.49,0,0,0,344.79,240a20.12,20.12,0,0,0,12.11,7.7Z" transform="translate(-34.38 -61.12)"/><path class="cls-4" d="M336.45,232.32c.12,3.89,2.29,7.42,4.7,10.47,3.66,4.65,8.53,9,14.43,9.44Z" transform="translate(-34.38 -61.12)"/><path class="cls-4" d="M335.47,243c1.57,5.33,6.35,9,11,12.08,2.14,1.44,4.45,2.88,7,3Z" transform="translate(-34.38 -61.12)"/><path class="cls-4" d="M338.27,255.65h0l-.51-.34Z" transform="translate(-34.38 -61.12)"/><path class="cls-4" d="M351.42,264.44c-2.32.16-4.25-1.64-6-3.21a56.2,56.2,0,0,0-6.19-4.9Z" transform="translate(-34.38 -61.12)"/><path class="cls-4" d="M371,193.74a3.78,3.78,0,0,0,2.13-.21,5.06,5.06,0,0,0,1-.54,9.48,9.48,0,0,0,3.16-3.58Z" transform="translate(-34.38 -61.12)"/><path class="cls-4" d="M370.3,195.72a10,10,0,0,0,5.9-1.24,9.73,9.73,0,0,0,4.05-4.46Z" transform="translate(-34.38 -61.12)"/><path class="cls-4" d="M369.21,200.89a9.93,9.93,0,0,1,3.23-.34c3.94-.23,7.36-3.22,8.89-6.86Z" transform="translate(-34.38 -61.12)"/><path class="cls-4" d="M368.56,204a7.65,7.65,0,0,0,5.13.64,6.21,6.21,0,0,0,3.12-1.24Z" transform="translate(-34.38 -61.12)"/><path class="cls-4" d="M367.92,207.85a14.57,14.57,0,0,0,5.3-.18,4.4,4.4,0,0,0,1.08-.28,5.24,5.24,0,0,0,.91-.55l1.71-1.25Z" transform="translate(-34.38 -61.12)"/><path class="cls-4" d="M367.13,213.35a17.38,17.38,0,0,0,5.38.24,18,18,0,0,0,2.76-.78,34.09,34.09,0,0,0,5.53-2.25,11.48,11.48,0,0,0,4.37-4Z" transform="translate(-34.38 -61.12)"/><path class="cls-4" d="M366,217.12a17.51,17.51,0,0,0,5.94.56c3.77-.32,7.26-2,10.66-3.69,1.63-.8,3.37-1.71,4.21-3.33Z" transform="translate(-34.38 -61.12)"/><path class="cls-4" d="M365,222c3.62,1.7,7.84,1.34,11.79.71a22.27,22.27,0,0,0,5.66-1.48,8.89,8.89,0,0,0,4.34-3.79Z" transform="translate(-34.38 -61.12)"/><path class="cls-4" d="M362.84,228.71a22.18,22.18,0,0,0,13.67,1.89,19.26,19.26,0,0,0,11.68-7.19Z" transform="translate(-34.38 -61.12)"/><path class="cls-4" d="M361.35,234.81a22.24,22.24,0,0,0,4,2.16,16.72,16.72,0,0,0,4.09.85,26.9,26.9,0,0,0,10.15-.72,18.09,18.09,0,0,0,8.63-5.23Z" transform="translate(-34.38 -61.12)"/><path class="cls-4" d="M360.09,241.22c4.44,2.69,9.89,3.1,15.08,2.92,3.61-.13,7.43-.59,10.3-2.79Z" transform="translate(-34.38 -61.12)"/><path class="cls-4" d="M357.85,248.11a3.11,3.11,0,0,0,1.36,1.06c6.83,3.4,15.16,2.76,22.16-.25Z" transform="translate(-34.38 -61.12)"/><path class="cls-4" d="M356.77,252.86a21.24,21.24,0,0,0,21.16,1.8Z" transform="translate(-34.38 -61.12)"/><path class="cls-4" d="M355.31,258.45a15.8,15.8,0,0,0,13.85,2.34Z" transform="translate(-34.38 -61.12)"/><path class="cls-4" d="M354,264.33a10,10,0,0,0,5.85,1.46,30.38,30.38,0,0,0,5.46-.43Z" transform="translate(-34.38 -61.12)"/><path class="cls-10" d="M247.28,281.91s16.12,27.62,46.23,4c0,0-28.15,16.36-43-6.2Z" transform="translate(-34.38 -61.12)"/><path class="cls-3" d="M254.12,293.23c4.11-1.7,11.69,2.19,11.69,2.19,13.32,6.43,24.27-10,24.27-10l-3.8-1.38,3.77.35,1.36-1.48c2.08-3.73-1.7-4.49-1.7-4.49-1.07-3.71-7.21-2.55-9-1.64a4.08,4.08,0,0,1-3.32.21l-3.25,2.27,2-2.22c-11.42-1.36-15.89,8.36-15.88,11.31s-3.38,3.67-3.38,3.67Z" transform="translate(-34.38 -61.12)"/><path class="cls-4" d="M289.71,278.45c-9.67,4.63-19.53,9.72-29.77,12.94a29.07,29.07,0,0,1-4.75.79c-1.28.19-3.75.92-4.09,2.45s4.94-1.47,5.62-1.75c1.84-.74,3.9-.81,5.67-1.72C265.21,289.73,284.87,281.72,289.71,278.45Z" transform="translate(-34.38 -61.12)"/><path class="cls-4" d="M288.7,277.31s0,0,0,0,0,0,0,.05a12.55,12.55,0,0,0-.27,1.72Z" transform="translate(-34.38 -61.12)"/><path class="cls-4" d="M288.34,276.67a3.7,3.7,0,0,0-.8,2.58Z" transform="translate(-34.38 -61.12)"/><path class="cls-4" d="M287.05,276.19a5.27,5.27,0,0,0-1.32,3.81Z" transform="translate(-34.38 -61.12)"/><path class="cls-4" d="M285.59,275.88a6.73,6.73,0,0,0-1.19,4.48Z" transform="translate(-34.38 -61.12)"/><path class="cls-4" d="M283.8,276a5.66,5.66,0,0,0-.62,2.06,7.93,7.93,0,0,0,0,3.43Z" transform="translate(-34.38 -61.12)"/><path class="cls-4" d="M281.61,276.37a8.65,8.65,0,0,0-.34,5.69Z" transform="translate(-34.38 -61.12)"/><path class="cls-4" d="M279.54,277.27a6.52,6.52,0,0,0,.18,5.59Z" transform="translate(-34.38 -61.12)"/><path class="cls-4" d="M277.8,277.22a10.38,10.38,0,0,0-.95,3.25,4.26,4.26,0,0,0,.93,3.18Z" transform="translate(-34.38 -61.12)"/><path class="cls-4" d="M276.56,277.81a8.74,8.74,0,0,0-1.41,3.29,5.58,5.58,0,0,0,.46,3.51Z" transform="translate(-34.38 -61.12)"/><path class="cls-4" d="M274,279.34a2.1,2.1,0,0,0-.88,1.16,6.1,6.1,0,0,0-.24,1.47,6.57,6.57,0,0,0,.59,3.93Z" transform="translate(-34.38 -61.12)"/><path class="cls-4" d="M273.51,277.06a9.5,9.5,0,0,0-2.85,3.79c-.57,1.79,0,3.72.52,5.51Z" transform="translate(-34.38 -61.12)"/><path class="cls-4" d="M270.65,277.33a13.89,13.89,0,0,0-2.6,5.05,7.8,7.8,0,0,0,.55,5.56Z" transform="translate(-34.38 -61.12)"/><path class="cls-4" d="M268.39,278a7.24,7.24,0,0,0-2.08,3.95c-.54,2.24-.7,4.78.58,6.7Z" transform="translate(-34.38 -61.12)"/><path class="cls-4" d="M264.88,280.25c-1.26,1.76-1.24,4.11-1.07,6.27a5.71,5.71,0,0,0,.76,2.88Z" transform="translate(-34.38 -61.12)"/><path class="cls-4" d="M261.66,283.91a21.68,21.68,0,0,1,0,3.78,3.46,3.46,0,0,0,.46,2.6Z" transform="translate(-34.38 -61.12)"/><path class="cls-4" d="M288.53,279.31a1.46,1.46,0,0,0,.58.6,2.54,2.54,0,0,0,.41.18,3.62,3.62,0,0,0,1.85.1Z" transform="translate(-34.38 -61.12)"/><path class="cls-4" d="M287.75,279.56a3.82,3.82,0,0,0,4.14,1.68Z" transform="translate(-34.38 -61.12)"/><path class="cls-4" d="M285.9,280.47a4,4,0,0,1,.88.9,4.21,4.21,0,0,0,4.24,1.08Z" transform="translate(-34.38 -61.12)"/><path class="cls-4" d="M284.8,281a3,3,0,0,0,1,1.73,2.51,2.51,0,0,0,1.12.66Z" transform="translate(-34.38 -61.12)"/><path class="cls-4" d="M283.46,281.74a5.61,5.61,0,0,0,1.33,1.59,1.8,1.8,0,0,0,.34.26,1.4,1.4,0,0,0,.39.14l.79.23Z" transform="translate(-34.38 -61.12)"/><path class="cls-4" d="M281.58,282.82a6.92,6.92,0,0,0,1.22,1.71,7.16,7.16,0,0,0,.9.66,13.47,13.47,0,0,0,2,1.15,4.36,4.36,0,0,0,2.27.38Z" transform="translate(-34.38 -61.12)"/><path class="cls-4" d="M280.16,283.39a6.91,6.91,0,0,0,1.25,1.95,12.05,12.05,0,0,0,3.69,2.38,3.33,3.33,0,0,0,2,.49Z" transform="translate(-34.38 -61.12)"/><path class="cls-4" d="M278.4,284.25A7.93,7.93,0,0,0,281,288a8.94,8.94,0,0,0,1.81,1.38,3.57,3.57,0,0,0,2.21.42Z" transform="translate(-34.38 -61.12)"/><path class="cls-4" d="M275.84,285.2a8.57,8.57,0,0,0,2.71,4.64,7.46,7.46,0,0,0,5,1.86Z" transform="translate(-34.38 -61.12)"/><path class="cls-4" d="M273.62,286.21a8.66,8.66,0,0,0,.3,1.75,6.61,6.61,0,0,0,.72,1.46,10.82,10.82,0,0,0,2.66,2.94,7.13,7.13,0,0,0,3.68,1.39Z" transform="translate(-34.38 -61.12)"/><path class="cls-4" d="M271.35,287.36a10.5,10.5,0,0,0,2.73,5.33,6.74,6.74,0,0,0,3.33,2.48Z" transform="translate(-34.38 -61.12)"/><path class="cls-4" d="M268.7,288.33a1.18,1.18,0,0,0,0,.67,10.44,10.44,0,0,0,5.4,6.74Z" transform="translate(-34.38 -61.12)"/><path class="cls-4" d="M267,289.14a8.26,8.26,0,0,0,4.54,6.92Z" transform="translate(-34.38 -61.12)"/><path class="cls-4" d="M264.91,290a6.19,6.19,0,0,0,2.62,4.81Z" transform="translate(-34.38 -61.12)"/><path class="cls-4" d="M262.81,291.06a3.89,3.89,0,0,0,.95,2.14,12,12,0,0,0,1.45,1.57Z" transform="translate(-34.38 -61.12)"/><text class="cls-11" transform="translate(115.15 237.7) scale(0.88 1)">404</text><path class="cls-4" d="M308.07,386.5s13.43-9.35,18.41-2.44C326.48,384.06,328,388.55,308.07,386.5Z" transform="translate(-34.38 -61.12)"/><path class="cls-4" d="M189.45,386.5S176,377.15,171,384.06C171,384.06,169.53,388.55,189.45,386.5Z" transform="translate(-34.38 -61.12)"/><path class="cls-10" d="M375,266.6a39.07,39.07,0,0,0-4.39.18,46.7,46.7,0,0,0-9.35,1.82,36.58,36.58,0,0,0-5.48,2.13,29.91,29.91,0,0,0-5.56,3.45,26.55,26.55,0,0,0-2.27,2c-.34.33-.66.67-1,1h0l-.47.54h0a26.18,26.18,0,0,0-5.59,11.68c-.06.26-.11.52-.16.79h0a36.5,36.5,0,0,0-.47,3.66l-3.9-.39s0-.33.06-.93a35.32,35.32,0,0,1,1-5.65,30.37,30.37,0,0,1,7.36-13.57,24.28,24.28,0,0,1,3.09-2.65,22.2,22.2,0,0,1,3-1.86h0l.62-.32h0c.46-.23.94-.44,1.43-.65h0a33.06,33.06,0,0,1,13.66-2.24h0c1.18,0,2.4.11,3.68.24C371.75,266.07,373.33,266.3,375,266.6Z" transform="translate(-34.38 -61.12)"/><path class="cls-10" d="M392,283.62a39.71,39.71,0,0,0-4.78-2.42,44.66,44.66,0,0,0-11.74-3.35,29.59,29.59,0,0,0-12.56.85,24.83,24.83,0,0,0-7.63,3.85,28.08,28.08,0,0,0-4.17,3.8,34.19,34.19,0,0,0-2.85,3.63l-2-1.46-.61-.44-.54-.39a26.34,26.34,0,0,1,1.91-2.6,36.15,36.15,0,0,1,5.09-5.12,29.68,29.68,0,0,1,8.66-5,24.57,24.57,0,0,1,12.5-1.06,35.13,35.13,0,0,1,13.86,6A57.23,57.23,0,0,1,392,283.62Z" transform="translate(-34.38 -61.12)"/><path class="cls-4" d="M343.44,295.58c-2.81-.13-5.95-.37-9.47-.71l-.34,0-.68-.07.52-.35.82-.53c.55-.35,1.25-.78,2.08-1.27,1.2-.7,2.67-1.52,4.31-2.34l.6-.29.33-.16c1.27-.6,2.62-1.2,4-1.74.26-.11.53-.21.79-.3a36.88,36.88,0,0,1,4.7-1.43c5.94-1.4,11.94-1,15.53,3.94C366.65,290.29,368.84,296.83,343.44,295.58Z" transform="translate(-34.38 -61.12)"/><path class="cls-3" d="M336.43,286.58h0c-.5,2.05-1.19,4.46-2.12,7.3h0c-.1.32-.21.65-.32,1-.06.15-.11.3-.16.45s-.07-.17-.18-.49c-.05-.12-.1-.26-.16-.42a39.18,39.18,0,0,1-2-8.74c-.43-4.38.24-9,4.29-10.67C335.74,275,339.34,274.65,336.43,286.58Z" transform="translate(-34.38 -61.12)"/><path class="cls-10" d="M172,292.83l-.21,0-5,.51c-.12-1.48-.29-2.89-.53-4.25a36.05,36.05,0,0,0-5.82-14.73c-.5-.73-1-1.42-1.57-2.08a35.37,35.37,0,0,0-8.58-7.54c-.45-.29-.91-.57-1.37-.83a45.34,45.34,0,0,0-6.42-3.08c-.8-.3-1.6-.59-2.39-.85l-1.32-.42a63.57,63.57,0,0,0-14.64-2.6l-1.08-.05c-1.66-.07-2.64,0-2.64,0,1-.19,2.05-.36,3.05-.5.12,0,.25,0,.37-.06,1.49-.21,2.94-.37,4.33-.48a55.14,55.14,0,0,1,9.7,0,41.66,41.66,0,0,1,8.69,1.64,3.68,3.68,0,0,1,.47.15c.83.26,1.63.55,2.41.86a32.56,32.56,0,0,1,6.92,3.75c.34.23.66.47,1,.72.77.59,1.49,1.2,2.18,1.84a33.28,33.28,0,0,1,5.35,6.29s0,0,0,0a39.38,39.38,0,0,1,3.32,6.1,47.58,47.58,0,0,1,2.18,6.18v0c0,.12.06.25.1.37h0a46.35,46.35,0,0,1,1.46,8.34C172,292.58,172,292.83,172,292.83Z" transform="translate(-34.38 -61.12)"/><path class="cls-4" d="M175.36,294.25l-.46.05-1.83.17c-4.56.43-8.47.66-11.81.73-21.56.49-19.59-5.41-19.59-5.41,4.07-5.65,11.23-5.36,17.91-3.3a50.32,50.32,0,0,1,6.71,2.62c1.81.85,3.45,1.73,4.82,2.51l.87.5c1.49.88,2.57,1.59,3.07,1.91Z" transform="translate(-34.38 -61.12)"/><path class="cls-12" d="M164.09,78a2,2,0,1,1-2-2A2,2,0,0,1,164.09,78Z" transform="translate(-34.38 -61.12)"/><path class="cls-12" d="M175.91,95.67a1.35,1.35,0,1,1-1.35-1.35A1.34,1.34,0,0,1,175.91,95.67Z" transform="translate(-34.38 -61.12)"/><circle class="cls-12" cx="270.08" cy="297.88" r="2.02"/><circle class="cls-12" cx="111.16" cy="307.38" r="2.02"/><path class="cls-12" d="M398.13,296.79a2,2,0,1,1-2-2A2,2,0,0,1,398.13,296.79Z" transform="translate(-34.38 -61.12)"/><path class="cls-12" d="M424.26,126.83a2,2,0,1,1-3.37-1.51,2.07,2.07,0,0,1,1.35-.51A2,2,0,0,1,424.26,126.83Z" transform="translate(-34.38 -61.12)"/><path class="cls-12" d="M285.26,63.14a2,2,0,1,1-2-2A2,2,0,0,1,285.26,63.14Z" transform="translate(-34.38 -61.12)"/><path class="cls-12" d="M161,180.52a2,2,0,1,1-2-2A2,2,0,0,1,161,180.52Z" transform="translate(-34.38 -61.12)"/><path class="cls-12" d="M320.26,161.83a2,2,0,1,1-4,0,2,2,0,0,1,2-2,1.94,1.94,0,0,1,1,.28A2,2,0,0,1,320.26,161.83Z" transform="translate(-34.38 -61.12)"/><path class="cls-12" d="M158.91,281.67a1.35,1.35,0,1,1-2-1.19,1.27,1.27,0,0,1,.62-.16h0A1.35,1.35,0,0,1,158.91,281.67Z" transform="translate(-34.38 -61.12)"/><path class="cls-12" d="M327.85,337a1.35,1.35,0,1,1-1.34-1.34A1.34,1.34,0,0,1,327.85,337Z" transform="translate(-34.38 -61.12)"/><path class="cls-12" d="M315.43,366.53a1.34,1.34,0,1,1-1.34-1.34A1.34,1.34,0,0,1,315.43,366.53Z" transform="translate(-34.38 -61.12)"/><path class="cls-12" d="M177,339.71a1.34,1.34,0,1,1-1.34-1.34A1.34,1.34,0,0,1,177,339.71Z" transform="translate(-34.38 -61.12)"/><path class="cls-12" d="M409.91,179.15a1.34,1.34,0,1,1-1.34-1.34A1.34,1.34,0,0,1,409.91,179.15Z" transform="translate(-34.38 -61.12)"/></g></svg>