<svg id="Layer_1" data-name="Layer 1" xmlns="http://www.w3.org/2000/svg" viewBox="0 0 378.2 278.15"><defs><style>.cls-1{fill:#fff;}.cls-2{fill:#e0e0e0;}.cls-3{fill:#424242;}.cls-4{fill:#bdbdbd;}.cls-5{fill:#757576;}.cls-6{fill:#616262;}.cls-7{fill:#ef5350;}.cls-8{fill:#eee;}.cls-9{fill:none;}.cls-10{isolation:isolate;}.cls-11{fill:#fafafa;}</style></defs><g id="BACKGROUND_2" data-name="BACKGROUND 2"><path class="cls-1" d="M264.39,301.47c-19.6,0-27.45-7.84-27.45-25V223.49c0-3.77,1.66-5.43,5.43-5.43h23.38c3.77,0,5.43,1.66,5.43,5.43v41.33c0,3.17,1.81,5.13,4.68,5.13h14V223.49c0-3.77,1.66-5.43,5.43-5.43h23.23c3.77,0,5.43,1.66,5.43,5.43v97.74c0,3.77-1.66,5.43-5.43,5.43H295.31c-3.77,0-5.43-1.66-5.43-5.43V301.47Z" transform="translate(-195.24 -89.02)"/><path class="cls-1" d="M453.48,301.47c-19.61,0-27.45-7.84-27.45-25V223.49c0-3.77,1.66-5.43,5.43-5.43h23.38c3.77,0,5.43,1.66,5.43,5.43v41.33c0,3.17,1.81,5.13,4.67,5.13h14V223.49c0-3.77,1.66-5.43,5.43-5.43h23.22c3.78,0,5.43,1.66,5.43,5.43v97.74c0,3.77-1.65,5.43-5.43,5.43H484.4c-3.77,0-5.43-1.66-5.43-5.43V301.47Z" transform="translate(-195.24 -89.02)"/><path class="cls-2" d="M316,241.67a6.63,6.63,0,0,0-8.15,3.43,6.44,6.44,0,0,0,3.89,8.71l12.22,4V244.28Z" transform="translate(-195.24 -89.02)"/><path class="cls-2" d="M431.46,218.06c-3.77,0-5.43,1.66-5.43,5.43v16.74A41.78,41.78,0,0,0,441.17,228l2.45,1a2.66,2.66,0,0,0,3.46-1.52l3.68-9.41Zm19.27,42.65a6.63,6.63,0,0,0-8.78,1.07l-10.81,12L426,264.24v12.19c0,6.08,1,11,3.12,14.79a6.41,6.41,0,0,0,5.41-2.08l17.12-18.94A6.44,6.44,0,0,0,450.73,260.71Z" transform="translate(-195.24 -89.02)"/><path class="cls-1" d="M445.4,255.39a6.63,6.63,0,0,0-8.78,1.07l-10.81,12-8.57-16a12.78,12.78,0,0,0-6.65-5.9h0l-47.16-18.43v0a12.79,12.79,0,0,0-12,1.41h0l-.33.22-.18.14-19.28,13.31-21-6.86a6.61,6.61,0,0,0-8.15,3.43,6.43,6.43,0,0,0,3.88,8.7l24.26,8a6.39,6.39,0,0,0,5.64-.84l0,0,11.83-8.18,4-2.74a2.46,2.46,0,0,1,3.69,2.92l-1.75,4.48L322.18,333.7l17.25,6.75,17.12-43.82a2.25,2.25,0,0,1,3.24-1.11,24.49,24.49,0,0,0,3.77,1.86,26.3,26.3,0,0,0,4.07,1.2,2.24,2.24,0,0,1,1.58,3L352.1,345.39l17.24,6.74,31.89-81.61,2.74-7a2.46,2.46,0,0,1,4.46-.27l3.56,6.64,6.81,12.67h0a6.2,6.2,0,0,0,1.34,1.74,6.42,6.42,0,0,0,9.08-.45h0l17.11-18.95A6.43,6.43,0,0,0,445.4,255.39Z" transform="translate(-195.24 -89.02)"/><circle class="cls-3" cx="206.01" cy="111.94" r="33.09"/><path class="cls-4" d="M368.92,172.43l-.78-.31a1.47,1.47,0,0,0-1.9.83L365,176.08l2.15.84Z" transform="translate(-195.24 -89.02)"/><path class="cls-2" d="M444.72,207.22l-6.15-2.4-6.42,16.45,6.14,2.4a2.69,2.69,0,0,0,3.47-1.52l4.48-11.46A2.69,2.69,0,0,0,444.72,207.22Z" transform="translate(-195.24 -89.02)"/><path class="cls-2" d="M361.55,177.6l-4.48,11.46a2.68,2.68,0,0,0,1.52,3.47l6.14,2.4,6.43-16.45-6.14-2.4A2.68,2.68,0,0,0,361.55,177.6Z" transform="translate(-195.24 -89.02)"/><rect class="cls-5" x="366.62" y="174.49" width="0.69" height="3.92" transform="translate(-126.17 365.03) rotate(-68.66)"/><rect class="cls-6" x="359.58" y="158.43" width="28.12" height="1.48" transform="translate(-105.84 360.26) rotate(-68.66)"/><path class="cls-1" d="M380.93,146.93a2.25,2.25,0,1,1-1.28-2.92A2.26,2.26,0,0,1,380.93,146.93Z" transform="translate(-195.24 -89.02)"/><path class="cls-2" d="M355.18,340.49c3.34-3.23,7.9-3,12.59-1.18,6.37,2.49,10.55,7,7.4,15.09l-18.34-7.16-4.73-1.85,2.07-5.29Z" transform="translate(-195.24 -89.02)"/><path class="cls-2" d="M340.49,334.75c-.27-4.64-3.77-7.57-8.45-9.4-6.37-2.49-12.52-2-15.67,6.08l18.33,7.16,4.73,1.85,2.07-5.29Z" transform="translate(-195.24 -89.02)"/><path class="cls-1" d="M418,158.13a41.85,41.85,0,1,0,23.76,54.22A41.86,41.86,0,0,0,418,158.13ZM389.2,231.74a30.91,30.91,0,1,1,40-17.53A30.9,30.9,0,0,1,389.2,231.74Z" transform="translate(-195.24 -89.02)"/><polygon class="cls-1" points="210.45 154.2 174.06 139.98 177.14 132.08 192.95 145.08 213.54 146.3 210.45 154.2"/><path class="cls-7" d="M406.6,241.5l-36.81-14.38a1.07,1.07,0,0,0-1.38.61l-.41,1a1.07,1.07,0,0,0,.61,1.39l36.81,14.38a1.07,1.07,0,0,0,1.39-.6l.4-1A1.07,1.07,0,0,0,406.6,241.5Z" transform="translate(-195.24 -89.02)"/><path class="cls-1" d="M397.12,175c-8.82.7-13.36,6.95-11.7,8.72s6.67.45,12.35.14c5.65-.58,11.22.31,12.54-1.77S406,174.35,397.12,175Z" transform="translate(-195.24 -89.02)"/><path class="cls-1" d="M378.18,186.49c-1.83,2.28-1.72,5.08-.24,5.78s3.51-.37,4.87-2.05,1.87-3.83.84-5.12S380,184.22,378.18,186.49Z" transform="translate(-195.24 -89.02)"/><path class="cls-8" d="M393.08,258.28l-24.72-9.66a1.82,1.82,0,0,0-2.36,1l-7,17.87a1.82,1.82,0,0,0,1,2.35l24.72,9.66a1.81,1.81,0,0,0,2.35-1l7-17.87A1.8,1.8,0,0,0,393.08,258.28Z" transform="translate(-195.24 -89.02)"/><path class="cls-2" d="M349,304.7l-13.68-5.35a1.71,1.71,0,0,0-2.21,1l-3.29,8.41a1.71,1.71,0,0,0,1,2.22l13.68,5.34a1.71,1.71,0,0,0,2.22-1l3.28-8.41A1.71,1.71,0,0,0,349,304.7Z" transform="translate(-195.24 -89.02)"/><path class="cls-2" d="M369.29,312.63,383,318a1.72,1.72,0,0,1,1,2.22l-3.29,8.41a1.71,1.71,0,0,1-2.22,1l-13.68-5.35a1.72,1.72,0,0,1-1-2.22l3.29-8.41A1.7,1.7,0,0,1,369.29,312.63Z" transform="translate(-195.24 -89.02)"/><rect class="cls-7" x="377.07" y="250.14" width="2.9" height="17.84" transform="translate(-195.77 428.33) rotate(-68.66)"/><rect class="cls-7" x="375.12" y="255.14" width="2.9" height="17.84" transform="translate(-201.67 429.69) rotate(-68.66)"/><rect class="cls-7" x="373.16" y="260.14" width="2.9" height="17.84" transform="translate(-207.57 431.05) rotate(-68.66)"/><rect class="cls-9" x="41.7" y="243.39" width="276.11" height="22"/><g class="cls-10"><path class="cls-1" d="M396,338.58a3.3,3.3,0,0,1-3.47,3.52h-.65a.3.3,0,1,1,0-.59h.65a2.71,2.71,0,0,0,2.88-2.93c0-.86-.31-2.85-3.14-2.85h-3V345h.88v-4.62a.29.29,0,0,1,.3-.29h2a1.39,1.39,0,0,0,1.57-1.55,1.34,1.34,0,0,0-1.47-1.47h-1.77V339a.3.3,0,1,1-.59,0v-2.21a.29.29,0,0,1,.3-.29h2.06a1.91,1.91,0,0,1,2.06,2.05,2,2,0,0,1-2.16,2.13h-1.67v4.63a.29.29,0,0,1-.29.29H389a.29.29,0,0,1-.3-.29v-9.91a.29.29,0,0,1,.3-.29h3.33C395,335.14,396,336.76,396,338.58Z" transform="translate(-195.24 -89.02)"/><path class="cls-1" d="M402.88,335.43l3.59,9.88a.23.23,0,0,1-.22.32h-1.5a.43.43,0,0,1-.41-.29L403.5,343h-5l-.74,2h.89l.38-1a.28.28,0,0,1,.27-.19.29.29,0,0,1,.28.39l-.41,1.13a.45.45,0,0,1-.41.29h-1.5a.24.24,0,0,1-.22-.32l.94-2.59a.42.42,0,0,1,.41-.29h5.23a.44.44,0,0,1,.42.29l.84,2.32h.89l-3.39-9.31h-1.23L399.2,341h3.58l-1-2.85-.68,1.86a.29.29,0,0,1-.28.19.29.29,0,0,1-.28-.39l1-2.82a.22.22,0,0,1,.41,0l1.55,4.28a.23.23,0,0,1-.22.32H398.7a.23.23,0,0,1-.22-.32l2.13-5.88a.43.43,0,0,1,.42-.29h1.44A.42.42,0,0,1,402.88,335.43Z" transform="translate(-195.24 -89.02)"/><path class="cls-1" d="M415.53,340.44h-3v.8h3a.3.3,0,0,1,.3.29v2.91a.39.39,0,0,1-.19.34,6,6,0,0,1-3.39,1c-3,0-4.6-2.46-4.6-5.4v-.1c0-2.65,1.63-5.3,4.52-5.3a5,5,0,0,1,3,.89.29.29,0,0,1,.1.39l-.7,1.27a.27.27,0,0,1-.38.1,3,3,0,0,0-2-.67c-1.69,0-2.51,1.83-2.51,3.32v.1c0,1.56.67,3.42,2.53,3.42a4.19,4.19,0,0,0,1.54-.28v-.61a.29.29,0,0,1,.58,0v.72a.42.42,0,0,1-.23.38l-.07,0a4.69,4.69,0,0,1-1.82.35c-2.13,0-3.11-2-3.11-4v-.1c0-1.91,1.1-3.91,3.09-3.91a3.46,3.46,0,0,1,2,.57l.41-.73a4.54,4.54,0,0,0-2.46-.64c-2.55,0-3.94,2.4-3.94,4.71v.1c0,2.48,1.27,4.81,4,4.81a5.47,5.47,0,0,0,3-.85v-2.51h-3a.31.31,0,0,1-.3-.3v-1.38a.3.3,0,0,1,.3-.3h3.28a.3.3,0,1,1,0,.59Z" transform="translate(-195.24 -89.02)"/><path class="cls-1" d="M424.47,343.66a.28.28,0,0,1,.29.29v1.39a.28.28,0,0,1-.29.29h-5.9a.29.29,0,0,1-.3-.29v-9.91a.29.29,0,0,1,.3-.29h5.8a.29.29,0,0,1,.3.29v1.39a.29.29,0,0,1-.3.29h-4v.94a.28.28,0,0,1-.29.29.3.3,0,0,1-.3-.29v-1.23a.3.3,0,0,1,.3-.29h4v-.8h-5.22V345h5.32v-.8H420a.3.3,0,0,1-.3-.29v-4.52a.3.3,0,0,1,.3-.29h4.17a.28.28,0,0,1,.29.29v1.39a.28.28,0,0,1-.29.29h-2.7a.3.3,0,0,1-.3-.29.31.31,0,0,1,.3-.3h2.41v-.79h-3.59v3.93Z" transform="translate(-195.24 -89.02)"/><path class="cls-1" d="M438.6,344v1.39a.3.3,0,0,1-.3.29h-5.21a.3.3,0,0,1,0-.59H438v-.8h-4.92a.29.29,0,0,1-.29-.29v-8.52a.29.29,0,0,1,.29-.29h1.47a.3.3,0,0,1,.3.29v7.13a.31.31,0,0,1-.3.3.3.3,0,0,1-.29-.3v-6.83h-.89v7.93h4.92A.3.3,0,0,1,438.6,344Z" transform="translate(-195.24 -89.02)"/><path class="cls-1" d="M448.86,340.38c0,2.94-1.67,5.4-4.61,5.4s-4.61-2.46-4.61-5.4,1.67-5.4,4.61-5.4a.3.3,0,0,1,.29.3v1.1c1.95.19,2.85,2.16,2.85,4s-1,4-3.14,4-3.14-2.08-3.14-4a4.32,4.32,0,0,1,1.5-3.5.34.34,0,0,1,.17-.05.29.29,0,0,1,.29.3.3.3,0,0,1-.11.23,3.78,3.78,0,0,0-1.26,3c0,1.47.68,3.42,2.55,3.42s2.55-1.95,2.55-3.42-.69-3.42-2.55-3.42a.29.29,0,0,1-.29-.29v-1.09c-2.57.17-3.73,2.49-3.73,4.8s1.24,4.81,4,4.81,4-2.42,4-4.81c0-1.95-.83-3.92-2.65-4.58a.28.28,0,0,1-.19-.27.29.29,0,0,1,.39-.28C447.78,336,448.86,338,448.86,340.38Z" transform="translate(-195.24 -89.02)"/><path class="cls-1" d="M455.14,338.93a3.85,3.85,0,0,1,2.52,3.75c0,2.05-1.61,3.1-3.83,3.1a7.22,7.22,0,0,1-3.41-.85.29.29,0,0,1-.15-.37l.51-1.36a.27.27,0,0,1,.27-.18.18.18,0,0,1,.12,0,6.3,6.3,0,0,0,2.66.75c1.14,0,1.77-.33,1.77-1.12,0-1.35-.91-1.71-1.8-2.2s-1.73-1-1.73-2.35c0-.9.61-1.76,2.17-1.76a5.36,5.36,0,0,1,2.1.46l.29-.8a5,5,0,0,0-2.4-.46c-1.66,0-3,.86-3,2.57a3,3,0,0,0,1.7,2.78.29.29,0,0,1,.16.26.3.3,0,0,1-.3.3.33.33,0,0,1-.13,0,3.53,3.53,0,0,1-2-3.3c0-2.11,1.73-3.16,3.63-3.16a5.72,5.72,0,0,1,2.9.63.29.29,0,0,1,.15.37l-.5,1.36a.28.28,0,0,1-.26.19l-.12,0a4.87,4.87,0,0,0-2.16-.55c-1,0-1.58.43-1.58,1.17,0,1.08.68,1.43,1.44,1.84,1,.53,2.09,1,2.09,2.71,0,.64-.31,1.71-2.36,1.71a6.3,6.3,0,0,1-2.62-.67l-.3.8a6.49,6.49,0,0,0,2.92.67c1.64,0,3.24-.63,3.24-2.51a3.27,3.27,0,0,0-2.18-3.22.28.28,0,0,1-.17-.26A.29.29,0,0,1,455.14,338.93Z" transform="translate(-195.24 -89.02)"/><path class="cls-1" d="M466.58,335.43v1.39a.28.28,0,0,1-.29.29H465a.29.29,0,0,1-.3-.29.3.3,0,0,1,.3-.29h1v-.8h-2.14v9.61a.29.29,0,0,1-.29.29h-1.47a.29.29,0,0,1-.3-.29v-9.61h-2.15v.8h1a.29.29,0,0,1,.3.29.29.29,0,0,1-.3.29h-1.26a.29.29,0,0,1-.3-.29v-1.39a.3.3,0,0,1,.3-.29h2.74a.29.29,0,0,1,.29.29V345h.88v-9.61a.3.3,0,0,1,.3-.29h2.73A.29.29,0,0,1,466.58,335.43Z" transform="translate(-195.24 -89.02)"/><path class="cls-1" d="M474.5,337.11V345h.89v-6.83a.29.29,0,1,1,.58,0v7.13a.29.29,0,0,1-.29.29h-1.47a.3.3,0,0,1-.3-.29v-8.52a.3.3,0,0,1,.3-.29h1.18v-.8h-1.18a.31.31,0,0,1-.3-.3.3.3,0,0,1,.3-.29h1.47a.29.29,0,0,1,.29.29v1.39a.29.29,0,0,1-.29.29Z" transform="translate(-195.24 -89.02)"/><path class="cls-1" d="M487.31,335.43v9.91a.29.29,0,0,1-.29.29H485.3a.47.47,0,0,1-.41-.23l-5.35-9.09V345h.88v-4.47a.3.3,0,0,1,.29-.3.31.31,0,0,1,.3.3v4.77a.3.3,0,0,1-.3.29h-1.47a.28.28,0,0,1-.29-.29v-9.91a.28.28,0,0,1,.29-.29h.09a.38.38,0,0,1,.3.17l5.74,9.73h1.35v-9.31h-.88v7.67a.21.21,0,0,1-.22.21.2.2,0,0,1-.17-.1l-4.67-7.92a.3.3,0,0,1,.26-.45.27.27,0,0,1,.25.15l4,6.72v-6.58a.29.29,0,0,1,.29-.29H487A.29.29,0,0,1,487.31,335.43Z" transform="translate(-195.24 -89.02)"/><path class="cls-1" d="M499.7,338.93a3.83,3.83,0,0,1,2.52,3.75c0,2.05-1.6,3.1-3.83,3.1a7.22,7.22,0,0,1-3.41-.85.29.29,0,0,1-.15-.37l.51-1.36a.28.28,0,0,1,.27-.18.18.18,0,0,1,.12,0,6.3,6.3,0,0,0,2.66.75c1.14,0,1.77-.33,1.77-1.12,0-1.35-.9-1.71-1.79-2.2s-1.74-1-1.74-2.35c0-.9.62-1.76,2.17-1.76a5.36,5.36,0,0,1,2.1.46l.3-.8a5.11,5.11,0,0,0-2.41-.46c-1.66,0-3,.86-3,2.57a3,3,0,0,0,1.71,2.78.3.3,0,0,1,.15.26.3.3,0,0,1-.29.3.37.37,0,0,1-.14,0,3.53,3.53,0,0,1-2-3.3c0-2.11,1.73-3.16,3.63-3.16a5.7,5.7,0,0,1,2.9.63.28.28,0,0,1,.15.37l-.5,1.36a.28.28,0,0,1-.26.19l-.11,0a4.88,4.88,0,0,0-2.17-.55c-1,0-1.58.43-1.58,1.17,0,1.08.68,1.43,1.44,1.84,1,.53,2.09,1,2.09,2.71,0,.64-.3,1.71-2.36,1.71a6.26,6.26,0,0,1-2.61-.67l-.31.8a6.49,6.49,0,0,0,2.92.67c1.64,0,3.24-.63,3.24-2.51a3.27,3.27,0,0,0-2.18-3.22.28.28,0,0,1-.17-.26A.29.29,0,0,1,499.7,338.93Z" transform="translate(-195.24 -89.02)"/><path class="cls-1" d="M511.84,338.58a3.29,3.29,0,0,1-3.46,3.52h-.65a.3.3,0,1,1,0-.59h.65a2.72,2.72,0,0,0,2.88-2.93c0-.86-.31-2.85-3.14-2.85h-3V345H506v-4.62a.29.29,0,0,1,.29-.29h2a1.39,1.39,0,0,0,1.57-1.55,1.34,1.34,0,0,0-1.48-1.47h-1.76V339a.3.3,0,1,1-.59,0v-2.21a.29.29,0,0,1,.29-.29h2.06a1.9,1.9,0,0,1,2.06,2.05,2,2,0,0,1-2.15,2.13h-1.67v4.63a.29.29,0,0,1-.3.29h-1.47a.29.29,0,0,1-.29-.29v-9.91a.29.29,0,0,1,.29-.29h3.34C510.76,335.14,511.84,336.76,511.84,338.58Z" transform="translate(-195.24 -89.02)"/><path class="cls-1" d="M518.69,335.43l3.59,9.88a.23.23,0,0,1-.22.32h-1.5a.43.43,0,0,1-.41-.29l-.84-2.32h-5l-.73,2h.89l.38-1a.28.28,0,0,1,.27-.19.29.29,0,0,1,.28.39l-.41,1.13a.46.46,0,0,1-.42.29h-1.49a.23.23,0,0,1-.22-.32l.94-2.59a.42.42,0,0,1,.41-.29h5.23a.42.42,0,0,1,.41.29l.84,2.32h.9l-3.39-9.31h-1.23L515,341h3.59l-1-2.85-.67,1.86a.3.3,0,0,1-.28.19.29.29,0,0,1-.28-.39l1-2.82a.21.21,0,0,1,.2-.14.23.23,0,0,1,.21.14l1.55,4.28a.23.23,0,0,1-.22.32h-4.58a.24.24,0,0,1-.23-.32l2.14-5.88a.42.42,0,0,1,.41-.29h1.45A.43.43,0,0,1,518.69,335.43Z" transform="translate(-195.24 -89.02)"/><path class="cls-1" d="M531.29,344.5a.28.28,0,0,1-.11.38,5.75,5.75,0,0,1-3.13.9c-2.92,0-4.6-2.36-4.6-5.3v-.35a.3.3,0,0,1,.3-.29h1.19c.14-1.75,1.2-3.47,3-3.47a3.44,3.44,0,0,1,2,.57l.4-.73a4.5,4.5,0,0,0-2.45-.64,3.86,3.86,0,0,0-3.7,3.25.3.3,0,1,1-.58-.14,4.46,4.46,0,0,1,4.28-3.7,5.06,5.06,0,0,1,3,.89.29.29,0,0,1,.09.38l-.71,1.28a.26.26,0,0,1-.37.1,3,3,0,0,0-2-.67c-1.53,0-2.41,1.6-2.45,3.19a.28.28,0,0,1-.29.28H524v.05c0,2.47,1.33,4.71,4,4.71a5.24,5.24,0,0,0,2.59-.67l-.39-.75a4.34,4.34,0,0,1-2.15.62,3.13,3.13,0,0,1-3.07-2.82.29.29,0,0,1,.29-.35.3.3,0,0,1,.29.24,2.56,2.56,0,0,0,2.49,2.34,4,4,0,0,0,2.13-.71.27.27,0,0,1,.38.1Z" transform="translate(-195.24 -89.02)"/><path class="cls-1" d="M539.54,343.66a.29.29,0,0,1,.29.29v1.39a.29.29,0,0,1-.29.29h-5.91a.29.29,0,0,1-.29-.29v-9.91a.29.29,0,0,1,.29-.29h5.81a.28.28,0,0,1,.29.29v1.39a.28.28,0,0,1-.29.29h-4v.94a.3.3,0,0,1-.59,0v-1.23a.29.29,0,0,1,.29-.29h4v-.8h-5.21V345h5.31v-.8H535.1a.29.29,0,0,1-.29-.29v-4.52a.29.29,0,0,1,.29-.29h4.18a.29.29,0,0,1,.29.29v1.39a.29.29,0,0,1-.29.29h-2.71a.29.29,0,0,1-.29-.29.3.3,0,0,1,.29-.3H539v-.79H535.4v3.93Z" transform="translate(-195.24 -89.02)"/></g><path class="cls-11" d="M472.13,157.68h3.44a.76.76,0,0,0,.75-.75v-3.36a1.56,1.56,0,0,1,1.42-1.58,1.5,1.5,0,0,1,1.59,1.5v3.44a.76.76,0,0,0,.75.75h3.35A1.56,1.56,0,0,1,485,159.1a1.5,1.5,0,0,1-1.5,1.59h-3.44a.76.76,0,0,0-.75.75v3.35a1.56,1.56,0,0,1-1.43,1.59,1.5,1.5,0,0,1-1.58-1.5v-3.44a.76.76,0,0,0-.75-.75h-3.36a1.57,1.57,0,0,1-1.59-1.43A1.51,1.51,0,0,1,472.13,157.68Z" transform="translate(-195.24 -89.02)"/><path class="cls-11" d="M238.45,336.48h3.44a.76.76,0,0,0,.75-.75v-3.35a1.56,1.56,0,0,1,1.42-1.59,1.5,1.5,0,0,1,1.59,1.5v3.44a.76.76,0,0,0,.75.75h3.35a1.56,1.56,0,0,1,1.59,1.42,1.5,1.5,0,0,1-1.5,1.59H246.4a.76.76,0,0,0-.75.75v3.35a1.56,1.56,0,0,1-1.42,1.59,1.5,1.5,0,0,1-1.59-1.5v-3.44a.76.76,0,0,0-.75-.75h-3.35a1.56,1.56,0,0,1-1.59-1.42A1.5,1.5,0,0,1,238.45,336.48Z" transform="translate(-195.24 -89.02)"/><path class="cls-11" d="M312.16,182.87h3.43a.74.74,0,0,0,.75-.75v-3.35a1.57,1.57,0,0,1,1.43-1.59,1.52,1.52,0,0,1,1.59,1.51v3.43a.74.74,0,0,0,.75.75h3.35a1.57,1.57,0,0,1,1.59,1.43,1.52,1.52,0,0,1-1.51,1.59h-3.43a.74.74,0,0,0-.75.75V190a1.57,1.57,0,0,1-1.43,1.59,1.52,1.52,0,0,1-1.59-1.51v-3.43a.74.74,0,0,0-.75-.75h-3.35a1.56,1.56,0,0,1-1.59-1.43A1.52,1.52,0,0,1,312.16,182.87Z" transform="translate(-195.24 -89.02)"/><path class="cls-11" d="M297,143.25h.74a1,1,0,0,0,1-1v-.73a.61.61,0,0,1,1.22,0v.73a1,1,0,0,0,.95,1h.74a.61.61,0,0,1,.61.61.61.61,0,0,1-.61.61h-.74a1,1,0,0,0-.95.95v.74a.61.61,0,1,1-1.22,0v-.74a1,1,0,0,0-1-.95H297a.61.61,0,0,1-.61-.61A.61.61,0,0,1,297,143.25Z" transform="translate(-195.24 -89.02)"/><path class="cls-11" d="M505.84,362.58h.74a1,1,0,0,0,.95-.95v-.74a.61.61,0,0,1,1.22,0v.74a1,1,0,0,0,.95.95h.74a.61.61,0,0,1,.61.61.61.61,0,0,1-.61.61h-.74a1,1,0,0,0-.95.95v.74a.61.61,0,0,1-1.22,0v-.74a1,1,0,0,0-.95-.95h-.74a.61.61,0,0,1-.61-.61A.61.61,0,0,1,505.84,362.58Z" transform="translate(-195.24 -89.02)"/><path class="cls-11" d="M552.5,199.62h.74a1,1,0,0,0,1-1v-.74a.6.6,0,0,1,.61-.6.61.61,0,0,1,.61.6v.74a1,1,0,0,0,1,1h.74a.61.61,0,1,1,0,1.21h-.74a1,1,0,0,0-1,1v.73a.61.61,0,0,1-.61.61.61.61,0,0,1-.61-.61v-.73a1,1,0,0,0-1-1h-.74a.61.61,0,1,1,0-1.21Z" transform="translate(-195.24 -89.02)"/><path class="cls-11" d="M482.72,110.39h.74a1,1,0,0,0,1-1v-.74a.61.61,0,0,1,.61-.61.61.61,0,0,1,.61.61v.74a1,1,0,0,0,1,1h.73a.61.61,0,1,1,0,1.22h-.73a1,1,0,0,0-1,1v.74a.61.61,0,0,1-.61.61.61.61,0,0,1-.61-.61v-.74a1,1,0,0,0-1-1h-.74a.61.61,0,0,1,0-1.22Z" transform="translate(-195.24 -89.02)"/><path class="cls-11" d="M232.25,191.42a1.07,1.07,0,1,1-1.07,1.07A1.07,1.07,0,0,1,232.25,191.42Z" transform="translate(-195.24 -89.02)"/><path class="cls-11" d="M453.34,365a1.07,1.07,0,1,1-1.07,1.07A1.07,1.07,0,0,1,453.34,365Z" transform="translate(-195.24 -89.02)"/><path class="cls-11" d="M307.23,359.21a1.07,1.07,0,0,1,1.15,1,1.07,1.07,0,0,1-2.13.18A1.07,1.07,0,0,1,307.23,359.21Z" transform="translate(-195.24 -89.02)"/><path class="cls-11" d="M543,134a1.07,1.07,0,1,1-1.07,1.07A1.06,1.06,0,0,1,543,134Z" transform="translate(-195.24 -89.02)"/><path class="cls-11" d="M201.46,270.29a2.07,2.07,0,1,1-2.07,2.07A2.07,2.07,0,0,1,201.46,270.29Z" transform="translate(-195.24 -89.02)"/><path class="cls-11" d="M197.32,153.18a2.07,2.07,0,1,1-2.08,2.07A2.07,2.07,0,0,1,197.32,153.18Z" transform="translate(-195.24 -89.02)"/><path class="cls-11" d="M411.52,89a2.07,2.07,0,1,1-2.07,2.07A2.07,2.07,0,0,1,411.52,89Z" transform="translate(-195.24 -89.02)"/><circle class="cls-11" cx="377.13" cy="196.36" r="1.07"/><path class="cls-11" d="M417.4,306.76a1.07,1.07,0,1,1-1.07,1.07A1.07,1.07,0,0,1,417.4,306.76Z" transform="translate(-195.24 -89.02)"/><path class="cls-11" d="M264,109.93a1.07,1.07,0,1,1-1.11,1A1.07,1.07,0,0,1,264,109.93Z" transform="translate(-195.24 -89.02)"/></g></svg>