<svg xmlns="http://www.w3.org/2000/svg" xmlns:xlink="http://www.w3.org/1999/xlink" viewBox="0 0 561.1 522.63"><defs><style>.cls-1{fill:#f3edff;}.cls-2,.cls-24,.cls-28,.cls-29{fill:none;}.cls-18,.cls-19,.cls-2,.cls-21,.cls-22,.cls-24,.cls-26{stroke:#000;stroke-miterlimit:10;}.cls-2{stroke-width:3px;}.cls-3{fill:#c8c1e8;}.cls-4{fill:#dad4f8;}.cls-5{fill:#63ccb5;}.cls-6{fill:#309982;}.cls-7{fill:#247361;}.cls-8{fill:#184c41;}.cls-9{fill:url(#radial-gradient);}.cls-10{fill:#44424f;}.cls-11{fill:#5b5766;}.cls-12{fill:#666371;}.cls-13{fill:#b8b0c7;}.cls-14{fill:#686673;}.cls-15{fill:#8b8698;}.cls-16,.cls-18{fill:#fff;}.cls-17{fill:#272727;}.cls-19,.cls-34{fill:#00adb5;}.cls-20{fill:#292929;}.cls-21,.cls-25{fill:#f5b9ab;}.cls-22,.cls-27{fill:#a5a4aa;}.cls-23{fill:#292a27;}.cls-26{fill:#2d3334;stroke-width:0.5px;}.cls-28,.cls-29{stroke:#fff;stroke-linecap:round;stroke-linejoin:round;}.cls-28{stroke-width:2px;}.cls-30{fill:url(#radial-gradient-2);}.cls-31{fill:#5e8a3a;}.cls-32{fill:#9dd651;}.cls-33{fill:url(#radial-gradient-3);}</style><radialGradient id="radial-gradient" cx="128.87" cy="443.62" r="104.33" gradientTransform="translate(0 -65.33) scale(1 1.14)" gradientUnits="userSpaceOnUse"><stop offset="0" stop-color="#f2f2f2"/><stop offset="0.3" stop-color="#efefef"/><stop offset="0.53" stop-color="#e5e5e5"/><stop offset="0.75" stop-color="#d4d4d4"/><stop offset="0.83" stop-color="#ccc"/></radialGradient><radialGradient id="radial-gradient-2" cx="72.5" cy="488" r="74.3" gradientUnits="userSpaceOnUse"><stop offset="0" stop-color="#f2f2f2"/><stop offset="0.55" stop-color="#f0f0f0"/><stop offset="0.74" stop-color="#e9e9e9"/><stop offset="0.88" stop-color="#dedede"/><stop offset="1" stop-color="#cdcdcd"/><stop offset="1" stop-color="#ccc"/></radialGradient><radialGradient id="radial-gradient-3" cx="430.84" cy="498.68" r="28.35" gradientTransform="translate(-354.61 -444.32) scale(1.91)" xlink:href="#radial-gradient-2"/></defs><g id="Background"><path class="cls-1" d="M553.21,313.3C572.64,292.47,590.88,264.37,581,238s-42.61-36.54-71.24-41.59-61.12-10.64-77-34.21c-16-23.8-8.37-57.18-24.1-81.14-16.7-25.46-52.28-30.5-83.37-33-47.4-3.88-96.22-7.62-141.64,6.05s-87.19,49.17-92.36,94.85c-5.25,46.43,27.18,93.52,12.92,138.15-14.81,46.32-75.07,71.87-81.07,120-3.14,25.2,10,49.33,22.69,71.55,16.25,28.42,32.51,58.64,48.77,87.06H498.19c-5.8-7.91-.06-19.29,8-25s18.24-8.38,26-14.49c20.61-16.2,16-48,4.34-71.07s-28.71-45.64-27.3-71.26C510.84,355.87,533.78,334.13,553.21,313.3Z" transform="translate(-22.65 -44.45)"/><path class="cls-1" d="M56.21,332.82c43.54-41.93,40.22-64.24,31.29-120.1-4.37-27.26-39-.55-51.4,40.78C23.13,296.86,33.05,355.13,56.21,332.82Z" transform="translate(-22.65 -44.45)"/><line class="cls-2" x1="8.85" y1="521.13" x2="510.6" y2="521.13"/><g id="Artwork_52" data-name="Artwork 52"><path class="cls-3" d="M256.05,505.73c-2.86,12.46-75.31,59.51-84.22,28.15-7.51-26.42,51.65-36.07,75-33.19-7.94-4.54-15.69-9.36-23.17-14.23q-10.76-7-21-14.72c-10.12,12.1-85.21,37.37-87,5.73-1.45-25.32,48.5-23.23,73.84-16.15-10.54-8.64-20.64-17.85-30.33-27.53-6.9,11.08-88.23,33-87.94.29.24-27.33,57.79-18.52,79.9-8.54q-15.15-16-28.85-33.4c-9.79,9.94-91,19.82-86.79-12.24,3.53-26.51,57.1-11.08,78.77,1.74q-7.4-9.93-14.31-20.25c-13.48-1.5-72.44-60.58-46.73-78.16,24.28-16.61,51.09,55.28,50,73.84q7.8,11.67,16.22,22.83c-5.27-24-2.5-89.56,23.41-83.24,29.19,7.12-5,84.21-17.24,91.31q13.47,17.16,28.42,32.88c-7.86-24.3-12.37-86.66,13.55-84.05,29.45,3,6,81.92-5.43,92.39a421.11,421.11,0,0,0,37.15,33.07c-10-19.38-21.61-89.63,6.14-88.9,30.59.8,10.13,86.66-.38,93.39q10.55,8,21.61,15.33c6.61,4.35,13.46,8.66,20.49,12.74-14.32-21-35.63-78.22-10.23-83.86,29-6.45,28.66,76,20.64,89.63,12.88,6.8,26.28,12.59,39.92,16.29,3.14.85,1.32,5.87-1.8,5C282.11,518.22,268.85,512.47,256.05,505.73Z" transform="translate(-22.65 -44.45)"/></g><g id="Artwork_54" data-name="Artwork 54"><path class="cls-4" d="M391.13,414.17A367.88,367.88,0,0,1,413,333.81a376.69,376.69,0,0,1,17.53-37.89,368.48,368.48,0,0,1,47-68.51c1.15-1.33,2.31-2.64,3.48-3.95,1.53-1.72-1.22-4-2.74-2.28a369.5,369.5,0,0,0-26.2,33,376.7,376.7,0,0,0-54.29,113.35,366.81,366.81,0,0,0-9.27,40.89c-.29,1.74-.57,3.47-.84,5.21a1.78,1.78,0,0,0,3.52.55Z" transform="translate(-22.65 -44.45)"/><path class="cls-4" d="M447.73,267.18c-2.61-27.21,4.59-67.5,5.24-94.29.71-29.55,4.84-61.33,29.82-78.46,6.52-4.47,14.83-7.81,24-6.57,13,1.73,24.26,12.32,28.66,23.23s3.23,22,1.14,32.42c-10.23,50.83-42.1,95.16-88.91,123.67" transform="translate(-22.65 -44.45)"/><path class="cls-4" d="M408.46,340.91c-17.94-18.8-36-53.09-51.15-73.47-16.75-22.49-32.17-48.63-22.93-75.93,2.41-7.13,6.87-14.44,14.7-18.87,11-6.23,25.92-4.88,35.69.72s15.38,14.56,19.86,23.55c21.86,43.91,23.24,95.53,3.83,144" transform="translate(-22.65 -44.45)"/><path class="cls-4" d="M394.77,380.48c14.12-25.91,44.59-60.27,61.27-84.61,18.4-26.86,41.09-54.52,73-61.16,8.32-1.73,17.5-1.77,24.71,2.72,10.13,6.29,13.52,20.12,10.74,31.73S554,290.53,545.93,299.32a263.07,263.07,0,0,1-151.16,81.16" transform="translate(-22.65 -44.45)"/></g><g id="Artwork_50" data-name="Artwork 50"><path class="cls-3" d="M236.58,333.26c7.15-16.14,10.76-34.52,12.89-52.37.76-.23,1.85-.59,3.17-1.11a72.31,72.31,0,0,0,10.36-5,94.32,94.32,0,0,0,12.64-8.88A112.12,112.12,0,0,0,288,253.79a109.37,109.37,0,0,0,10.3-13.85c1.49-2.37,2.82-4.71,4-7s2.18-4.57,3.09-6.71,1.62-4.17,2.22-6,1-3.51,1.37-4.92a39,39,0,0,0,.85-4.62,38.52,38.52,0,0,0-4.45,1.46c-1.37.52-3,1.21-4.72,2s-3.66,1.85-5.67,3-4.11,2.48-6.23,4-4.28,3.13-6.42,4.91A110.32,110.32,0,0,0,270,238.11,111.71,111.71,0,0,0,259.74,252a92.33,92.33,0,0,0-7.11,13.74c-.86,2.1-1.58,4.09-2.17,5.92.12-1.36.25-2.72.37-4.08A355.56,355.56,0,0,0,252,228.27c.57-.2,1.22-.45,2-.73a72.83,72.83,0,0,0,10.37-5.06A94.1,94.1,0,0,0,277,213.6a112,112,0,0,0,12.33-12.07,106.7,106.7,0,0,0,10.3-13.84c1.48-2.36,2.82-4.71,4-7s2.19-4.58,3.1-6.71,1.61-4.17,2.22-6,1-3.53,1.36-4.94a39,39,0,0,0,.85-4.61,37,37,0,0,0-4.45,1.45c-1.37.53-3,1.21-4.71,2s-3.66,1.85-5.68,3-4.1,2.48-6.22,4-4.28,3.14-6.42,4.92a108.62,108.62,0,0,0-12.31,12.09,110.25,110.25,0,0,0-10.29,13.85,93.67,93.67,0,0,0-7.1,13.74c-.93,2.24-1.68,4.36-2.3,6.28q-.9-19.14-3.64-38.13c.51-.39,1.1-.83,1.75-1.35a76.71,76.71,0,0,0,8.36-8,93.39,93.39,0,0,0,9.36-12.3,109.1,109.1,0,0,0,8.1-15.24,107.68,107.68,0,0,0,5.64-16.31c.7-2.69,1.26-5.34,1.69-7.9s.71-5,.92-7.33.28-4.47.29-6.42-.06-3.68-.19-5.11a37.45,37.45,0,0,0-.59-4.66,40,40,0,0,0-3.81,2.74c-1.13.91-2.43,2-3.86,3.37s-2.93,2.86-4.51,4.57-3.16,3.62-4.72,5.68-3.13,4.28-4.64,6.62a110.89,110.89,0,0,0-13.68,31.58,94.34,94.34,0,0,0-2.58,14.94q-2.87-15.85-6.86-31.5a74.37,74.37,0,0,0,.57-9.88,95.35,95.35,0,0,0-1.48-15.39,111,111,0,0,0-11.3-32.51c-1.32-2.45-2.7-4.77-4.11-6.94s-2.9-4.18-4.3-6-2.83-3.47-4.14-4.91-2.53-2.65-3.61-3.63a35.08,35.08,0,0,0-3.59-3,40.33,40.33,0,0,0-.94,4.59c-.22,1.45-.42,3.15-.56,5.1s-.22,4.1-.2,6.42.12,4.8.37,7.38.61,5.26,1.1,8a108.74,108.74,0,0,0,4.4,16.7,113.36,113.36,0,0,0,6.95,15.8,93.46,93.46,0,0,0,8.42,13,75,75,0,0,0,7.73,8.56c.72.67,1.35,1.22,1.89,1.67a437.79,437.79,0,0,1,9.45,50.87,77.67,77.67,0,0,0-5.51-8.4,96.06,96.06,0,0,0-10.32-11.51A112.17,112.17,0,0,0,216.07,160a107.56,107.56,0,0,0-14.95-8.6c-2.54-1.19-5-2.25-7.46-3.15s-4.79-1.65-7-2.3-4.33-1.1-6.25-1.47-3.62-.63-5.07-.79a36.8,36.8,0,0,0-4.66-.3,35.67,35.67,0,0,0,2,4.25c.67,1.3,1.53,2.79,2.57,4.44s2.26,3.42,3.64,5.28,3,3.79,4.7,5.72,3.61,3.87,5.62,5.79a109.57,109.57,0,0,0,13.46,10.81,112,112,0,0,0,15,8.58,92.15,92.15,0,0,0,14.48,5.43A74.23,74.23,0,0,0,243.37,196c1,.12,1.9.2,2.61.23a365.66,365.66,0,0,1,2.1,51.67c-.24-.49-.52-1-.83-1.64a75.92,75.92,0,0,0-6.24-9.69,95.12,95.12,0,0,0-10.31-11.52,111.68,111.68,0,0,0-13.45-10.83,108.17,108.17,0,0,0-15-8.61c-2.5-1.18-5-2.24-7.44-3.13s-4.8-1.64-7-2.3-4.34-1.12-6.25-1.48-3.61-.63-5.07-.79a40.49,40.49,0,0,0-4.67-.29,36.56,36.56,0,0,0,2,4.25c.68,1.29,1.54,2.78,2.58,4.44s2.25,3.42,3.65,5.28,2.94,3.8,4.69,5.7,3.6,3.89,5.63,5.81a110.82,110.82,0,0,0,28.43,19.39,93.72,93.72,0,0,0,14.47,5.42,75.55,75.55,0,0,0,11.3,2.29c1.42.16,2.59.24,3.39.28-.25,6.6-.69,13.19-1.37,19.77-.82,8.07-1.82,16.36-3.23,24.62-.29-.63-.66-1.38-1.12-2.23A71.47,71.47,0,0,0,236,283a91.94,91.94,0,0,0-10.3-11.51A111.75,111.75,0,0,0,197.3,252c-2.53-1.2-5-2.24-7.46-3.14s-4.81-1.64-7-2.29-4.33-1.12-6.24-1.48-3.62-.62-5.06-.79a38,38,0,0,0-4.67-.29,38.31,38.31,0,0,0,2,4.25c.68,1.28,1.54,2.79,2.58,4.43s2.26,3.42,3.64,5.29,3,3.8,4.7,5.7,3.6,3.89,5.62,5.8a110.52,110.52,0,0,0,13.46,10.81,112,112,0,0,0,15,8.59,93.63,93.63,0,0,0,14.46,5.42,74.21,74.21,0,0,0,11.31,2.27c1.46.19,2.64.26,3.46.29-2.17,12-5.27,24-10.11,34.89C231.87,334.08,235.55,335.6,236.58,333.26Z" transform="translate(-22.65 -44.45)"/></g></g><g id="Plant-big"><path class="cls-5" d="M188.8,290.53s-29.37-21.16-21.13-74.25c0,0,7.32-30.21,36.62-30.21,0,0,26.09,2.75,24.71,28.84,0,0,1.38,23.39-15.56,40.3C213.44,255.21,190.43,273.1,188.8,290.53Z" transform="translate(-22.65 -44.45)"/><path class="cls-6" d="M192.1,328.88s-1.7-49.85,26.3-73.67,47.22,0,47.22,0,10.07,22.15-4.12,35.32-25.63,16.38-34.79,18.66S192.1,328.88,192.1,328.88Z" transform="translate(-22.65 -44.45)"/><path class="cls-7" d="M192.1,375.56s2.12-32.5,30.27-51.95,44.85-4.12,44.85-4.12,14.65,12.36,4.12,29.52-24.49,13.28-24.49,13.28S202.12,361.37,192.1,375.56Z" transform="translate(-22.65 -44.45)"/><path class="cls-8" d="M188,411.72s4.12-20.37,26.09-30.9,33.64,2.29,33.64,2.29,10.52,9.38-1.15,22-29.28,5-29.28,5S196.3,406.18,188,411.72Z" transform="translate(-22.65 -44.45)"/><path class="cls-6" d="M180.94,293.17a85.18,85.18,0,0,0-18.3-18.3c-9.89-7.21-13.77-6.65-21.29-11.9-10.94-7.64-26.52-25.43-21.51-42.57,2.86-9.77,12.35-19.13,22.89-19.91,19.87-1.46,33.17,28.43,35.7,34.1C189.35,259.09,184,283,180.94,293.17Z" transform="translate(-22.65 -44.45)"/><path class="cls-7" d="M178.88,330.48c5.88-3.13.09-25.76-5.49-39.59-4.67-11.59-8.79-21.8-19.68-29.52-2.57-1.83-19.51-13.84-36.16-6.87-3.18,1.33-12.42,5.9-15.33,15.56-3.58,11.87,4.55,24.25,12.36,30.44,10.27,8.13,16.58,2.87,33.18,9.84C167.94,318.81,174,333.06,178.88,330.48Z" transform="translate(-22.65 -44.45)"/><path class="cls-8" d="M178.31,366c3.64-1.93.82-17.17-5.16-29.54-3.3-6.83-15.28-31.66-39.81-35-3.47-.47-23.37-3.18-33.29,11a28.49,28.49,0,0,0-.69,30.89c7.66,12,24.82,16.82,39.82,9.61,7.28-.33,16.83.45,26.09,5.5C172.71,362.46,176.05,367.14,178.31,366Z" transform="translate(-22.65 -44.45)"/><path class="cls-8" d="M180.19,416.5c-2-10.78-3-16.17-4.62-20a48.79,48.79,0,0,0-14.42-18.88c-4.25-3.32-19.07-14.9-33.64-8.93-6.22,2.56-12.86,8.49-14.42,16.48-2.5,12.77,9,25.51,19.22,30.55,9.11,4.49,24.57,6.52,29.87,7.21,3.75.49,8,.79,12,3.85,2.56,1.94,3.93,4.17,5.17,3.7,1.43-.53,1.4-4.15,1.38-7.55A39.86,39.86,0,0,0,180.19,416.5Z" transform="translate(-22.65 -44.45)"/><path d="M200.91,208.55q-5.44,30.49-9,61.25t-5.33,61.65q-1.71,30.9-1.53,61.84c.05,5.16-.07,10.31-.06,15.47s.14,10.31.27,15.46q.39,15.46,1.3,30.92a1,1,0,1,1-2,.12c-.65-10.31-1.2-20.63-1.59-31-.19-5.17-.32-10.33-.46-15.5l-.24-7.75c-.06-2.59-.07-5.17-.07-7.76q.17-31,2.22-62t6-61.7c2.64-20.5,6-40.89,9.92-61.17a.29.29,0,0,1,.34-.23A.28.28,0,0,1,200.91,208.55Z" transform="translate(-22.65 -44.45)"/><path d="M183.27,351.59a133.62,133.62,0,0,1,4.64-13q2.61-6.37,5.72-12.54a178.09,178.09,0,0,1,14.23-23.54c2.7-3.71,5.51-7.34,8.5-10.81s6.11-6.84,9.43-10a136,136,0,0,1,21.52-17,135.5,135.5,0,0,0-21.11,17.39c-3.24,3.21-6.24,6.65-9.16,10.15s-5.62,7.18-8.22,10.92a176.6,176.6,0,0,0-13.61,23.64q-2.94,6.15-5.39,12.52a130.31,130.31,0,0,0-4.27,12.88Z" transform="translate(-22.65 -44.45)"/><path d="M182.53,392.76a73.78,73.78,0,0,1,4.81-11.06,95.26,95.26,0,0,1,6.23-10.23,92.65,92.65,0,0,1,16-17.69,90.53,90.53,0,0,1,20-12.93,100.28,100.28,0,0,1,22.55-7.39l0,.12a99.89,99.89,0,0,0-22.31,7.84,90.38,90.38,0,0,0-19.49,13.23A90.93,90.93,0,0,0,195,372.42a92.6,92.6,0,0,0-5.9,10.16,73.5,73.5,0,0,0-4.42,10.79Z" transform="translate(-22.65 -44.45)"/><path d="M184.26,418.37a16.25,16.25,0,0,1,1.48-4l1-1.83L188,410.8a34.18,34.18,0,0,1,5.76-5.95A31.55,31.55,0,0,1,197,402.4l1.72-1.13.87-.56.91-.48,3.63-1.91,3.78-1.61a35.32,35.32,0,0,1,3.84-1.41c1.3-.43,2.59-.88,3.89-1.29l4-1,2-.51,1-.25,1-.19,4-.74,2-.37,1-.19,1-.12,8.1-1-8.08,1.18-1,.14-1,.21-2,.42-4,.83-1,.2-1,.28-2,.54-3.92,1.1c-1.28.43-2.55.91-3.83,1.36a36,36,0,0,0-3.77,1.49l-3.7,1.67L201,401l-.88.5c-.29.18-.56.37-.84.56l-1.67,1.14a37.3,37.3,0,0,0-8.62,8.32l-1.1,1.66-.93,1.75a15.38,15.38,0,0,0-1.26,3.63v.05a.72.72,0,0,1-1.43-.23Z" transform="translate(-22.65 -44.45)"/><path d="M183.71,438.8a160.59,160.59,0,0,0-7.94-15.22,141.2,141.2,0,0,0-9.54-14.31,87.07,87.07,0,0,0-11.63-12.64,42.07,42.07,0,0,0-14.73-8.71,42.06,42.06,0,0,1,15,8.33A87,87,0,0,1,167,408.65a144.33,144.33,0,0,1,10.05,14.15A162.64,162.64,0,0,1,185.53,438Z" transform="translate(-22.65 -44.45)"/><path d="M182.9,372.23a111.48,111.48,0,0,0-10.76-16.9,105.29,105.29,0,0,0-13.62-14.77,76.33,76.33,0,0,0-16.58-11.34,60.1,60.1,0,0,0-9.36-3.74,61.35,61.35,0,0,0-9.88-2.1,60.15,60.15,0,0,1,10,1.86,61,61,0,0,1,9.51,3.53,77.5,77.5,0,0,1,17,11,106.22,106.22,0,0,1,14.15,14.61,113.36,113.36,0,0,1,11.38,16.93Z" transform="translate(-22.65 -44.45)"/><path d="M184.06,340.36a206.14,206.14,0,0,0-9.88-18.55,200.9,200.9,0,0,0-11.68-17.5,136.45,136.45,0,0,0-13.8-15.89A79.89,79.89,0,0,0,132,275.67a72.1,72.1,0,0,1,8.94,5.62,95.5,95.5,0,0,1,8.13,6.76,137.24,137.24,0,0,1,14.25,15.65A201.08,201.08,0,0,1,175.46,321a210.38,210.38,0,0,1,10.42,18.49,1,1,0,0,1-1.8.88v0Z" transform="translate(-22.65 -44.45)"/><path d="M185.72,314c-1.92-8.26-4.13-16.49-6.53-24.64s-5-16.26-8-24.22a178.12,178.12,0,0,0-10.38-23.28,68.19,68.19,0,0,0-7-10.6,31.24,31.24,0,0,0-4.5-4.48,15.21,15.21,0,0,0-5.62-2.93,15.29,15.29,0,0,1,5.69,2.83,31.15,31.15,0,0,1,4.62,4.42,69.22,69.22,0,0,1,7.29,10.52,177.61,177.61,0,0,1,10.87,23.16c3.14,7.93,5.94,16,8.51,24.14s4.94,16.33,7,24.62a1,1,0,0,1-.73,1.22,1,1,0,0,1-1.21-.73h0Z" transform="translate(-22.65 -44.45)"/><path class="cls-9" d="M140,453.67h89.47l.53,79.66a39.85,39.85,0,0,1-8.42,20.48,31.6,31.6,0,0,1-13.7,9.77H165a26.21,26.21,0,0,1-15.06-9.16c-6.82-8.24-7.31-18-7.37-20.49Q141.27,493.81,140,453.67Z" transform="translate(-22.65 -44.45)"/></g><g id="Chair"><path class="cls-10" d="M468,507.75c-50.42,58.94-126,58.18-169.5,57.75-32.52-.32-70.22-.7-104.25-27.75a150.77,150.77,0,0,1-31.74-37.46c21.21,18.59,62.39,47.18,120.24,51,69.95,4.58,119.09-30.08,136.5-42.75,61.84-45,81.14-107.73,86.38-127.47C508.27,418.09,502.87,467,468,507.75Z" transform="translate(-22.65 -44.45)"/><path class="cls-11" d="M505.63,381h0c-5.24,19.74-24.54,82.46-86.38,127.47-17.41,12.67-66.55,47.33-136.5,42.75-57.85-3.78-99-32.37-120.24-51a0,0,0,0,0,0,0c-10.59-17.67-19.21-40.76-17-67.52,2.86-34.69,22.74-61.4,30.64-70.75-3.35,4.34-25.48,34-16,68A70.83,70.83,0,0,0,176.5,458.5c1.15,1.22,2.31,2.38,3.49,3.46a0,0,0,0,1,0,0h0c14,12.85,30.7,16.77,55.49,22.27,40.56,9,71.89,5.66,79.5,4.75,12-1.43,29.43-3.51,49.75-11.75,47.17-19.13,72.73-56.39,81.5-70.75,5.53-9.05,33.05-53.69,25.5-102.75-1.19-7.74-3.55-22.06-13.37-37.5a90,90,0,0,0-21.73-23.45c-2.69-2-5.15-3.66-7.23-4.94a118.55,118.55,0,0,1,10.83,6.64c36,24.76,48.2,61.35,54.75,81A234.3,234.3,0,0,1,505.63,381Z" transform="translate(-22.65 -44.45)"/><path class="cls-12" d="M312.18,480.56a13,13,0,0,1-1.12-1.22,41.44,41.44,0,0,1-6.18-1.59c-9.33-3.16-10.23-7.14-17.26-9.94-5.07-2-15.63-4.32-21.37-.19-1.6,1.16-4,2.15-8.81,4.13-.6.25-1.74.7-2.44.19-.34-.25-.77-.86-.38-4.13.45-3.65,1.16-4.31.76-5.43-.65-1.8-3.29-2.38-5.44-2.82-12.7-2.6-13.88-2.62-13.88-2.62-7.6-.26-16.41-.46-26.32-.43.56-.17,1.13-.36,1.7-.56,1.46-.53,3-1.16,4.68-1.83a133.42,133.42,0,0,1,15.88-5h0c4.33,1.44,9.73,3.07,16.49,4.92,10.83,3,25.67,6.59,43.75,9.75a48.37,48.37,0,0,1,.89-5.64,17.74,17.74,0,0,1,10,7.27,16.48,16.48,0,0,1,2.38,6.24,11.86,11.86,0,0,0,5.17,6.61h0C311.47,479.56,312.07,480.41,312.18,480.56Z" transform="translate(-22.65 -44.45)"/><path class="cls-12" d="M357.52,453.66c-.58,1.42-1.11,2.78-1.59,4.07a64.57,64.57,0,0,1-10.37,4.08,65.45,65.45,0,0,1-9.56,2.07,13.46,13.46,0,0,1-2.44,6,15.49,15.49,0,0,1-10.14,5.72,16.79,16.79,0,0,1-1.94,3c.45-.76,1-1.77,1.68-3l.47-.92a59.44,59.44,0,0,0,5.12-15c.34-1.69.58-3.33.75-4.89a65.85,65.85,0,0,0,15,.89A64.83,64.83,0,0,0,357.52,453.66Z" transform="translate(-22.65 -44.45)"/><path class="cls-13" d="M264.75,279.38a17.42,17.42,0,0,0,0,8.24c1.55,8.53,6.56,12.91,4.95,14.84-.71.85-2.26.7-3.82.54a9.89,9.89,0,0,1-5.61-2.65c-2.58-2.3-2.2-4-3.77-4.85-1.41-.78-4-.67-9.38,3.38A278.51,278.51,0,0,1,222.74,330l-13.33-.19c14.85-16.75,18.84-26.22,29.84-41.07C255.17,267.26,273.66,250.89,285,243l.16-.11a4.06,4.06,0,0,1,.84,2.23c0,2-1.76,2.64-2.5,4.38-1.2,2.81.49,8,4.37,10.48-6,3.5-11,6.85-14.87,9.64C271.07,270.72,266.33,273.78,264.75,279.38Z" transform="translate(-22.65 -44.45)"/><path class="cls-14" d="M313.25,284.26s-13.44,6.55-19.81,17.62-7.5,19.68-7.5,19.68-2.1,6.08-7,9.23l-22.32-.31a16.78,16.78,0,0,0,10.9-4.23,17.12,17.12,0,0,0,5.06-9.75c.75-3.85.09-6.87-.74-10.69a44.38,44.38,0,0,0-3.38-9.75,32,32,0,0,1,7.88,5.25,31.68,31.68,0,0,1,6.18,7.69c4.24-13.34,9.21-18.38,13.13-20.44a19.49,19.49,0,0,0,10.87-13.18,16.66,16.66,0,0,0,2.63,4.93,16,16,0,0,0,3.91,3.85Z" transform="translate(-22.65 -44.45)"/><path class="cls-14" d="M448.5,312.25a123.13,123.13,0,0,0-19.75,35c-.21.59-.42,1.17-.62,1.75-2.27-8.24-4.39-15.14-6.13-20.5a177,177,0,0,0-6.31-17.31c-1.87-4.29-2.73-5.34-4.13-10.63a18.9,18.9,0,0,0-3.56-7.5c-1.15-1.42-2.56-2.68-7.31-5.62-3.85-2.39-7.13-4.2-9.57-5.44s-5.91-2.91-10-4.6a11.7,11.7,0,0,0,1.34-7.4c-.58-3.72-3-6.05-5.06-8.06a23,23,0,0,0-5.11-3.69,31.86,31.86,0,0,0-15-3.64,11.66,11.66,0,0,0-.51-4.67c4.24-2.12,13.07-1.35,20.63,3.18a36.13,36.13,0,0,1,10.31,9.76c2.7,4,3,6.32,6.56,9.56a34.75,34.75,0,0,0,6.19,4.31c2.71,1.42,3.88,1.5,6,2.81a18.1,18.1,0,0,1,5.25,5.06,25.27,25.27,0,0,1,8.06-15.37,23.76,23.76,0,0,1,8.25-4.69,40.31,40.31,0,0,0-7.31,19.32,47.81,47.81,0,0,0,1.5,15.93c1.12,4.72,2.18,6.47,4.5,13.88,1.63,5.2,2.73,9.49,3.37,12.19a23.31,23.31,0,0,1,18.38-13.63Z" transform="translate(-22.65 -44.45)"/><path class="cls-13" d="M170.62,396.75C161.69,424.05,174,450.9,180,462c-1.18-1.08-2.34-2.24-3.49-3.46A70.83,70.83,0,0,1,160.17,430c-9.51-34,12.62-63.68,16-68h0c1.63-1.94,2.75-3.13,3.1-3.49a169.53,169.53,0,0,1,13.63-12.32c.67,3.35,1.46,7.32,2.31,11.6-2.32,2.58-4.71,5.47-7.31,9C182.13,374.47,174.61,384.56,170.62,396.75Z" transform="translate(-22.65 -44.45)"/><path class="cls-13" d="M436.65,242.8a187.32,187.32,0,0,0-82.75-6.14c.5-4.2.63-6.51-.52-8.66-.4-.74-1.61-3-3.88-3.62-1.55-.44-2.13.3-4.38,0-1.13-.16-3.44-.47-4.44-2,29.21-4,61.24.45,88.64,15.43a.27.27,0,0,1,.1.06C431.5,239.14,434,240.77,436.65,242.8Z" transform="translate(-22.65 -44.45)"/><path class="cls-15" d="M446.25,406.5c-8.77,14.36-34.33,51.62-81.5,70.75C344.43,485.49,327,487.57,315,489c-7.61.91-38.94,4.25-79.5-4.75C210.71,478.75,194,474.83,180,462h0a0,0,0,0,0,0,0c-6-11.06-18.3-37.91-9.37-65.21,4-12.19,11.51-22.28,17.26-30,2.6-3.5,5-6.39,7.31-9,1.89,9.54,4.08,20.57,5.88,29.51-2.09.56-11.44,3.32-15.57,12s-.72,17.53,1.94,22.34a16.52,16.52,0,0,0,2.31,3.41c2.58,2.26,5.81,4.9,9.68,7.67-6.68,8.26-7.4,17.47-3.41,21.68,2,2.16,5.45,2.58,7,2.77a15.82,15.82,0,0,0,6.74-.61c9.91,0,18.72.17,26.32.43,0,0,1.18,0,13.88,2.62,2.15.44,4.79,1,5.44,2.82.4,1.12-.31,1.78-.76,5.43-.39,3.27,0,3.88.38,4.13.7.51,1.84.06,2.44-.19,4.81-2,7.21-3,8.81-4.13,5.74-4.13,16.3-1.82,21.37.19,7,2.8,7.93,6.78,17.26,9.94a41.44,41.44,0,0,0,6.18,1.59,13,13,0,0,0,1.12,1.22l0,0a4.53,4.53,0,0,0,2.42,1.36,4.78,4.78,0,0,0,1.77,0c1.87-.07,3.63-1.5,5-3.18l.1-.11a16.79,16.79,0,0,0,1.94-3,15.49,15.49,0,0,0,10.14-5.72,13.46,13.46,0,0,0,2.44-6,65.45,65.45,0,0,0,9.56-2.07,64.57,64.57,0,0,0,10.37-4.08c.48-1.29,1-2.65,1.59-4.07a120.25,120.25,0,0,1,24.39-37.6,115.73,115.73,0,0,1,39.4-26.71A122.93,122.93,0,0,1,428.13,349h0c.2-.58.41-1.16.62-1.75a123.13,123.13,0,0,1,19.75-35,23.31,23.31,0,0,0-18.38,13.63c-.64-2.7-1.74-7-3.37-12.19-2.32-7.41-3.38-9.16-4.5-13.88a47.81,47.81,0,0,1-1.5-15.93,40.31,40.31,0,0,1,7.31-19.32,23.76,23.76,0,0,0-8.25,4.69,25.27,25.27,0,0,0-8.06,15.37,18.1,18.1,0,0,0-5.25-5.06c-2.12-1.31-3.29-1.39-6-2.81a34.75,34.75,0,0,1-6.19-4.31c-3.59-3.24-3.86-5.59-6.56-9.56a36.13,36.13,0,0,0-10.31-9.76c-7.56-4.53-16.39-5.3-20.63-3.18a9.39,9.39,0,0,0-.93-2.06,7.31,7.31,0,0,0-2.76-2.76,5.57,5.57,0,0,0-2.55-.59,3.67,3.67,0,0,0,1.68-.91c.88-.83,1.1-2.48,1.5-5.74.05-.42.1-.83.15-1.22a187.32,187.32,0,0,1,82.75,6.14,90,90,0,0,1,21.73,23.45c9.82,15.44,12.18,29.76,13.37,37.5C479.3,352.81,451.78,397.45,446.25,406.5Z" transform="translate(-22.65 -44.45)"/><path class="cls-15" d="M306.56,275.37h0a19.49,19.49,0,0,1-10.87,13.18c-3.92,2.06-8.89,7.1-13.13,20.44a31.68,31.68,0,0,0-6.18-7.69,32,32,0,0,0-7.88-5.25,44.38,44.38,0,0,1,3.38,9.75c.83,3.82,1.49,6.84.74,10.69a17.12,17.12,0,0,1-5.06,9.75,16.78,16.78,0,0,1-10.9,4.23h-.06l-1.4,0H255L222.74,330a278.51,278.51,0,0,0,24.38-31.13c5.34-4.05,8-4.16,9.38-3.38,1.57.86,1.19,2.55,3.77,4.85a9.89,9.89,0,0,0,5.61,2.65c1.56.16,3.11.31,3.82-.54,1.61-1.93-3.4-6.31-4.95-14.84a17.42,17.42,0,0,1,0-8.24c1.58-5.6,6.32-8.66,8.25-9.76,3.89-2.79,8.86-6.14,14.87-9.64a8.72,8.72,0,0,0,2.13,1,10.11,10.11,0,0,0,9.11-1.62,41.66,41.66,0,0,1,4.83,8.37C305.29,270.92,305.79,273.21,306.56,275.37Z" transform="translate(-22.65 -44.45)"/><path class="cls-16" d="M196.5,521.62a121.27,121.27,0,0,0,12,8.64,87.59,87.59,0,0,0,12.87,6.65,88.65,88.65,0,0,0,13.79,4.43,124.7,124.7,0,0,0,14.59,2.41,46.46,46.46,0,0,1-15.12.69,54.79,54.79,0,0,1-27.95-11.62A46.72,46.72,0,0,1,196.5,521.62Z" transform="translate(-22.65 -44.45)"/><path class="cls-16" d="M478.5,303A78.47,78.47,0,0,1,486,317.57a97.58,97.58,0,0,1,6.69,32.07A77.24,77.24,0,0,1,491.62,366c-.68-5.43-1.26-10.78-2.05-16.08s-1.68-10.56-2.77-15.78-2.34-10.41-3.76-15.58S480,308.25,478.5,303Z" transform="translate(-22.65 -44.45)"/><path d="M375,478.12a36.52,36.52,0,0,1,5.46,9.56,43.95,43.95,0,0,1,2.74,21.84,36.49,36.49,0,0,1-2.95,10.6c.33-3.65.59-7.21.61-10.76a82.47,82.47,0,0,0-.62-10.56,84.21,84.21,0,0,0-2-10.39C377.35,485,376.22,481.58,375,478.12Z" transform="translate(-22.65 -44.45)"/><path d="M175.5,463.12c-.56,3.12-1.09,6.14-1.42,9.17a73.91,73.91,0,0,0,.19,18.08c.4,3,1,6,1.61,9.13a29.42,29.42,0,0,1-3.9-8.66,36.07,36.07,0,0,1-1.36-9.48,36.63,36.63,0,0,1,1.16-9.5A29.94,29.94,0,0,1,175.5,463.12Z" transform="translate(-22.65 -44.45)"/></g><g id="man"><path class="cls-17" d="M381.91,416.06a120.25,120.25,0,0,0-24.39,37.6,64.83,64.83,0,0,1-13,2.09,65.85,65.85,0,0,1-15-.89,58.26,58.26,0,0,0,.25-9.86c-1-.35-2.46-.83-4.2-1.36l-1.3-.39c-5.73-1.69-8.22-1.88-12.75-3.25a67.21,67.21,0,0,1-8-3,49.31,49.31,0,0,0-11.22,26.75c-18.08-3.16-32.92-6.79-43.75-9.75-6.76-1.85-12.16-3.48-16.49-4.92h0c-3.32-1.1-6-2.08-8.23-2.95-1.74-.68-3.17-1.29-4.38-1.83-1.41-.63-2.5-1.17-3.38-1.61l-1.48-.76A119.35,119.35,0,0,1,204,435.82c-1.63-1.06-3.16-2.11-4.61-3.15-3.87-2.77-7.1-5.41-9.68-7.67a16.52,16.52,0,0,1-2.31-3.41c-2.66-4.81-6-13.85-1.94-22.34s13.48-11.4,15.57-12c1.73,8.57,3.1,15.21,3.49,16.77,1.32,5.25,4.5,4.88,4.5,4.88s90,1.5,96,1.12l50.25-.75a4.37,4.37,0,0,0,2.3-2.9,54.26,54.26,0,0,1,24.3,9.65Z" transform="translate(-22.65 -44.45)"/><path class="cls-18" d="M313.49,470.56c-.87,3-2.86,9,1,10.94a4,4,0,0,0,1.89.42,4.78,4.78,0,0,1-1.77,0,4.53,4.53,0,0,1-2.42-1.36l0,0c-.11-.15-.71-1-1.5-2.32h0c-2.53-4.21-7-13.21-3.36-19.61,4.88-8.62,12.94-6,12.94-6-.59,1.16-1.18,2.38-1.75,3.64A103.23,103.23,0,0,0,313.49,470.56Z" transform="translate(-22.65 -44.45)"/><path class="cls-18" d="M214.94,453a8.76,8.76,0,0,1-3.5,3c-1.32.14-5.46.42-8.32-2.2-3.88-3.58-4.16-11.42.92-17.93a119.35,119.35,0,0,0,10.49,6.11C216.73,445.65,216.94,449.92,214.94,453Z" transform="translate(-22.65 -44.45)"/><path class="cls-18" d="M211.44,456c-.57.2-1.14.39-1.7.56a15.82,15.82,0,0,1-6.74.61c-1.53-.19-4.93-.61-7-2.77-4-4.21-3.27-13.42,3.41-21.68,1.45,1,3,2.09,4.61,3.15-5.08,6.51-4.8,14.35-.92,17.93C206,456.37,210.12,456.09,211.44,456Z" transform="translate(-22.65 -44.45)"/><path class="cls-19" d="M232,449.08a133.42,133.42,0,0,0-15.88,5c-1.7.67-3.22,1.3-4.68,1.83a8.76,8.76,0,0,0,3.5-3c2-3,1.79-7.31-.41-11l1.48.76c.88.44,2,1,3.38,1.61,1.21.54,2.64,1.15,4.38,1.83C226,447,228.68,448,232,449.08Z" transform="translate(-22.65 -44.45)"/><path class="cls-19" d="M428.13,349h0a122.93,122.93,0,0,0-6.82,40.34,115.73,115.73,0,0,0-39.4,26.71,54.26,54.26,0,0,0-24.3-9.65c.33-2.24-2.3-4-2.3-4l-16.5-.44a4.55,4.55,0,0,0,2.81-1.56l6.13-5.76a26.78,26.78,0,0,0,14.37,8.76,20,20,0,0,0,.88-12.26c-2.39-9.35-11-13.16-12.12-13.62a42,42,0,0,1-11.38-.5,37.39,37.39,0,0,0-9.38-1,12.92,12.92,0,0,0-3.62.38c-2.47.84-3.95,3.72-4.83,6.85h0a20.89,20.89,0,0,0-5.05,3.26,12.38,12.38,0,0,0-3.37,4c-.53,1.07-1.95,4-.63,5.62s4.54.85,4.88.76a6.92,6.92,0,0,0,3.43-2.25,2.85,2.85,0,0,0,1.19,1.12,3.65,3.65,0,0,0,4.63-1.87c0,.37-.26,3.58,1.5,4.62,2.11,1.25,5.55-1.53,6.25-2.12a11.22,11.22,0,0,0,.85-.82,4.19,4.19,0,0,0-.1,5.19,3.6,3.6,0,0,0,2,1.15l-28.92-.78c-1-4.84-2.82-14.4-4.85-24.8-3.51-17.95-7.49-38.39-8-41.26-.94-5.25-5.62-4.12-5.62-4.12l-10.9-.15c4.86-3.15,7-9.23,7-9.23s1.12-8.62,7.5-19.68,19.81-17.62,19.81-17.62a9.22,9.22,0,0,0,1,.55c3.49,1.69,6.9,1.15,9.19.75a23.64,23.64,0,0,0,2.45-.56,12.35,12.35,0,0,0,3,7.31c.19.21.39.41.59.6,4.26,4,10.7,3.22,12.91,3,9.64-1.11,15.8-8.63,19-13.8a29.31,29.31,0,0,0,2.34-4.2c1.75-3.86,3.5-7.71,2.06-11.63a10.28,10.28,0,0,0-5.06-5.44,10,10,0,0,0-6.86-.46,7.94,7.94,0,0,0,3.11-4,7.45,7.45,0,0,0,.32-1.7,31.86,31.86,0,0,1,15,3.64,23,23,0,0,1,5.11,3.69c2.07,2,4.48,4.34,5.06,8.06a11.7,11.7,0,0,1-1.34,7.4c4,1.69,7.41,3.3,10,4.6s5.72,3.05,9.57,5.44c4.75,2.94,6.16,4.2,7.31,5.62a18.9,18.9,0,0,1,3.56,7.5c1.4,5.29,2.26,6.34,4.13,10.63A177,177,0,0,1,422,328.5C423.74,333.86,425.86,340.76,428.13,349Z" transform="translate(-22.65 -44.45)"/><path class="cls-20" d="M341.06,275.25a23.29,23.29,0,0,1-11.59,17.66c-.2-.19-.4-.39-.59-.6a12.35,12.35,0,0,1-3-7.31C333.37,282.91,338.78,277.69,341.06,275.25Z" transform="translate(-22.65 -44.45)"/><path class="cls-21" d="M320.38,392.75a3.73,3.73,0,0,0,.55,1.88,6.92,6.92,0,0,1-3.43,2.25c-.34.09-3.53.91-4.88-.76s.1-4.55.63-5.62a12.38,12.38,0,0,1,3.37-4,20.89,20.89,0,0,1,5.05-3.26A42.19,42.19,0,0,0,320.38,392.75Z" transform="translate(-22.65 -44.45)"/><path class="cls-22" d="M357.61,406.41a4.37,4.37,0,0,1-2.3,2.9l-50.25.75c6-.37,3.94-5.62,3.94-5.62s-.24-1.21-.65-3.32l28.92.78h0a4.24,4.24,0,0,0,1.51,0h0l16.5.44S357.94,404.17,357.61,406.41Z" transform="translate(-22.65 -44.45)"/><path class="cls-23" d="M363.75,277.88a29.31,29.31,0,0,1-2.34,4.2,34.48,34.48,0,0,1-7.22-9.08,34.28,34.28,0,0,1-3.8-10.93h0a11.78,11.78,0,0,0,2.81-1.26h0l.68-.44a10,10,0,0,1,6.86.46,10.28,10.28,0,0,1,5.06,5.44C367.25,270.17,365.5,274,363.75,277.88Z" transform="translate(-22.65 -44.45)"/><path class="cls-20" d="M353.38,228c-.4-.74-1.61-3-3.88-3.62-1.55-.44-2.13.3-4.38,0-1.13-.16-3.44-.47-4.44-2s.51-3,.07-6.12A9.75,9.75,0,0,0,331,208a10.55,10.55,0,0,0-6.12.25,24.49,24.49,0,0,0-4.13,2.5c-3.85,2.58-3.86,2.89-4.75,3-1.78.21-2.41-.93-6.38-2.63a18.57,18.57,0,0,0-4.74-1.62c-3.82-.52-8.63,1.05-10.38,4.38a11.07,11.07,0,0,0-1,3.62c-.38,2.81.38,3.79-.39,4.85-.4.56-1.05.89-5,1.27-5,.5-5.41.11-6.44.77-2.49,1.62-2.63,5.52-2.68,6.86a10.17,10.17,0,0,0,1.25,5.75c1.11,1.86,2.12,1.91,4.13,4.75.3.43.56.8.78,1.14a4.06,4.06,0,0,1,.84,2.23c0,2-1.76,2.64-2.5,4.38-1.2,2.81.49,8,4.37,10.48a8.72,8.72,0,0,0,2.13,1,10.11,10.11,0,0,0,9.11-1.62,4.64,4.64,0,0,0,1.27-1.63c.47-1.06.17-1.78,1.11-5v0c.69-2.34,1.14-2.94,1.75-3.25,1.11-.56,2.46,0,3.37.38a6.49,6.49,0,0,1,.59.28,7.41,7.41,0,0,1,2.17,1.72c1.89,1.08,2.9.84,3.37.62,1.32-.62,1.84-2.67,2.5-5.25,0-.15.07-.3.11-.43.35-1.44.46-2.28,1.26-2.94a3,3,0,0,1,2.26-.63c.78.17,1,.69,1.94,1.58l.18.17a7.87,7.87,0,0,0,3,2,5.38,5.38,0,0,0,4.25-.62,5.83,5.83,0,0,0,1.75-2.26,10.08,10.08,0,0,0,1-2.49,3.58,3.58,0,0,1,.89-1.63,3.44,3.44,0,0,1,2.62-1.25,2.86,2.86,0,0,1,1.75,1,2.79,2.79,0,0,1,.31.39c1.51,2.07.48,4.85,1.69,9.36.5,1.85,1,3.65,2.5,4.25a3,3,0,0,0,3.37-.75c.52-.83-.24-1.58-.12-3.12a6,6,0,0,1,1.88-3.63,4.69,4.69,0,0,1,1.94-1.17,7.37,7.37,0,0,1,2.75-.55,3.67,3.67,0,0,0,1.68-.91c.88-.83,1.1-2.48,1.5-5.74.05-.42.1-.83.15-1.22C354.4,232.46,354.53,230.15,353.38,228Zm-30.76,4.62c-1,1.49-3.52,1.37-5.87,1.26-3.84-.19-4.32-1.38-6.5-.88-2.35.53-2.25,2-5.37,3.12-1.5.54-3.45,1.23-5.13.26a4.15,4.15,0,0,1-1.35-1.29,4.52,4.52,0,0,1-.78-3.09c.27-1.77,1.67-1.62,3-4.5.63-1.35.68-2.14,1.63-3a3.52,3.52,0,0,1,2.37-1,3.31,3.31,0,0,1,2,.88c3.34,2.7,3.82,3.64,4.88,4.24a4,4,0,0,0,1.18.44c3.21.62,6.76-2.91,9.07-1.18A3.89,3.89,0,0,1,322.62,232.62Z" transform="translate(-22.65 -44.45)"/><path class="cls-24" d="M351,298.88a16,16,0,0,0,6.75-2.26c1.92-1.19,2.5-2.17,5.25-5.24,4.41-4.95,6.62-7.42,9.38-8.82,3.55-1.81,4.57-.75,6.74-2.62a9.13,9.13,0,0,0,2-2.54" transform="translate(-22.65 -44.45)"/><path class="cls-25" d="M361.41,282.08c-3.23,5.17-9.39,12.69-19,13.8-2.21.25-8.65,1-12.91-3a23.29,23.29,0,0,0,11.59-17.66c-2.28,2.44-7.69,7.66-15.17,9.75a23.64,23.64,0,0,1-2.45.56c-2.29.4-5.7.94-9.19-.75a9.22,9.22,0,0,1-1-.55l-.15-.1a16,16,0,0,1-3.91-3.85,16.66,16.66,0,0,1-2.63-4.93h0c-.77-2.16-1.27-4.45-2.62-7.62a41.66,41.66,0,0,0-4.83-8.37,4.64,4.64,0,0,0,1.27-1.63c.47-1.06.17-1.78,1.11-5v0c.69-2.34,1.14-2.94,1.75-3.25,1.11-.56,2.46,0,3.37.38a6.49,6.49,0,0,1,.59.28,7.41,7.41,0,0,1,2.17,1.72c1.89,1.08,2.9.84,3.37.62,1.32-.62,1.84-2.67,2.5-5.25,0-.15.07-.3.11-.43.35-1.44.46-2.28,1.26-2.94a3,3,0,0,1,2.26-.63c.78.17,1,.69,1.94,1.58l.18.17a7.87,7.87,0,0,0,3,2,5.38,5.38,0,0,0,4.25-.62,5.83,5.83,0,0,0,1.75-2.26,10.08,10.08,0,0,0,1-2.49,3.58,3.58,0,0,1,.89-1.63,3.44,3.44,0,0,1,2.62-1.25,2.86,2.86,0,0,1,1.75,1,2.79,2.79,0,0,1,.31.39c1.51,2.07.48,4.85,1.69,9.36.5,1.85,1,3.65,2.5,4.25a3,3,0,0,0,3.37-.75c.52-.83-.24-1.58-.12-3.12a6,6,0,0,1,1.88-3.63,4.69,4.69,0,0,1,1.94-1.17c.94-.3,1.87-.31,2.75-.55a5.57,5.57,0,0,1,2.55.59,7.31,7.31,0,0,1,2.76,2.76,9.39,9.39,0,0,1,.93,2.06,11.66,11.66,0,0,1,.51,4.67,7.45,7.45,0,0,1-.32,1.7,7.94,7.94,0,0,1-3.11,4l-.68.44h0a11.78,11.78,0,0,1-2.81,1.26h0a34.28,34.28,0,0,0,3.8,10.93A34.48,34.48,0,0,0,361.41,282.08Z" transform="translate(-22.65 -44.45)"/><path class="cls-26" d="M309,404.44s-.24-1.21-.65-3.32c-1-4.84-2.82-14.4-4.85-24.8-3.51-17.95-7.49-38.39-8-41.26-.94-5.25-5.62-4.12-5.62-4.12l-10.9-.15-22.32-.31h-.06c-.6,0-1.08,0-1.4,0H255L222.74,330l-13.33-.19-14.41-.2c-5.06.94-4.12,6.38-4.12,6.38s.8,4.05,2,10.18c.67,3.35,1.46,7.32,2.31,11.6,1.89,9.54,4.08,20.57,5.88,29.51,1.73,8.57,3.1,15.21,3.49,16.77,1.32,5.25,4.5,4.88,4.5,4.88s90,1.5,96,1.12S309,404.44,309,404.44ZM302.44,408c-3.38,0-91.32-1.88-91.32-1.88s-3.74.38-4.68-3.18c-.59-2.25-5.67-28.32-9.33-47.25l-2.18-11.3c-1-5.11-1.62-8.39-1.62-8.39s-1.87-3.56,1.88-4.12c.8-.12,5.52-.14,12.46-.1,3.86,0,8.41.07,13.35.13,28,.33,68.5,1.09,68.5,1.09a5.9,5.9,0,0,1,1.5,3l13.5,67.69S305.81,408,302.44,408Z" transform="translate(-22.65 -44.45)"/><path class="cls-27" d="M302.44,408c-3.38,0-91.32-1.88-91.32-1.88s-3.74.38-4.68-3.18c-.59-2.25-5.67-28.32-9.33-47.25l-2.18-11.3c-1-5.11-1.62-8.39-1.62-8.39s-1.87-3.56,1.88-4.12c.8-.12,5.52-.14,12.46-.1,3.86,0,8.41.07,13.35.13,28,.33,68.5,1.09,68.5,1.09a5.9,5.9,0,0,1,1.5,3l13.5,67.69S305.81,408,302.44,408Z" transform="translate(-22.65 -44.45)"/><path class="cls-18" d="M329.5,454.86c-.17,1.56-.41,3.2-.75,4.89a59.44,59.44,0,0,1-5.12,15l-.47.92c-.64,1.22-1.23,2.23-1.68,3l-.1.11a10,10,0,0,1-5,3.18,4,4,0,0,1-1.89-.42c-3.87-1.91-1.88-7.92-1-10.94a103.23,103.23,0,0,1,5-14.31c.57-1.26,1.16-2.48,1.75-3.64h0a85.64,85.64,0,0,1,5.29-9c1.74.53,3.17,1,4.2,1.36A58.26,58.26,0,0,1,329.5,454.86Z" transform="translate(-22.65 -44.45)"/><path class="cls-24" d="M347.12,257a5.85,5.85,0,0,1,1.26-6.75,5.76,5.76,0,0,1,5.74-1.13" transform="translate(-22.65 -44.45)"/><path class="cls-24" d="M351.25,253.62a3.71,3.71,0,0,0-1.87-1.74,3.63,3.63,0,0,0-2.12-.19" transform="translate(-22.65 -44.45)"/><path class="cls-24" d="M365.25,260.12a10,10,0,0,1,6,11.88" transform="translate(-22.65 -44.45)"/><path class="cls-24" d="M317.12,288.5A21,21,0,0,0,329,298.38" transform="translate(-22.65 -44.45)"/><path class="cls-24" d="M305.25,331c1.13,7.36,1.82,13.69,2.25,18.62.82,9.33.68,13-.25,17a37.47,37.47,0,0,1-3.75,9.7" transform="translate(-22.65 -44.45)"/><path class="cls-24" d="M332.75,355.62a23.52,23.52,0,0,0,13.75,0,22.94,22.94,0,0,0,8.12-4.5" transform="translate(-22.65 -44.45)"/><path class="cls-24" d="M339.12,365.25a33.63,33.63,0,0,0,15.38-10.13" transform="translate(-22.65 -44.45)"/><path class="cls-24" d="M374.62,327c3.58,6.65,4.24,11.83,4.26,15.12a69.56,69.56,0,0,1-.38,7.5c-.48,4.2-1.13,5.78-.75,8.88.28,2.28.54,4.33,2.13,5.75s4.17,1.62,7.12,1.75c2.44.11,3.56-.24,5.5.5a10.56,10.56,0,0,1,2.88,1.75,29.07,29.07,0,0,1,5.87,6.37" transform="translate(-22.65 -44.45)"/><path class="cls-24" d="M384.75,361a15.54,15.54,0,0,1,6.87-1.62,11.79,11.79,0,0,1,5.13.87c1.59.71,2.2,1.5,4.25,2.13a14.58,14.58,0,0,0,2.75.5,34.06,34.06,0,0,0,6.13.12" transform="translate(-22.65 -44.45)"/><path class="cls-24" d="M378.27,361.52c-1.46.14-4.76.61-7,2.48a16.73,16.73,0,0,0-2.5,2.5c-.68.92-.81,1.37-1.5,1.88s-1.39.48-2.75.87a8,8,0,0,0-3.75,2,5.59,5.59,0,0,0-1.37,3.5" transform="translate(-22.65 -44.45)"/><path class="cls-24" d="M350.88,377.5a13.84,13.84,0,0,1,6.5-2.75,14.24,14.24,0,0,1,4.37.13c6.92,1.35,10.75,8.75,11.25,9.74a21,21,0,0,1,1.5,14" transform="translate(-22.65 -44.45)"/><path class="cls-24" d="M362.12,403.38a18,18,0,0,0,4.13.65,17.79,17.79,0,0,0,5.87-.78,23.57,23.57,0,0,0,8.76,3.37,23.94,23.94,0,0,0,13.43-1.68" transform="translate(-22.65 -44.45)"/><path class="cls-24" d="M382.75,313.5a26.94,26.94,0,0,1,25.37-11.25" transform="translate(-22.65 -44.45)"/><path class="cls-21" d="M362.12,403.38a26.78,26.78,0,0,1-14.37-8.76l-6.13,5.76a4.55,4.55,0,0,1-2.81,1.56h0l-1.51,0h0a3.6,3.6,0,0,1-2-1.15,4.19,4.19,0,0,1,.1-5.19,11.22,11.22,0,0,1-.85.82c-.7.59-4.14,3.37-6.25,2.12-1.76-1-1.53-4.25-1.5-4.62a3.65,3.65,0,0,1-4.63,1.87,2.85,2.85,0,0,1-1.19-1.12,3.73,3.73,0,0,1-.55-1.88,42.19,42.19,0,0,1,1.29-9.51h0c.88-3.13,2.36-6,4.83-6.85a12.92,12.92,0,0,1,3.62-.38,37.39,37.39,0,0,1,9.38,1,42,42,0,0,0,11.38.5c1.09.46,9.73,4.27,12.12,13.62A20,20,0,0,1,362.12,403.38Z" transform="translate(-22.65 -44.45)"/><path class="cls-24" d="M326.75,393.88c1.28-6.36,5-11.18,9.63-12.13a9.28,9.28,0,0,1,4.12.13" transform="translate(-22.65 -44.45)"/><path class="cls-24" d="M335.35,395.56c.1-.12.19-.24.3-.35,1.52-1.85,1.65-3.59,4.35-5.83a12.2,12.2,0,0,1,3.25-2.13,12,12,0,0,1,7.87-.37" transform="translate(-22.65 -44.45)"/><path class="cls-24" d="M299.88,458.62a17.48,17.48,0,0,1,4.87-11.87" transform="translate(-22.65 -44.45)"/><path class="cls-24" d="M308.25,449a16.53,16.53,0,0,0-3.75,5.38,16.71,16.71,0,0,0-1.38,6.37" transform="translate(-22.65 -44.45)"/><path class="cls-19" d="M325.55,443.64a85.64,85.64,0,0,0-5.29,9h0s-8.06-2.61-12.94,6c-3.62,6.4.83,15.4,3.36,19.61a11.86,11.86,0,0,1-5.17-6.61,16.48,16.48,0,0,0-2.38-6.24,17.74,17.74,0,0,0-10-7.27A48.5,48.5,0,0,1,303.47,437a67.21,67.21,0,0,0,8,3c4.53,1.37,7,1.56,12.75,3.25Z" transform="translate(-22.65 -44.45)"/><path class="cls-24" d="M298.75,455.75a11.87,11.87,0,0,1,1.5-6.25,11.72,11.72,0,0,1,2.75-3.25" transform="translate(-22.65 -44.45)"/><path class="cls-24" d="M302.2,456.72a5.69,5.69,0,0,1,1.08-6,6,6,0,0,1,5-1.69" transform="translate(-22.65 -44.45)"/><path class="cls-15" d="M220.5,448" transform="translate(-22.65 -44.45)"/><path class="cls-24" d="M219.94,449.62l.37-4.91" transform="translate(-22.65 -44.45)"/><path class="cls-24" d="M315,258.12a25.36,25.36,0,0,1,1,5.76,26.37,26.37,0,0,1-.12,4.37,2.3,2.3,0,0,0,.74,1.13,2.59,2.59,0,0,0,2.26.37" transform="translate(-22.65 -44.45)"/><path d="M318.62,276.62a14.07,14.07,0,0,0,3-.13,8,8,0,0,0,2.46-.81,7.88,7.88,0,0,0,2.06-1.57,14.83,14.83,0,0,0,1.78-2.36,4.88,4.88,0,0,1-.48,3.25,5.62,5.62,0,0,1-2.43,2.44,5.69,5.69,0,0,1-3.4.62A5,5,0,0,1,318.62,276.62Z" transform="translate(-22.65 -44.45)"/><path d="M325.92,270.75a4,4,0,0,1,2.43.81,3.89,3.89,0,0,1,1.48,2.1c-.71-.52-1.29-1-1.93-1.49S326.62,271.27,325.92,270.75Z" transform="translate(-22.65 -44.45)"/><path d="M323.35,257.75a2.75,2.75,0,0,0,.55,1.51,2.54,2.54,0,0,0,1.09,1,2,2,0,0,0,2-.22c.93-.91.28-3.51-1.18-4.12a1.85,1.85,0,0,0-2,.26A2,2,0,0,0,323.35,257.75Z" transform="translate(-22.65 -44.45)"/><path d="M307,264.05a2.82,2.82,0,0,0,.39,1.55,2.51,2.51,0,0,0,1,1.14,2,2,0,0,0,2,0c1-.81.64-3.46-.74-4.22a1.9,1.9,0,0,0-2,.05A2.05,2.05,0,0,0,307,264.05Z" transform="translate(-22.65 -44.45)"/><path d="M320.72,252.1a4.88,4.88,0,0,1,2.06-1,7.44,7.44,0,0,1,2.39-.25,3.19,3.19,0,0,1,2.16.67,1,1,0,0,1,.19,1.05c-.32.8-1.69,1.12-2.72,1.37a27.22,27.22,0,0,1-3.23.42h0a5.25,5.25,0,0,1-1-.21,1.15,1.15,0,0,1-.59-.58C319.74,253,320.43,252.36,320.72,252.1Z" transform="translate(-22.65 -44.45)"/><path d="M303.24,258.91a4.73,4.73,0,0,1,2-1.27,6.74,6.74,0,0,1,2.36-.48,3,3,0,0,1,2.21.53,1.23,1.23,0,0,1,.29,1.14c-.24.91-1.56,1.38-2.57,1.74a22.82,22.82,0,0,1-3.18.76,5.44,5.44,0,0,1-1-.14,1.23,1.23,0,0,1-.64-.58C302.35,260,303,259.22,303.24,258.91Z" transform="translate(-22.65 -44.45)"/><path class="cls-28" d="M332.75,299.75a15.77,15.77,0,0,0-1,6.75c.26,3.31,1.49,4.61,1,6.5-.41,1.58-2,3.54-7.5,5" transform="translate(-22.65 -44.45)"/><path class="cls-28" d="M347,299.25a11.45,11.45,0,0,0-1.5,5.5,14.32,14.32,0,0,0,.75,4.25c.73,2.53,1.39,3.26,1.75,4.5.48,1.66.42,4.26-2.25,8.25" transform="translate(-22.65 -44.45)"/><path class="cls-29" d="M254,410.12c8.13,3.21,16.86,7,26,11.63s17.58,9.41,25.06,14.07" transform="translate(-22.65 -44.45)"/><path class="cls-29" d="M325.75,411.25a235.16,235.16,0,0,0-25.25,5.5c-6.17,1.71-11.92,3.57-17.25,5.5" transform="translate(-22.65 -44.45)"/></g><g id="Plant2"><path class="cls-24" d="M101.5,447a32,32,0,0,1,5.75,7c5,8.37,4.67,16.84,4.5,23.5-.23,8.76-.27,20.71.37,37" transform="translate(-22.65 -44.45)"/><path class="cls-24" d="M123,448a15.35,15.35,0,0,0-5.75,3.75c-6.62,7-3.44,18.43-2.5,32.25A126.57,126.57,0,0,1,113,514.75" transform="translate(-22.65 -44.45)"/><path class="cls-24" d="M144.5,464.5c-3.95-3.18-7-3.74-9.25-3.5-10.8,1.14-19.44,22.66-22.25,53.75" transform="translate(-22.65 -44.45)"/><path class="cls-24" d="M83.25,460.75a12.54,12.54,0,0,1,7.5-1.25c11.69,2,20,24.18,21.37,55" transform="translate(-22.65 -44.45)"/><path class="cls-24" d="M69.25,487.75c2.35-3.61,8.41-11.79,16.56-12.17,11.57-.54,25.59,14.7,27.19,39.17" transform="translate(-22.65 -44.45)"/><path class="cls-30" d="M80.41,495.16h63.71l.38,49.59a23.11,23.11,0,0,1-6,12.75,22.84,22.84,0,0,1-9.75,6.08H98.23a19.41,19.41,0,0,1-10.73-5.7,19.63,19.63,0,0,1-5.25-12.76Q81.34,520.15,80.41,495.16Z" transform="translate(-22.65 -44.45)"/><path class="cls-31" d="M105.5,451.19c.8-.54,6.53-4.54,6.56-10.69,0-5.91-5.23-9.66-8.25-11.81-8.78-6.26-19.06-5.1-22.69-4.5a30,30,0,0,0,2.82,24.56c2.71,5.79,8.44,9,13.68,8.06C102.37,456,105,452,105.5,451.19Z" transform="translate(-22.65 -44.45)"/><path class="cls-31" d="M119.19,449.5c-.46-.68-3.21-4.92-1.69-9.56,1.25-3.84,4.65-5.58,6.19-6.38,9.93-5.11,23.06,3.44,24.37,4.32a32.58,32.58,0,0,1-4.68,9.18,23.42,23.42,0,0,1-6,6.14c-.69.46-9.67,6.3-15,2.3C121.66,455,119.82,453.36,119.19,449.5Z" transform="translate(-22.65 -44.45)"/><path class="cls-31" d="M115.06,461.69c.45-.56,3.22-3.91,7-3.65,3,.21,4.91,2.57,5.94,3.84,6.6,8.12,2.2,25.64,1.5,28.31a30.77,30.77,0,0,1-16.12-5.81c-2.56-1.91-10.5-7.82-9.38-14.63a9.74,9.74,0,0,1,11.06-8.06Z" transform="translate(-22.65 -44.45)"/><path class="cls-31" d="M142.25,463.19a7.06,7.06,0,0,1,3-3.38,7.86,7.86,0,0,1,6.19-.19c7.24,2.45,9.09,14.72,9.37,16.88a32,32,0,0,1-2.06,15.94,28.26,28.26,0,0,1-12-2.06c-2-.84-12.81-5.31-13.87-14.26-.1-.82-.69-5.8,2.81-9.56A11.43,11.43,0,0,1,142.25,463.19Z" transform="translate(-22.65 -44.45)"/><path class="cls-31" d="M101.75,488.12c2.35-.32,7.84-.74,10.5,2.44,4.24,5.07-1.88,15.44-5.06,19.5-1.56,2-4,3.76-9,7.32-1.21.86-2.58,1.8-4.13,1.5-1.76-.35-2.79-2.12-3.56-3.57-3-5.62-4.47-8.44-4.88-12.93-.21-2.38-1.32-14.84,5.07-17.44C95.23,483.09,100.78,487.36,101.75,488.12Z" transform="translate(-22.65 -44.45)"/><path class="cls-31" d="M72.31,482.69c.71.06,4.82.47,6.94,3.75a9.07,9.07,0,0,1,.94,6.56c-1.32,8.63-10,13.62-11.44,14.44A27.86,27.86,0,0,1,54.31,511c-1.63-3.76-4.34-11.65-2.06-20.62.8-3.15,2.31-9.07,7.5-12,1.08-.61,5.35-3,9-.94A8.11,8.11,0,0,1,72.31,482.69Z" transform="translate(-22.65 -44.45)"/><path class="cls-31" d="M87.88,458.69a6.1,6.1,0,0,0-.94-4.13,6.78,6.78,0,0,0-4.69-2.44c-5.64-1-10.59,2.75-11.44,3.38-6.38,4.78-7.47,12.37-7.69,14.25a22.07,22.07,0,0,0,13.5,4.69c2,0,8.42-.11,12.19-4.69.82-1,2.86-3.46,2.25-6.56A7.37,7.37,0,0,0,87.88,458.69Z" transform="translate(-22.65 -44.45)"/><path class="cls-32" d="M70.38,484a62.37,62.37,0,0,0-4.62,5.3,52.31,52.31,0,0,0-3.88,5.8,55.1,55.1,0,0,0-3.09,6.26A61.87,61.87,0,0,0,56.5,508a34.54,34.54,0,0,1,.59-3.5c.28-1.15.61-2.29,1-3.42a36.2,36.2,0,0,1,7.1-12.27c.79-.88,1.61-1.74,2.47-2.55A32.86,32.86,0,0,1,70.38,484Z" transform="translate(-22.65 -44.45)"/><path class="cls-32" d="M86.5,459.38a34.61,34.61,0,0,0-5.41.82A27.77,27.77,0,0,0,76,461.92a28.69,28.69,0,0,0-4.72,2.63A35.61,35.61,0,0,0,67,468,20.85,20.85,0,0,1,86.5,459.38Z" transform="translate(-22.65 -44.45)"/><path class="cls-32" d="M101.12,490.38a53.78,53.78,0,0,0-2.61,5.68,44.46,44.46,0,0,0-1.8,5.93,45.18,45.18,0,0,0-1,6.13,54.32,54.32,0,0,0-.13,6.26,30,30,0,0,1-.51-3.13c-.09-1.05-.13-2.11-.13-3.17a29.81,29.81,0,0,1,.75-6.31,29.48,29.48,0,0,1,2.08-6c.46-1,1-1.89,1.5-2.8A25.93,25.93,0,0,1,101.12,490.38Z" transform="translate(-22.65 -44.45)"/><path class="cls-32" d="M116.12,463.75c.74.82,1.41,1.7,2.09,2.58s1.27,1.82,1.86,2.75a47.71,47.71,0,0,1,3.17,5.84,49.66,49.66,0,0,1,2.33,6.23c.31,1.06.6,2.13.85,3.21s.45,2.17.58,3.26c-.36-1-.67-2.09-1-3.13s-.71-2.07-1.1-3.1c-.79-2-1.61-4.07-2.52-6.05s-1.89-3.94-2.92-5.88S117.26,465.65,116.12,463.75Z" transform="translate(-22.65 -44.45)"/><path class="cls-32" d="M142.62,466a25.53,25.53,0,0,1,5.67,4.19,27.62,27.62,0,0,1,4.4,5.57,27.25,27.25,0,0,1,2.8,6.52,31.21,31.21,0,0,1,.76,3.45,26,26,0,0,1,.25,3.52c-.22-1.15-.42-2.3-.73-3.42a31.06,31.06,0,0,0-1-3.32,36.25,36.25,0,0,0-2.93-6.24,37.43,37.43,0,0,0-4.09-5.55,31.46,31.46,0,0,0-2.45-2.45C144.45,467.46,143.54,466.73,142.62,466Z" transform="translate(-22.65 -44.45)"/><path class="cls-32" d="M121,448.38a20,20,0,0,1,4.29-5.07,21.39,21.39,0,0,1,12.22-5.08,20.1,20.1,0,0,1,6.61.52,30,30,0,0,0-3.28-.05,24.85,24.85,0,0,0-3.24.29,26.63,26.63,0,0,0-11.83,4.92,22.58,22.58,0,0,0-2.49,2.09A30.19,30.19,0,0,0,121,448.38Z" transform="translate(-22.65 -44.45)"/><path class="cls-32" d="M104,450.25a40.14,40.14,0,0,0-3.19-7.32,35.09,35.09,0,0,0-4.65-6.41,36.14,36.14,0,0,0-5.94-5.24,33.54,33.54,0,0,0-3.38-2.11c-1.15-.67-2.37-1.23-3.59-1.79a27.71,27.71,0,0,1,7.39,3.26,29.32,29.32,0,0,1,10.84,11.93,30.52,30.52,0,0,1,1.55,3.75A28.53,28.53,0,0,1,104,450.25Z" transform="translate(-22.65 -44.45)"/></g><g id="plant3"><path class="cls-24" d="M490.15,479.08a23.39,23.39,0,0,1,4.19,5.11c3.69,6.1,3.41,12.28,3.28,17.14-.16,6.38-.2,15.1.28,27" transform="translate(-22.65 -44.45)"/><path class="cls-24" d="M505.83,479.81a11.32,11.32,0,0,0-4.2,2.74c-4.82,5.11-2.5,13.44-1.82,23.52a92,92,0,0,1-1.28,22.42" transform="translate(-22.65 -44.45)"/><path class="cls-24" d="M521.51,491.85c-2.88-2.33-5.12-2.73-6.75-2.56-7.88.84-14.18,16.53-16.23,39.2" transform="translate(-22.65 -44.45)"/><path class="cls-24" d="M476.84,489.11a9.13,9.13,0,0,1,5.47-.91c8.52,1.45,14.55,17.63,15.59,40.11" transform="translate(-22.65 -44.45)"/><path class="cls-24" d="M466.63,508.8c1.71-2.63,6.13-8.6,12.08-8.88,8.43-.39,18.66,10.73,19.82,28.57" transform="translate(-22.65 -44.45)"/><path class="cls-33" d="M474.76,514.2h46.47l.28,36.17A16.53,16.53,0,0,1,510,564.11H487.76a14,14,0,0,1-11.65-13.46Z" transform="translate(-22.65 -44.45)"/><path class="cls-31" d="M493.06,482.14c.59-.4,4.77-3.31,4.79-7.8,0-4.31-3.82-7-6-8.61-6.4-4.57-13.9-3.72-16.54-3.28a21.87,21.87,0,0,0,2,17.91c2,4.22,6.16,6.56,10,5.88A9,9,0,0,0,493.06,482.14Z" transform="translate(-22.65 -44.45)"/><path class="cls-31" d="M503.05,480.91c-.33-.5-2.34-3.59-1.23-7a8.38,8.38,0,0,1,4.51-4.65c7.24-3.73,16.82,2.51,17.78,3.15a24,24,0,0,1-3.42,6.7,17,17,0,0,1-4.38,4.47c-.5.34-7,4.6-10.94,1.68A6.4,6.4,0,0,1,503.05,480.91Z" transform="translate(-22.65 -44.45)"/><path class="cls-31" d="M500,489.79c.33-.4,2.35-2.85,5.1-2.66,2.18.16,3.58,1.88,4.33,2.8,4.82,5.93,1.61,18.7,1.1,20.65a22.4,22.4,0,0,1-11.76-4.24c-1.87-1.39-7.66-5.7-6.84-10.67a7.34,7.34,0,0,1,3.56-5.06A7.42,7.42,0,0,1,500,489.79Z" transform="translate(-22.65 -44.45)"/><path class="cls-31" d="M519.87,490.89a5.12,5.12,0,0,1,2.18-2.46,5.74,5.74,0,0,1,4.52-.14c5.28,1.78,6.63,10.73,6.83,12.31a23.34,23.34,0,0,1-1.5,11.62,20.56,20.56,0,0,1-8.75-1.5c-1.47-.61-9.35-3.87-10.12-10.4a8.87,8.87,0,0,1,2.05-7A8.27,8.27,0,0,1,519.87,490.89Z" transform="translate(-22.65 -44.45)"/><path class="cls-31" d="M490.33,509.08c1.71-.24,5.72-.55,7.66,1.77,3.09,3.7-1.37,11.26-3.69,14.22-1.14,1.45-2.95,2.75-6.57,5.34a4,4,0,0,1-3,1.09c-1.28-.25-2-1.54-2.6-2.6-2.17-4.1-3.26-6.15-3.55-9.43-.16-1.73-1-10.82,3.69-12.72C485.58,505.4,489.62,508.52,490.33,509.08Z" transform="translate(-22.65 -44.45)"/><path class="cls-31" d="M468.86,505.11a6.83,6.83,0,0,1,5.06,2.73,6.61,6.61,0,0,1,.68,4.79c-1,6.3-7.3,9.93-8.34,10.53a20.33,20.33,0,0,1-10.53,2.6,23.61,23.61,0,0,1-1.5-15c.58-2.3,1.68-6.61,5.47-8.76.79-.44,3.9-2.2,6.56-.68A6,6,0,0,1,468.86,505.11Z" transform="translate(-22.65 -44.45)"/><path class="cls-31" d="M480.21,487.61a4.4,4.4,0,0,0-.68-3,4.9,4.9,0,0,0-3.42-1.78c-4.11-.7-7.73,2-8.34,2.46-4.66,3.49-5.45,9-5.61,10.39a16,16,0,0,0,9.85,3.42c1.44,0,6.13-.08,8.88-3.42.6-.71,2.09-2.52,1.65-4.78A5.34,5.34,0,0,0,480.21,487.61Z" transform="translate(-22.65 -44.45)"/><path class="cls-32" d="M467.45,506.07a45.9,45.9,0,0,0-6.08,8.16,46.82,46.82,0,0,0-4,9.34,24.5,24.5,0,0,1,10.12-17.5Z" transform="translate(-22.65 -44.45)"/><path class="cls-32" d="M479.21,488.11a25.61,25.61,0,0,0-7.63,2,22,22,0,0,0-3.43,1.88A28.89,28.89,0,0,0,465,494.4a14.4,14.4,0,0,1,14.22-6.29Z" transform="translate(-22.65 -44.45)"/><path class="cls-32" d="M489.87,510.72a36.74,36.74,0,0,0-4,17.5,20.17,20.17,0,0,1,4-17.5Z" transform="translate(-22.65 -44.45)"/><path class="cls-32" d="M500.81,491.3a31.67,31.67,0,0,1,7.93,17.41c-1.09-3-2.2-6-3.52-8.9S502.39,494.12,500.81,491.3Z" transform="translate(-22.65 -44.45)"/><path class="cls-32" d="M520.14,492.94a18.89,18.89,0,0,1,10.12,17,29.91,29.91,0,0,0-3.52-9.4A29.46,29.46,0,0,0,520.14,492.94Z" transform="translate(-22.65 -44.45)"/><path class="cls-32" d="M504.37,480.09a15,15,0,0,1,16.86-7,24.17,24.17,0,0,0-4.75.28,20.19,20.19,0,0,0-8.57,3.56A24.64,24.64,0,0,0,504.37,480.09Z" transform="translate(-22.65 -44.45)"/><path class="cls-32" d="M492,481.45a32.55,32.55,0,0,0-2.43-5.29,25.73,25.73,0,0,0-3.39-4.63,29.53,29.53,0,0,0-9.31-6.76,20.29,20.29,0,0,1,10.05,6.09A20.09,20.09,0,0,1,492,481.45Z" transform="translate(-22.65 -44.45)"/></g><g id="social"><g id="talk_chat" data-name="talk chat"><path class="cls-5" d="M359,127.35H301.2a21.84,21.84,0,0,1-21.77-21.77h0A21.84,21.84,0,0,1,301.2,83.81H359a21.84,21.84,0,0,1,21.77,21.77h0A21.84,21.84,0,0,1,359,127.35Z" transform="translate(-22.65 -44.45)"/><path class="cls-5" d="M364.41,134a4.81,4.81,0,1,1-4.81-4.81A4.81,4.81,0,0,1,364.41,134Z" transform="translate(-22.65 -44.45)"/><path class="cls-16" d="M317.46,105a6.32,6.32,0,1,1-6.31-6.31A6.31,6.31,0,0,1,317.46,105Z" transform="translate(-22.65 -44.45)"/><path class="cls-16" d="M336.4,105a6.31,6.31,0,1,1-6.31-6.31A6.3,6.3,0,0,1,336.4,105Z" transform="translate(-22.65 -44.45)"/><path class="cls-16" d="M355.35,105A6.32,6.32,0,1,1,349,98.68,6.31,6.31,0,0,1,355.35,105Z" transform="translate(-22.65 -44.45)"/><path class="cls-34" d="M274.76,177.93h57.78a21.83,21.83,0,0,0,21.77-21.77h0a21.84,21.84,0,0,0-21.77-21.77H274.76A21.84,21.84,0,0,0,253,156.16h0A21.83,21.83,0,0,0,274.76,177.93Z" transform="translate(-22.65 -44.45)"/><path class="cls-34" d="M269.33,184.62a4.81,4.81,0,1,0,4.81-4.81A4.81,4.81,0,0,0,269.33,184.62Z" transform="translate(-22.65 -44.45)"/><path class="cls-16" d="M291,155.77a6.32,6.32,0,1,1-6.32-6.31A6.32,6.32,0,0,1,291,155.77Z" transform="translate(-22.65 -44.45)"/><path class="cls-16" d="M310,155.77a6.31,6.31,0,1,1-6.31-6.31A6.31,6.31,0,0,1,310,155.77Z" transform="translate(-22.65 -44.45)"/><path class="cls-16" d="M328.91,155.77a6.32,6.32,0,1,1-6.32-6.31A6.32,6.32,0,0,1,328.91,155.77Z" transform="translate(-22.65 -44.45)"/></g></g></svg>