<svg xmlns="http://www.w3.org/2000/svg" xmlns:xlink="http://www.w3.org/1999/xlink" viewBox="0 0 693.94 398.18"><defs><style>.cls-1{isolation:isolate;}.cls-2{fill:#dae8ef;}.cls-3{fill:#ccd9e2;}.cls-4{fill:#bcced8;}.cls-5{fill:#00ce97;}.cls-6{fill:#80f1c6;}.cls-7{fill:#00a07c;}.cls-8{fill:#17756a;}.cls-9{fill:#667ecc;}.cls-10{fill:#fff;}.cls-11{fill:#1d3f70;}.cls-12{fill:#a9bff7;}.cls-13,.cls-14{fill:#293753;}.cls-14{opacity:0.29;}.cls-14,.cls-16,.cls-17{mix-blend-mode:multiply;}.cls-15{fill:#7781fb;}.cls-17{fill:url(#Degradado_sin_nombre_23);}.cls-18{fill:url(#Degradado_sin_nombre_23-2);}.cls-19{fill:url(#Degradado_sin_nombre_23-3);}.cls-20{fill:#44292b;}.cls-21{fill:#fcbc3b;}.cls-22{fill:url(#Degradado_sin_nombre_14);}.cls-23{fill:url(#Degradado_sin_nombre_14-2);}.cls-24{fill:url(#Degradado_sin_nombre_14-3);}.cls-25{fill:#f5b9ab;}.cls-26,.cls-36,.cls-37{fill:none;}.cls-26,.cls-28,.cls-36{stroke:#000;}.cls-26{stroke-miterlimit:10;}.cls-27{fill:#282828;}.cls-28,.cls-36,.cls-37{stroke-linecap:round;stroke-linejoin:round;}.cls-29{fill:#00adb5;}.cls-30{fill:#c9dbf5;}.cls-31{fill:url(#linear-gradient);}.cls-32{fill:url(#linear-gradient-2);}.cls-33{fill:#18212e;}.cls-34{fill:#e4e3eb;}.cls-35{fill:#a5a4aa;}.cls-37{stroke:#fff;stroke-width:2px;}.cls-38{fill:#a5b7c6;}.cls-39{fill:url(#linear-gradient-3);}.cls-40{fill:#747ded;}.cls-41{fill:url(#linear-gradient-4);}.cls-42{fill:url(#linear-gradient-5);}.cls-43{fill:#95a8b5;}</style><linearGradient id="Degradado_sin_nombre_23" x1="220.34" y1="371.67" x2="220.34" y2="412.82" gradientUnits="userSpaceOnUse"><stop offset="0" stop-color="#7781fb" stop-opacity="0"/><stop offset="1" stop-color="#7781fb"/></linearGradient><linearGradient id="Degradado_sin_nombre_23-2" x1="216.26" y1="380.23" x2="216.26" y2="397.42" xlink:href="#Degradado_sin_nombre_23"/><linearGradient id="Degradado_sin_nombre_23-3" x1="226.07" y1="380.23" x2="226.07" y2="397.42" xlink:href="#Degradado_sin_nombre_23"/><linearGradient id="Degradado_sin_nombre_14" x1="271.53" y1="374.64" x2="271.53" y2="412.92" gradientUnits="userSpaceOnUse"><stop offset="0" stop-color="#fa6920" stop-opacity="0"/><stop offset="1" stop-color="#fa6920"/></linearGradient><linearGradient id="Degradado_sin_nombre_14-2" x1="268" y1="380.29" x2="268" y2="408.12" xlink:href="#Degradado_sin_nombre_14"/><linearGradient id="Degradado_sin_nombre_14-3" x1="278.89" y1="380.29" x2="278.89" y2="408.12" xlink:href="#Degradado_sin_nombre_14"/><linearGradient id="linear-gradient" x1="376.58" y1="577.64" x2="435.08" y2="605.77" gradientTransform="translate(64.41)" gradientUnits="userSpaceOnUse"><stop offset="0" stop-color="#afcaf1"/><stop offset="0.4" stop-color="#a8c5f0"/><stop offset="0.97" stop-color="#95b9ec"/><stop offset="1" stop-color="#94b8ec"/></linearGradient><linearGradient id="linear-gradient-2" x1="118.62" y1="608.11" x2="54.49" y2="540.61" gradientTransform="translate(64.41)" gradientUnits="userSpaceOnUse"><stop offset="0" stop-color="#94b8ec"/><stop offset="0.27" stop-color="#8fb3e7"/><stop offset="0.57" stop-color="#82a6da"/><stop offset="0.88" stop-color="#6c90c4"/><stop offset="1" stop-color="#6185b9"/></linearGradient><linearGradient id="linear-gradient-3" x1="571.34" y1="216.77" x2="508.32" y2="296.21" gradientTransform="matrix(0.78, -0.62, 0.62, 0.78, -65.74, 665.17)" gradientUnits="userSpaceOnUse"><stop offset="0" stop-color="#606bf1"/><stop offset="1" stop-color="#58479f"/></linearGradient><linearGradient id="linear-gradient-4" x1="685.39" y1="49.76" x2="622.37" y2="129.2" gradientTransform="matrix(0.45, -0.89, 0.89, 0.45, 84.66, 1078.66)" xlink:href="#linear-gradient-3"/><linearGradient id="linear-gradient-5" x1="643.87" y1="103.02" x2="565.89" y2="201.34" gradientTransform="translate(-3.21 907.02) rotate(-52.61)" xlink:href="#linear-gradient-3"/></defs><g class="cls-1"><g id="Background"><path class="cls-2" d="M642.88,485.92,617.65,663.06H-23.81L-42.76,527.93a33.65,33.65,0,0,1,20.39-35.69l56.93-23.63V412a33.55,33.55,0,0,1,28.72-33.22l13.46-2,22.62-76.46a33.54,33.54,0,0,1,32.19-24.06h231.3a33.53,33.53,0,0,1,33.48,31.14l110.13,11.63a33.6,33.6,0,0,1,30,31.43l4.45,76.4,77.83,22A33.59,33.59,0,0,1,642.88,485.92Z" transform="translate(50.72 -276.28)"/><path class="cls-3" d="M14.64,522.45l20,140.61H543.84l15-107.27a26.69,26.69,0,0,0-16.19-28.32L497.5,508.72v-45a26.62,26.62,0,0,0-22.79-26.37L464,435.84l-17.95-60.7a26.63,26.63,0,0,0-25.55-19.09H236.92a26.6,26.6,0,0,0-26.57,24.71L122.93,390a26.68,26.68,0,0,0-23.82,24.95l-3.53,60.65L33.8,493A26.68,26.68,0,0,0,14.64,522.45Z" transform="translate(50.72 -276.28)"/><path class="cls-4" d="M434.71,610.66a30.48,30.48,0,0,0-26.1-30.18l-12.22-1.79-20.55-69.46a30.48,30.48,0,0,0-29.24-21.86H136.47a30.45,30.45,0,0,0-30.41,28.29l-91,9.6,19.62,137.8H437l-2.3-1Z" transform="translate(50.72 -276.28)"/></g><g id="Layer_5" data-name="Layer 5"><path class="cls-5" d="M165.81,409.42c-6-.26-10.09,6.29-10.95,12.23s.07,12.26-2.24,17.81-7.62,9.55-10,15.13c-3.62,8.39.07,18.44-2.92,27.07-2.09,6-7.28,10.85-8.25,17.16-1.2,7.82,4.41,15.06,5.23,22.93,1.14,11-7.05,20.53-12.46,30.23-13.19,23.64-10.57,52.56-7.57,79.46,14.89-7.26,29.13-15.08,37.52-29.36s14.45-34.46,8.15-52.91c-2.61-7.64,10.07-14,11.58-22,1.29-6.78,2.58-13.76,1.29-20.55-1.57-8.23-6.87-16.14-5-24.31,1.57-7,8.18-12.41,8.54-19.59.35-6.7-4.85-12.36-6.36-18.9-1.47-6.34.64-12.9,1-19.4s-2.34-14.25-8.69-15.72" transform="translate(50.72 -276.28)"/><path class="cls-6" d="M142.69,613.64c7.68-66.06,16.53-132.08,23.05-198.27,0-.38-.55-.37-.6,0-8.83,65.92-15.37,132.21-23,198.27-.05.38.56.38.6,0Z" transform="translate(50.72 -276.28)"/><path class="cls-7" d="M88.44,340.46c-7.79,2.29-10.15,12.44-8.65,20.41s5.44,15.64,4.92,23.74-5.57,15.54-6.21,23.72c-1,12.31,8.13,23.53,8.08,35.88,0,8.61-4.56,17-3,25.52,1.87,10.52,12.21,17.33,16.69,27,6.29,13.62,0,29.31-2.72,44.08-6.53,36,9.46,71.79,25,104.86,15.86-15.78,30.64-32,35.12-53.91s3.42-50.36-12.69-71.19c-6.67-8.62,6.74-22.32,5.21-33.11-1.32-9.24-2.72-18.73-7.33-26.84C137.27,450.82,127,443,125.8,431.79c-1.06-9.65,5-19.44,2.35-28.77-2.48-8.71-11.6-13.68-16.39-21.37-4.64-7.47-4.81-16.77-7.26-25.22s-9.21-17.19-18-16.29" transform="translate(50.72 -276.28)"/><path class="cls-8" d="M18.68,444.59c-4.8,3.21-4.24,10.61-1.52,15.7s7,9.45,8.41,15.06-.46,11.74.85,17.43c2,8.56,10.54,14.23,13.15,22.63,1.81,5.85.54,12.54,3.38,18,3.52,6.74,12,9.15,17.1,14.78,7.18,7.91,6.23,19.91,7.57,30.5,3.24,25.81,21.74,46.71,39.38,65.83,7.4-14.1,14-28.26,12.33-44.09s-8.43-34.91-23.82-45.61c-6.36-4.43-.18-16.59-3.53-23.59-2.87-6-5.84-12.13-10.7-16.65-5.9-5.48-14.51-8.58-17.75-15.95-2.78-6.32-.74-14.26-4.54-20-3.55-5.38-10.8-6.81-15.69-11C38.56,463.49,36.45,457.21,33,452s-9.93-9.7-15.67-7.22" transform="translate(50.72 -276.28)"/><path class="cls-6" d="M23.68,444.82c16,32.61,31.87,65.3,47.9,97.91q11.79,24,23.61,48c7.73,15.64,15,31.27,18.37,48.49,0,.2.34.11.31-.09-2.57-16-9.59-31-16.64-45.43-8-16.53-16.17-33-24.28-49.49C56.64,511,40.14,477.92,23.83,444.73c0-.1-.2,0-.15.09Z" transform="translate(50.72 -276.28)"/><path class="cls-6" d="M137.1,613.8c-1.09-18.18-2.28-36.38-4.73-54.43a341.46,341.46,0,0,0-12.09-53.81C114.94,488,109,470.68,104.93,452.79c-4.26-18.93-4.59-37.79-5.38-57.08-.75-18.31-3.11-37.3-13.7-52.79-.22-.32-.75,0-.53.31,10,15.43,12.69,33.47,13.48,51.51.77,17.47.74,34.77,4.13,52,6.82,34.75,21.4,67.39,27.25,102.4,3.57,21.39,4.95,43.05,6.43,64.66,0,.31.51.32.49,0Z" transform="translate(50.72 -276.28)"/><path class="cls-8" d="M640,560c-3.05-4.71-10.24-4.28-15.23-1.71S615.43,565,610,566.21s-11.39-.63-16.94.56c-8.35,1.79-14,10-22.19,12.42-5.71,1.67-12.19.34-17.51,3-6.6,3.31-9.08,11.51-14.62,16.39-7.79,6.85-19.44,5.74-29.75,6.87-25.12,2.76-45.71,20.41-64.56,37.25,13.58,7.4,27.24,14,42.65,12.66s34-7.65,44.67-22.44c4.4-6.11,16.12.08,23-3.07,5.86-2.69,11.87-5.48,16.34-10.14,5.41-5.64,8.56-14,15.77-17,6.18-2.61,13.87-.51,19.53-4.11,5.28-3.36,6.78-10.39,10.93-15.07s10.17-6.49,15.28-9.78,9.58-9.49,7.26-15.11" transform="translate(50.72 -276.28)"/><path class="cls-5" d="M577.34,495.05c-4.5-2.84-10.51.39-13.78,4.58s-5.33,9.44-9.54,12.69-10,4-14.34,7.21c-6.47,4.85-8,14.18-14.14,19.5-4.25,3.71-10.35,5.13-13.86,9.55-4.36,5.47-3.23,13.5-6.06,19.9-4,9-14.42,12.66-22.84,17.73-20.51,12.36-31.2,35.71-40.71,57.68,14.62,1,29,1.21,41.7-6.06s26.23-20.11,29.49-37.05c1.36-7,13.89-6.34,18.53-11.76,4-4.65,8-9.44,10-15.22,2.41-7,1.81-15.4,6.8-20.87,4.29-4.7,11.73-5.94,15.16-11.29,3.21-5,1.71-11.63,3.42-17.3s6.16-9.63,9.25-14.48,4.46-12,.23-15.88" transform="translate(50.72 -276.28)"/><path class="cls-6" d="M451.35,644.11c43.45-45,84.59-93,121.19-143.75.27-.37-.34-.72-.62-.36-38,50-77.74,98.13-120.78,143.91-.12.13.08.34.21.2Z" transform="translate(50.72 -276.28)"/><path class="cls-7" d="M540.75,388c-7-1.35-13,5.68-15,12.57s-2,14.49-5.72,20.66-10.65,10-14.46,16.15c-5.73,9.3-3.1,21.81-8.13,31.5-3.5,6.77-10.47,11.57-12.7,18.86-2.77,9,2.62,18.56,2.22,28-.55,13.26-11.86,23.06-19.93,33.59C447.31,575,445.43,609.65,444.34,642c18.85-6,37-12.81,49.4-28.25s23-38.24,18.76-61.14c-1.77-9.48,14.32-14.84,17.47-24,2.69-7.8,5.42-15.83,5.07-24.07-.43-10-5.34-20.26-1.77-29.6,3.06-8,11.8-13.27,13.47-21.69,1.56-7.86-3.61-15.45-4.27-23.44-.64-7.74,3-15.14,4.47-22.77s-.31-17.25-7.56-20.07" transform="translate(50.72 -276.28)"/><path class="cls-8" d="M443.81,441.77c-5.08.59-7.62,6.64-7.53,11.75s1.71,10.27.53,15.24-5.1,9.05-6.37,14.06c-1.9,7.53,2.55,15.46,1.21,23.11-.94,5.34-4.64,10.09-4.6,15.51.05,6.73,5.74,12,7.49,18.54,2.46,9.12-3.13,18.18-6.36,27-7.87,21.62-1.75,45.54,4.41,67.71,11.51-8.11,22.4-16.6,27.51-29.72s7.46-30.87-.33-45.51c-3.22-6,6.55-13.13,6.74-20,.17-5.87.31-11.9-1.69-17.42-2.43-6.69-7.95-12.61-7.53-19.71.37-6.1,5.18-11.53,4.52-17.6-.62-5.67-5.75-9.72-7.9-15-2.09-5.12-1.21-10.91-1.83-16.41s-3.9-11.64-9.42-12" transform="translate(50.72 -276.28)"/><path class="cls-6" d="M456.73,644.74c31.2-5.11,59.76-18.71,87.39-33.54,14-7.55,27.93-15.41,42.1-22.75,15.87-8.21,32.22-15.18,48.66-22.15.29-.12.08-.62-.22-.51C603.74,577.28,575,593.63,546,609.31c-28.22,15.3-57.45,29.76-89.39,35.14-.19,0-.11.32.08.29Z" transform="translate(50.72 -276.28)"/><path class="cls-6" d="M449.58,637.64A311.71,311.71,0,0,0,495,547.33C505.73,513,507.27,476,522.91,443.25c7.91-16.57,17.7-32.61,20.5-51.05.07-.47-.64-.68-.73-.2C539.78,408.89,531.5,423.77,524,439a198.81,198.81,0,0,0-16.1,48c-3.55,17-6.22,34.2-10.88,51a310.36,310.36,0,0,1-18.58,49.84,318.88,318.88,0,0,1-29.34,49.61c-.22.3.27.58.48.29Z" transform="translate(50.72 -276.28)"/><g id="_5" data-name="5"><path class="cls-9" d="M295.85,333.17H190.24a5.6,5.6,0,0,1-5.6-5.6V310a5.6,5.6,0,0,1,5.6-5.6H295.85a5.6,5.6,0,0,1,5.6,5.6v17.53A5.6,5.6,0,0,1,295.85,333.17Z" transform="translate(50.72 -276.28)"/><rect class="cls-10" x="242.58" y="36.83" width="1.03" height="12.42"/><rect class="cls-10" x="244.39" y="38.27" width="6.1" height="3.52"/><rect class="cls-10" x="244.39" y="42.83" width="8.36" height="3.52"/><rect class="cls-10" x="288.35" y="36.83" width="1.03" height="12.42"/><rect class="cls-10" x="281.47" y="38.27" width="6.1" height="3.52"/><rect class="cls-10" x="279.21" y="42.83" width="8.36" height="3.52"/><rect class="cls-10" x="265.47" y="36.83" width="1.03" height="12.42"/><rect class="cls-10" x="262.27" y="38.27" width="7.42" height="3.52"/><rect class="cls-10" x="260.9" y="42.83" width="10.16" height="3.52"/><rect class="cls-10" x="313.93" y="42.53" width="12.45" height="1.03"/><rect class="cls-10" x="321.41" y="39.34" width="3.53" height="7.4"/><rect class="cls-10" x="316.84" y="37.98" width="3.53" height="10.13"/><rect class="cls-10" x="295.87" y="36.82" width="12.45" height="1.03"/><rect class="cls-10" x="302.62" y="38.61" width="3.53" height="7.4"/><rect class="cls-10" x="298.05" y="38.61" width="3.53" height="10.13"/><rect class="cls-10" x="331.99" y="48.23" width="12.45" height="1.03"/><rect class="cls-10" x="338.74" y="40.07" width="3.53" height="7.4"/><rect class="cls-10" x="334.16" y="37.34" width="3.53" height="10.13"/></g><g id="_6" data-name="6"><path class="cls-9" d="M112.65,406.2V314.14a7.62,7.62,0,0,1,7.62-7.62h44.24a7.62,7.62,0,0,1,7.62,7.62V406.2a7.62,7.62,0,0,1-7.62,7.62H120.27A7.62,7.62,0,0,1,112.65,406.2Z" transform="translate(50.72 -276.28)"/><path class="cls-10" d="M163.93,399.64,158,393.76a6,6,0,0,0,1.42-3.91,6.1,6.1,0,0,0-1.8-4.34,6.17,6.17,0,0,0-8.7,0,6.14,6.14,0,0,0,8.27,9.06l5.89,5.88Zm-14.16-6.26a5,5,0,0,1,0-7.06,5,5,0,0,1,7.07,0,5,5,0,0,1,0,7.06A5,5,0,0,1,149.77,393.38Z" transform="translate(50.72 -276.28)"/><path class="cls-10" d="M155.63,357.8a7.43,7.43,0,1,1,5.26-12.67h0a7.42,7.42,0,0,1-5.26,12.67Zm0-13.69a6.28,6.28,0,1,0,4.45,1.84h0A6.27,6.27,0,0,0,155.63,344.11Z" transform="translate(50.72 -276.28)"/><rect class="cls-10" x="147.88" y="370.7" width="15.49" height="1.15" transform="translate(-166.05 -57.91) rotate(-44.94)"/><path class="cls-10" d="M123.14,322.54l9.68,6.45-5.44-.48h-.1a1.16,1.16,0,0,0-1,.67l-2.28,5-.81-11.59Zm-1.31-2.25,1.29,18.4,4.16-9,9.92.88-15.37-10.24Z" transform="translate(50.72 -276.28)"/><polygon class="cls-10" points="198.67 44.01 199.95 62.41 204.11 53.37 214.04 54.25 198.67 44.01"/><polygon class="cls-10" points="173.86 88.86 173.86 91.77 175.01 91.77 175.01 90.01 179.67 90.01 179.67 99.98 177.92 99.98 177.92 101.13 182.56 101.13 182.56 99.98 180.81 99.98 180.81 90.01 185.47 90.01 185.47 91.77 186.62 91.77 186.62 88.86 173.86 88.86"/><rect class="cls-10" x="118.99" y="352.83" width="15.49" height="1.15" transform="translate(-161.87 -83.54) rotate(-44.94)"/><path class="cls-10" d="M130.73,345.6a2.78,2.78,0,0,0-2.79,2.78,2.78,2.78,0,0,0-2.79-2.78,2.78,2.78,0,0,0,2.79-2.78A2.78,2.78,0,0,0,130.73,345.6Z" transform="translate(50.72 -276.28)"/><path class="cls-10" d="M136.21,344a2.1,2.1,0,0,0-2.11,2.1A2.1,2.1,0,0,0,132,344a2.1,2.1,0,0,0,2.1-2.1A2.1,2.1,0,0,0,136.21,344Z" transform="translate(50.72 -276.28)"/><path class="cls-10" d="M137.79,349.19a2.1,2.1,0,0,0-2.11,2.09,2.1,2.1,0,0,0-2.1-2.09,2.1,2.1,0,0,0,2.1-2.1A2.1,2.1,0,0,0,137.79,349.19Z" transform="translate(50.72 -276.28)"/><path class="cls-10" d="M136.85,384.87a1.29,1.29,0,0,0-1.82,0l-1.44,1.43-.54-.53a1.28,1.28,0,0,0-1.81,0h0a1.26,1.26,0,0,0-.21,1.53l-9.09,9.05a2.38,2.38,0,0,0,0,3.37,2.42,2.42,0,0,0,1.69.7,2.38,2.38,0,0,0,1.68-.7l9.09-9.05a1.28,1.28,0,0,0,1.54-2l-.54-.53,1.44-1.44A1.27,1.27,0,0,0,136.85,384.87Zm-12.35,14a1.24,1.24,0,0,1-1.75,0,1.24,1.24,0,0,1,0-1.75l9.05-9,1.75,1.74Z" transform="translate(50.72 -276.28)"/></g><g id="_8" data-name="8"><path class="cls-9" d="M212.78,495H118.24a7,7,0,0,1-7-7v-34.1a7,7,0,0,1,7-7h94.54a7,7,0,0,1,7,7V488A7,7,0,0,1,212.78,495Z" transform="translate(50.72 -276.28)"/><rect class="cls-11" x="170.94" y="185.83" width="11.84" height="11.81"/><rect class="cls-11" x="176.86" y="191.74" width="11.84" height="11.81"/><rect class="cls-11" x="195.22" y="185.83" width="11.84" height="11.81"/><rect class="cls-12" x="201.14" y="191.74" width="11.84" height="11.81"/><polygon class="cls-12" points="231.33 185.84 231.33 191.74 225.41 191.74 225.41 197.64 219.49 197.64 219.49 185.84 231.33 185.84"/><rect class="cls-11" x="225.41" y="191.74" width="5.92" height="5.9"/><polygon class="cls-12" points="237.25 191.74 237.25 203.55 225.41 203.55 225.41 197.64 231.33 197.64 231.33 191.74 237.25 191.74"/><polygon class="cls-11" points="255.61 185.84 255.61 191.74 249.69 191.74 249.69 197.64 243.77 197.64 243.77 185.84 255.61 185.84"/><rect class="cls-12" x="249.69" y="191.74" width="5.92" height="5.9"/><polygon class="cls-11" points="261.52 191.74 261.52 203.55 249.69 203.55 249.69 197.64 255.61 197.64 255.61 191.74 261.52 191.74"/></g><rect class="cls-13" x="257.16" y="96.09" width="27.8" height="27.8"/><rect class="cls-14" x="257.16" y="96.09" width="27.8" height="27.8"/><path class="cls-15" d="M234.68,400.61H206V371.93h28.68Zm-27.8-.88H233.8V372.81H206.88Z" transform="translate(50.72 -276.28)"/><g class="cls-16"><path class="cls-17" d="M234.68,400.61H206V371.93h28.68Zm-27.8-.88H233.8V372.81H206.88Z" transform="translate(50.72 -276.28)"/></g><path class="cls-15" d="M221.18,384.08c0,.34-.08.64-.12.91a2.6,2.6,0,0,1-.27.75,5.17,5.17,0,0,1-.53.74c-.22.25-.5.54-.84.86a5.19,5.19,0,0,1-2.95,1.45l-1,.33-1.42.41.08,1.84c0,.27.07.53.09.8s0,.56,0,.88v.74a2.8,2.8,0,0,1-.1.73,1.16,1.16,0,0,1-.37.57,1.19,1.19,0,0,1-.78.23,1.32,1.32,0,0,1-.8-.2,1,1,0,0,1-.34-.55,4,4,0,0,1-.1-.84,7.64,7.64,0,0,0-.1-1v0c0-.25,0-.54,0-.88s0-.68-.06-1.13-.05-1-.09-1.57V389c0-.12,0-.27,0-.46s0-.38,0-.59,0-.39,0-.56,0-.27,0-.32,0-.32,0-.61,0-.61,0-.95,0-.67,0-1,0-.56,0-.73a6.81,6.81,0,0,0,0-.82c0-.24-.06-.47-.1-.68,0,0,0-.16,0-.37s0-.44,0-.7.05-.51.09-.76a2.93,2.93,0,0,1,.14-.64,4.14,4.14,0,0,1,1.84-.37h.23a8.07,8.07,0,0,1,2.27-.37,20.85,20.85,0,0,1,2.24.34l1.25.68a5.1,5.1,0,0,1,.84.64,2.48,2.48,0,0,1,.52.78,4,4,0,0,1,.29,1.07A10.51,10.51,0,0,1,221.18,384.08Zm-2.66.4a7.28,7.28,0,0,0,.08-1,2,2,0,0,0-.62-1.41,2.81,2.81,0,0,0-2-.63,6.92,6.92,0,0,0-2,.45c0,.36.06.79.08,1.29s0,1.09,0,1.75a2.51,2.51,0,0,0,0,.57v.61c0,.23,0,.5,0,.8a2.91,2.91,0,0,0,.58-.11l.61-.18.68-.27A3.33,3.33,0,0,0,218.52,384.48Z" transform="translate(50.72 -276.28)"/><path class="cls-15" d="M231,390.46a3.41,3.41,0,0,1-.58,1.61c-.34.48-.67,1-1,1.46a2.69,2.69,0,0,1-.9.44c-.38.12-.77.22-1.15.3l-1,.17-.36.06a3.82,3.82,0,0,1-.72-.1l-.85-.2c-.28-.07-.51-.14-.69-.2l-.24-.1a2.47,2.47,0,0,1-.65-.19,4.33,4.33,0,0,1-.75-.36,4.67,4.67,0,0,1-.63-.46.67.67,0,0,1-.27-.47,1.09,1.09,0,0,1,.12-.47,1.65,1.65,0,0,1,.31-.45,1.81,1.81,0,0,1,.41-.34.8.8,0,0,1,.44-.13l2,.74a7,7,0,0,0,1.06.24,7.37,7.37,0,0,0,1,.07,2.05,2.05,0,0,0,.87-.18,1.81,1.81,0,0,0,.58-.44l.42-.85a1.1,1.1,0,0,0-.41-.8,3.19,3.19,0,0,0-.88-.48c-.35-.13-.72-.26-1.12-.37a5,5,0,0,1-1.11-.45l-1.22-.77a4,4,0,0,1-.62-2.36,2.64,2.64,0,0,1,.85-1.59l.37-.27,1.05-.69.72-.06,1.69-.17a10.42,10.42,0,0,1,2.36.68,1.42,1.42,0,0,1,.37,1,1.51,1.51,0,0,1-.24.87.81.81,0,0,1-.7.36,2.62,2.62,0,0,1-1.06-.25,2.92,2.92,0,0,0-1.1-.24,6.4,6.4,0,0,0-1.29.13c-.39.09-.58.28-.58.58a.73.73,0,0,0,.57.8C228.93,387.19,230.57,388.5,231,390.46Z" transform="translate(50.72 -276.28)"/><g class="cls-16"><path class="cls-18" d="M221.18,384.08c0,.34-.08.64-.12.91a2.6,2.6,0,0,1-.27.75,5.17,5.17,0,0,1-.53.74c-.22.25-.5.54-.84.86a5.19,5.19,0,0,1-2.95,1.45l-1,.33-1.42.41.08,1.84c0,.27.07.53.09.8s0,.56,0,.88v.74a2.8,2.8,0,0,1-.1.73,1.16,1.16,0,0,1-.37.57,1.19,1.19,0,0,1-.78.23,1.32,1.32,0,0,1-.8-.2,1,1,0,0,1-.34-.55,4,4,0,0,1-.1-.84,7.64,7.64,0,0,0-.1-1v0c0-.25,0-.54,0-.88s0-.68-.06-1.13-.05-1-.09-1.57V389c0-.12,0-.27,0-.46s0-.38,0-.59,0-.39,0-.56,0-.27,0-.32,0-.32,0-.61,0-.61,0-.95,0-.67,0-1,0-.56,0-.73a6.81,6.81,0,0,0,0-.82c0-.24-.06-.47-.1-.68,0,0,0-.16,0-.37s0-.44,0-.7.05-.51.09-.76a2.93,2.93,0,0,1,.14-.64,4.14,4.14,0,0,1,1.84-.37h.23a8.07,8.07,0,0,1,2.27-.37,20.85,20.85,0,0,1,2.24.34l1.25.68a5.1,5.1,0,0,1,.84.64,2.48,2.48,0,0,1,.52.78,4,4,0,0,1,.29,1.07A10.51,10.51,0,0,1,221.18,384.08Zm-2.66.4a7.28,7.28,0,0,0,.08-1,2,2,0,0,0-.62-1.41,2.81,2.81,0,0,0-2-.63,6.92,6.92,0,0,0-2,.45c0,.36.06.79.08,1.29s0,1.09,0,1.75a2.51,2.51,0,0,0,0,.57v.61c0,.23,0,.5,0,.8a2.91,2.91,0,0,0,.58-.11l.61-.18.68-.27A3.33,3.33,0,0,0,218.52,384.48Z" transform="translate(50.72 -276.28)"/><path class="cls-19" d="M231,390.46a3.41,3.41,0,0,1-.58,1.61c-.34.48-.67,1-1,1.46a2.69,2.69,0,0,1-.9.44c-.38.12-.77.22-1.15.3l-1,.17-.36.06a3.82,3.82,0,0,1-.72-.1l-.85-.2c-.28-.07-.51-.14-.69-.2l-.24-.1a2.47,2.47,0,0,1-.65-.19,4.33,4.33,0,0,1-.75-.36,4.67,4.67,0,0,1-.63-.46.67.67,0,0,1-.27-.47,1.09,1.09,0,0,1,.12-.47,1.65,1.65,0,0,1,.31-.45,1.81,1.81,0,0,1,.41-.34.8.8,0,0,1,.44-.13l2,.74a7,7,0,0,0,1.06.24,7.37,7.37,0,0,0,1,.07,2.05,2.05,0,0,0,.87-.18,1.81,1.81,0,0,0,.58-.44l.42-.85a1.1,1.1,0,0,0-.41-.8,3.19,3.19,0,0,0-.88-.48c-.35-.13-.72-.26-1.12-.37a5,5,0,0,1-1.11-.45l-1.22-.77a4,4,0,0,1-.62-2.36,2.64,2.64,0,0,1,.85-1.59l.37-.27,1.05-.69.72-.06,1.69-.17a10.42,10.42,0,0,1,2.36.68,1.42,1.42,0,0,1,.37,1,1.51,1.51,0,0,1-.24.87.81.81,0,0,1-.7.36,2.62,2.62,0,0,1-1.06-.25,2.92,2.92,0,0,0-1.1-.24,6.4,6.4,0,0,0-1.29.13c-.39.09-.58.28-.58.58a.73.73,0,0,0,.57.8C228.93,387.19,230.57,388.5,231,390.46Z" transform="translate(50.72 -276.28)"/></g><rect class="cls-20" x="308.35" y="97.97" width="27.8" height="27.8"/><path class="cls-21" d="M285.87,402.49H257.19V373.81h28.68Zm-27.8-.88H285V374.69H258.07Z" transform="translate(50.72 -276.28)"/><g class="cls-16"><path class="cls-22" d="M285.87,402.49H257.19V373.81h28.68Zm-27.8-.88H285V374.69H258.07Z" transform="translate(50.72 -276.28)"/></g><path class="cls-21" d="M274.27,395.86q-.12.54-1,.54a1.52,1.52,0,0,1-1.11-.34c-.09-.32-.23-.71-.4-1.18l-.59-1.6a11.37,11.37,0,0,0-.33-1.56,1.66,1.66,0,0,0-.38-.68c-.29,0-.69,0-1.22.1s-1.09.1-1.68.17-1.13.15-1.64.25a4.87,4.87,0,0,0-1.11.33c-.1.47-.21,1-.34,1.56s-.29,1.17-.48,1.82a.67.67,0,0,1-.4.41,2.18,2.18,0,0,1-.77.12,1.87,1.87,0,0,1-.78-.15.5.5,0,0,1-.32-.47,22.63,22.63,0,0,1,.68-3.38,1.4,1.4,0,0,1,0-.34,5.09,5.09,0,0,1,.1-.92c.06-.37.13-.72.21-1.07l.21-.88a3.35,3.35,0,0,0,.1-.39l.91-2.53a5.34,5.34,0,0,1,.3-1c.16-.42.33-.84.52-1.28l.54-1.23a6.18,6.18,0,0,0,.34-.9,1.26,1.26,0,0,1,1.37-.94,1.1,1.1,0,0,1,1.16.69l.62,1.1c.19.32.4.68.62,1.07s.42.75.61,1.1.35.67.48.94a2.65,2.65,0,0,1,.22.55c.16.36.35.78.57,1.24s.5,1,.83,1.55a4.19,4.19,0,0,1,.52,1c.16.4.31.81.44,1.23s.25.8.34,1.14a2.82,2.82,0,0,0,.26.68,2.51,2.51,0,0,0,.12.61c.09.27.18.56.26.86s.17.59.24.85a2.38,2.38,0,0,1,.12.57A1.48,1.48,0,0,1,274.27,395.86Zm-5-7.15c-.15-.46-.29-.84-.41-1.17a10.11,10.11,0,0,0-.43-1c-.16-.32-.34-.69-.55-1.09s-.47-.94-.79-1.58a9,9,0,0,0-.94,2.75,9.26,9.26,0,0,0-.85,2.47,5.3,5.3,0,0,1,1.42-.25.94.94,0,0,1,.28,0,4.87,4.87,0,0,1,1.16-.12A5.61,5.61,0,0,0,269.3,388.71Z" transform="translate(50.72 -276.28)"/><path class="cls-21" d="M280,387v.68a1,1,0,0,1-.05.31l-.23,1.28v.25a4.54,4.54,0,0,1,0,.46c0,.19,0,.38-.07.56s-.05.37-.07.54a3.88,3.88,0,0,0,0,.43,1.55,1.55,0,0,0,0,.23,1.18,1.18,0,0,1,0,.22,2.89,2.89,0,0,1-.06.56,3.37,3.37,0,0,0-.06.66,2.94,2.94,0,0,0,.09.71c-.21.86-.64,1.28-1.31,1.28-.92,0-1.39-.87-1.39-2.61a17,17,0,0,1,.09-1.75c0-.57.12-1.11.2-1.6s.15-.92.24-1.29.15-.66.21-.87a1.37,1.37,0,0,1,1.19-.62A1.62,1.62,0,0,1,280,387Zm.91-4.74a1.64,1.64,0,0,1,.06.42,2.28,2.28,0,0,1-.54,1.54,4.73,4.73,0,0,1-1.71.34,3.78,3.78,0,0,1-.89-.78,1.39,1.39,0,0,1-.35-.87,5.69,5.69,0,0,1,.85-1.82q.36.06.78.09a3,3,0,0,1,.76.14,1.89,1.89,0,0,1,.63.33A1.25,1.25,0,0,1,280.91,382.24Z" transform="translate(50.72 -276.28)"/><g class="cls-16"><path class="cls-23" d="M274.27,395.86q-.12.54-1,.54a1.52,1.52,0,0,1-1.11-.34c-.09-.32-.23-.71-.4-1.18l-.59-1.6a11.37,11.37,0,0,0-.33-1.56,1.66,1.66,0,0,0-.38-.68c-.29,0-.69,0-1.22.1s-1.09.1-1.68.17-1.13.15-1.64.25a4.87,4.87,0,0,0-1.11.33c-.1.47-.21,1-.34,1.56s-.29,1.17-.48,1.82a.67.67,0,0,1-.4.41,2.18,2.18,0,0,1-.77.12,1.87,1.87,0,0,1-.78-.15.5.5,0,0,1-.32-.47,22.63,22.63,0,0,1,.68-3.38,1.4,1.4,0,0,1,0-.34,5.09,5.09,0,0,1,.1-.92c.06-.37.13-.72.21-1.07l.21-.88a3.35,3.35,0,0,0,.1-.39l.91-2.53a5.34,5.34,0,0,1,.3-1c.16-.42.33-.84.52-1.28l.54-1.23a6.18,6.18,0,0,0,.34-.9,1.26,1.26,0,0,1,1.37-.94,1.1,1.1,0,0,1,1.16.69l.62,1.1c.19.32.4.68.62,1.07s.42.75.61,1.1.35.67.48.94a2.65,2.65,0,0,1,.22.55c.16.36.35.78.57,1.24s.5,1,.83,1.55a4.19,4.19,0,0,1,.52,1c.16.4.31.81.44,1.23s.25.8.34,1.14a2.82,2.82,0,0,0,.26.68,2.51,2.51,0,0,0,.12.61c.09.27.18.56.26.86s.17.59.24.85a2.38,2.38,0,0,1,.12.57A1.48,1.48,0,0,1,274.27,395.86Zm-5-7.15c-.15-.46-.29-.84-.41-1.17a10.11,10.11,0,0,0-.43-1c-.16-.32-.34-.69-.55-1.09s-.47-.94-.79-1.58a9,9,0,0,0-.94,2.75,9.26,9.26,0,0,0-.85,2.47,5.3,5.3,0,0,1,1.42-.25.94.94,0,0,1,.28,0,4.87,4.87,0,0,1,1.16-.12A5.61,5.61,0,0,0,269.3,388.71Z" transform="translate(50.72 -276.28)"/><path class="cls-24" d="M280,387v.68a1,1,0,0,1-.05.31l-.23,1.28v.25a4.54,4.54,0,0,1,0,.46c0,.19,0,.38-.07.56s-.05.37-.07.54a3.88,3.88,0,0,0,0,.43,1.55,1.55,0,0,0,0,.23,1.18,1.18,0,0,1,0,.22,2.89,2.89,0,0,1-.06.56,3.37,3.37,0,0,0-.06.66,2.94,2.94,0,0,0,.09.71c-.21.86-.64,1.28-1.31,1.28-.92,0-1.39-.87-1.39-2.61a17,17,0,0,1,.09-1.75c0-.57.12-1.11.2-1.6s.15-.92.24-1.29.15-.66.21-.87a1.37,1.37,0,0,1,1.19-.62A1.62,1.62,0,0,1,280,387Zm.91-4.74a1.64,1.64,0,0,1,.06.42,2.28,2.28,0,0,1-.54,1.54,4.73,4.73,0,0,1-1.71.34,3.78,3.78,0,0,1-.89-.78,1.39,1.39,0,0,1-.35-.87,5.69,5.69,0,0,1,.85-1.82q.36.06.78.09a3,3,0,0,1,.76.14,1.89,1.89,0,0,1,.63.33A1.25,1.25,0,0,1,280.91,382.24Z" transform="translate(50.72 -276.28)"/></g></g><g id="colours"><path class="cls-25" d="M397.9,373.69a29.53,29.53,0,0,1-6.48-15.63,9.51,9.51,0,0,0,4.43-2.11,9,9,0,0,0,2.36-3.11,8.52,8.52,0,0,0,.51-1.44,9.37,9.37,0,0,0-2-8.49,10,10,0,0,0-3.64-2.59,5.31,5.31,0,0,0-2.64-.32c-3.41.53-6.52,5-6.25,11a5.88,5.88,0,0,1-2.28-1.12c-1.54-1.23-2-2.92-2.53-5.24a24.89,24.89,0,0,1-.66-7c-.26-2.37-2.07-3.93-3.56-3.84-1.7.1-3.55,2.38-2.91,5.16a5.42,5.42,0,0,1-4,4.87,5.37,5.37,0,0,1-5.25-1.69c-.37-2.39-2.41-3.82-3.94-3.56s-3.23,2.67-2.34,5.25a4.32,4.32,0,0,1-7.69,3.47c-2.17-2.8-3.74-2-4.5-1.69-1.63.62-.61,3.73-2.28,6.94a9.51,9.51,0,0,1-1.35,1.93c1,1.67,1.83,3.25,2.53,4.71a54.19,54.19,0,0,1,2.13,5.08c1,2.72,1.39,4.51,2.11,6.36a19,19,0,0,0,1.46,3,27.29,27.29,0,0,0,6,7.16,12.21,12.21,0,0,0,2,1.28c2.83,1.4,6.45,1.41,10.31.18A34.17,34.17,0,0,0,381.13,373a21,21,0,0,1-4.48,11.14,20.28,20.28,0,0,1-5.89,4.93c3.24,3,7.6,3.24,9.36,3.32,9.15.41,17.48-6.41,22.42-14.33A27.9,27.9,0,0,1,397.9,373.69Zm-52.34-16.45c-.39.1-1.25.33-1.5,0s.4-1.31.52-1.47c.38-.49.88-.89,3.13-1.85s2.59-.9,2.86-.76a1.41,1.41,0,0,1,.57,1.77c-.4.7-1.42.2-3.17,1.07A10.43,10.43,0,0,1,345.56,357.24Zm5.67,5.76c-.9.32-2-.4-2.43-1.62a2.1,2.1,0,0,1,.84-2.79c.9-.33,2,.39,2.42,1.61A2.12,2.12,0,0,1,351.23,363Zm17.45-6.64c-.91.33-2-.4-2.43-1.61a2.12,2.12,0,0,1,.84-2.8c.9-.32,2,.4,2.42,1.62S369.58,356,368.68,356.36Zm.17-7.63a10.34,10.34,0,0,1-2.65.59c-1.91.46-2.36,1.49-3.12,1.22a1.41,1.41,0,0,1-.7-1.73c.11-.28.36-.53,2.68-1.25s3-.73,3.59-.6c.19.05,1.3.3,1.34.79S369.21,348.56,368.85,348.73Z" transform="translate(50.72 -276.28)"/><path class="cls-26" d="M384.18,351" transform="translate(50.72 -276.28)"/><path class="cls-26" d="M391.41,358.06a9.88,9.88,0,0,1-2.67.13" transform="translate(50.72 -276.28)"/><path class="cls-26" d="M393.06,340.32" transform="translate(50.72 -276.28)"/><path class="cls-27" d="M393.71,325.1c-.74-2.65-1.74-3.56-2.25-3.94-2.74-2.07-5.67.28-7.82-1.45s.13-5.31-2.49-10a10.22,10.22,0,0,0-4.69-4.5c-1.52-.65-3.41-.57-7.13-.38s-5.49.29-6.74.94c-3.32,1.73-2.94,4.54-5.26,5.06-2.55.59-3.62-2.71-8.62-4.5-1.46-.52-5.84-2.08-9.38,0-3.24,1.91-4.3,6-4.5,6.76-.79,3.07.2,4.3-.93,5.43-1.57,1.57-3.92-.32-8.07.94-1.26.39-3.91,1.19-4.87,3.37-.34.79-.17,2.54.19,6a18,18,0,0,0,.56,3.76c.73,1.76,1.64,1.83,3.75,4.37,1.72,2.07,2.62,3.15,2.5,4.5-.13,1.51-1.38,1.76-2.5,3.75a9,9,0,0,0-1,6c.74,3.53,4.4,6.44,8.25,6.75a10,10,0,0,0,8.15-3.57,9.51,9.51,0,0,0,1.35-1.93c1.67-3.21.65-6.32,2.28-6.94.76-.29,2.33-1.11,4.5,1.69a4.32,4.32,0,0,0,7.69-3.47c-.89-2.58.67-5,2.34-5.25s3.57,1.17,3.94,3.56a5.37,5.37,0,0,0,5.25,1.69,5.42,5.42,0,0,0,4-4.87c-.64-2.78,1.21-5.06,2.91-5.16,1.49-.09,3.3,1.47,3.56,3.84a24.89,24.89,0,0,0,.66,7c.56,2.32,1,4,2.53,5.24a5.88,5.88,0,0,0,2.28,1.12c-.27-6,2.84-10.43,6.25-11a5.31,5.31,0,0,1,2.64.32C394.07,336.43,395.16,330.26,393.71,325.1Zm-33.19,5.24c-3,1.11-5.12-1.9-8.9-1.12a8.09,8.09,0,0,0-4.13,2.44,5.15,5.15,0,0,1-6.75.94,4.93,4.93,0,0,1-1.78-5.54c.48-1.16,1.35-1.23,2.63-2.9a10.71,10.71,0,0,0,1.68-3.28,3.15,3.15,0,0,1,2.53-2.07,3.38,3.38,0,0,1,3.29,3.38,5.18,5.18,0,0,0,2.34,2.62,5.51,5.51,0,0,0,5.72-.56c3.22-1,6-.28,6.56,1.13S362.67,329.54,360.52,330.34Z" transform="translate(50.72 -276.28)"/><path class="cls-26" d="M384.18,351" transform="translate(50.72 -276.28)"/><path class="cls-10" d="M360.52,330.34c-3,1.11-5.12-1.9-8.9-1.12a8.09,8.09,0,0,0-4.13,2.44,5.15,5.15,0,0,1-6.75.94,4.93,4.93,0,0,1-1.78-5.54c.48-1.16,1.35-1.23,2.63-2.9a10.71,10.71,0,0,0,1.68-3.28,3.15,3.15,0,0,1,2.53-2.07,3.38,3.38,0,0,1,3.29,3.38,5.18,5.18,0,0,0,2.34,2.62,5.51,5.51,0,0,0,5.72-.56c3.22-1,6-.28,6.56,1.13S362.67,329.54,360.52,330.34Z" transform="translate(50.72 -276.28)"/><path class="cls-26" d="M381.13,373" transform="translate(50.72 -276.28)"/><path class="cls-26" d="M340.86,354.41" transform="translate(50.72 -276.28)"/><path class="cls-25" d="M347.63,370.55a6.19,6.19,0,0,1-4.24-11.44,54.19,54.19,0,0,1,2.13,5.08C346.51,366.91,346.91,368.7,347.63,370.55Z" transform="translate(50.72 -276.28)"/><path class="cls-26" d="M347.62,370.55" transform="translate(50.72 -276.28)"/><path class="cls-26" d="M343.39,359.11" transform="translate(50.72 -276.28)"/><path class="cls-26" d="M370.76,389.09" transform="translate(50.72 -276.28)"/><path class="cls-26" d="M381.13,373" transform="translate(50.72 -276.28)"/><path class="cls-26" d="M367.36,382.18" transform="translate(50.72 -276.28)"/><path class="cls-26" d="M395.85,356" transform="translate(50.72 -276.28)"/><path class="cls-26" d="M391.41,358.06" transform="translate(50.72 -276.28)"/><path class="cls-26" d="M402.54,378.08" transform="translate(50.72 -276.28)"/><path class="cls-26" d="M388.68,347.57a6.2,6.2,0,0,0-.51,6" transform="translate(50.72 -276.28)"/><path class="cls-26" d="M388.68,347.57a5.64,5.64,0,0,1,1.09-1.2,6,6,0,0,1,5.91-.74" transform="translate(50.72 -276.28)"/><path class="cls-26" d="M388.68,347.57" transform="translate(50.72 -276.28)"/><path class="cls-26" d="M392.86,349.94a5.63,5.63,0,0,0-4.18-2.37" transform="translate(50.72 -276.28)"/><path class="cls-26" d="M360.14,373.38a8.47,8.47,0,0,0,9.85-5.72" transform="translate(50.72 -276.28)"/><path class="cls-26" d="M356.68,354.72a17.05,17.05,0,0,1,.93,4,17.31,17.31,0,0,1-.37,5.81,4.2,4.2,0,0,0,1.5.85,4.4,4.4,0,0,0,2.34.09" transform="translate(50.72 -276.28)"/><path class="cls-28" d="M368.68,356.36c-.91.33-2-.4-2.43-1.61a2.12,2.12,0,0,1,.84-2.8c.9-.32,2,.4,2.42,1.62S369.58,356,368.68,356.36Z" transform="translate(50.72 -276.28)"/><path class="cls-28" d="M351.23,363c-.9.32-2-.4-2.43-1.62a2.1,2.1,0,0,1,.84-2.79c.9-.33,2,.39,2.42,1.61A2.12,2.12,0,0,1,351.23,363Z" transform="translate(50.72 -276.28)"/><path class="cls-28" d="M370,347.75c0,.43-.78.81-1.14,1a10.34,10.34,0,0,1-2.65.59c-1.91.46-2.36,1.49-3.12,1.22a1.41,1.41,0,0,1-.7-1.73c.11-.28.36-.53,2.68-1.25s3-.73,3.59-.6C368.84,347,370,347.26,370,347.75Z" transform="translate(50.72 -276.28)"/><path class="cls-28" d="M351.14,354.91c-.4.7-1.42.2-3.17,1.07a10.43,10.43,0,0,1-2.41,1.26c-.39.1-1.25.33-1.5,0s.4-1.31.52-1.47c.38-.49.88-.89,3.13-1.85s2.59-.9,2.86-.76A1.41,1.41,0,0,1,351.14,354.91Z" transform="translate(50.72 -276.28)"/><path class="cls-26" d="M391.93,395.41a17,17,0,0,0,8.62-3.75c1.78-1.52,1.6-2.11,3.94-4.78a30.18,30.18,0,0,1,9.75-8c3.92-1.87,5.35-1.11,7.22-3.19a7.7,7.7,0,0,0,1.08-1.59" transform="translate(50.72 -276.28)"/><path class="cls-26" d="M398.71,351.4" transform="translate(50.72 -276.28)"/><path class="cls-26" d="M411.8,367.85a9.52,9.52,0,0,0-5.06-11.54" transform="translate(50.72 -276.28)"/><path class="cls-26" d="M358.87,384.86a15,15,0,0,0,11.55,9.66" transform="translate(50.72 -276.28)"/><path class="cls-26" d="M355.06,380.72" transform="translate(50.72 -276.28)"/><path class="cls-26" d="M325.87,427.66" transform="translate(50.72 -276.28)"/><path class="cls-26" d="M341.78,479.29" transform="translate(50.72 -276.28)"/><path class="cls-26" d="M345.64,474.43c7.54-13.88,1.67-40.67.25-46.77" transform="translate(50.72 -276.28)"/><path class="cls-26" d="M396.14,447.16a22.38,22.38,0,0,1-21.93,5.25" transform="translate(50.72 -276.28)"/><path class="cls-26" d="M395.39,451.47a25,25,0,0,1-15.18,10.31" transform="translate(50.72 -276.28)"/><path class="cls-26" d="M424.46,409.85a25.82,25.82,0,0,1,25.87-11.07" transform="translate(50.72 -276.28)"/><path class="cls-27" d="M406,370.84a34.07,34.07,0,0,1-3.45,7.24,27.9,27.9,0,0,1-4.64-4.39,29.53,29.53,0,0,1-6.48-15.63,9.51,9.51,0,0,0,4.43-2.11c4.8.07,8.67,1.73,10.42,4.68C408.19,363.85,407,367.7,406,370.84Z" transform="translate(50.72 -276.28)"/><path class="cls-27" d="M381.13,373a21,21,0,0,1-4.48,11.14,20.28,20.28,0,0,1-5.89,4.93,9.2,9.2,0,0,1-.86-.9,11.64,11.64,0,0,1-2.54-6A34.17,34.17,0,0,0,381.13,373Z" transform="translate(50.72 -276.28)"/><path class="cls-29" d="M470.21,464A37.27,37.27,0,0,1,473,477.68a28.78,28.78,0,0,1-2,11.66c-3.27,7.67-10.24,11.4-12.75,12.57-10.79,5-20.88.88-22.5.19a10.16,10.16,0,0,1-7.46,3.28,9.92,9.92,0,0,1-8.95-5.59,24.14,24.14,0,0,0,3.37-2.56,36.34,36.34,0,0,0-17-27.09c-1.23.05-2.54.13-3.94.27l-1,.1a102.39,102.39,0,0,0-10.1,2c-13.51,2.59-17.42-3.05-23.16.82a12.72,12.72,0,0,0-4.84,7,21.91,21.91,0,0,0-5.19,4.2c-.55.62-4.9,5.45-3.56,7.5.85,1.31,3.62.87,4.31.75a9,9,0,0,0,4-1.76,2.17,2.17,0,0,0,1.1,1.38c1.39.56,3.35-1.27,4.51-2.44-.4,1.89-.34,3.48.56,4.32,1.29,1.21,4.35.91,6.37-.19a4.06,4.06,0,0,0,.41-.25c-.47,1.06-.88,1.68-.59,2.32s1.3,1.15,2.64,1.34l-27.41-.21c-.56-3.08-2.24-12.26-4.18-22.8-3.05-16.58-6.75-36.5-7.81-41.33-1.87-8.63-8-7.94-8-7.94h-2.43a20.82,20.82,0,0,0,1.51-3.6c1.58-5.13-.1-7,.84-12.37,1.09-6.22,4.52-10.53,7.78-14.63a51.31,51.31,0,0,1,9.38-8.9,51.87,51.87,0,0,1,8.13-4.94,12.21,12.21,0,0,0,2,1.28c2.83,1.4,6.45,1.41,10.31.18a11.64,11.64,0,0,0,2.54,6,9.2,9.2,0,0,0,.86.9c3.24,3,7.6,3.24,9.36,3.32,9.15.41,17.48-6.41,22.42-14.33a34.07,34.07,0,0,0,3.45-7.24c1.05-3.14,2.2-7,.28-10.21-1.75-2.95-5.62-4.61-10.42-4.68a9,9,0,0,0,2.36-3.11,8.52,8.52,0,0,0,.51-1.44,32.23,32.23,0,0,1,13.93,3.23c2.64,1.29,6.28,3.14,8.81,7.21a13,13,0,0,1,2.25,7.32,11.26,11.26,0,0,1-1.17,5,98.93,98.93,0,0,1,10.55,4.21c6.16,2.9,9.35,4.4,12.74,7.69,6.05,5.87,8.18,13,9.38,17.07,2.14,7.21,1,9.29,2.91,14.62.09.25.17.49.28.75a33.36,33.36,0,0,0,9,12.56,10.9,10.9,0,0,1,5.62,7.69,10.77,10.77,0,0,1-2.62,8.62,17.7,17.7,0,0,0-1.85,4.82,16.44,16.44,0,0,0-.4,3.06A18.88,18.88,0,0,0,470.21,464Z" transform="translate(50.72 -276.28)"/><path class="cls-26" d="M422.54,374.13" transform="translate(50.72 -276.28)"/><path class="cls-26" d="M419.29,499.79" transform="translate(50.72 -276.28)"/><path class="cls-26" d="M443,471c-2.29-6.09-5.1-8.13-7.31-8.81-2.58-.8-4,.34-8.25-.56-2.52-.54-5.34-1.14-7.13-3.38a6.92,6.92,0,0,1-.77-1.22" transform="translate(50.72 -276.28)"/><path class="cls-26" d="M419.56,457c-1.25-2.56-.82-5.77-.35-9.28.64-4.79,1.8-6,2.25-8.81.56-3.5-.16-8.65-6-15.75" transform="translate(50.72 -276.28)"/><path class="cls-26" d="M426,457.28c4.35-2.53,7.41-2.52,9.37-2.06,3.23.76,4.35,2.91,8.06,3.94a14.46,14.46,0,0,0,7.88-.19" transform="translate(50.72 -276.28)"/><path class="cls-26" d="M419.56,457" transform="translate(50.72 -276.28)"/><path class="cls-26" d="M400.81,470.51" transform="translate(50.72 -276.28)"/><path class="cls-26" d="M419.56,457a12.3,12.3,0,0,0-6.54,2.35,12.49,12.49,0,0,0-4.31,5.81,5.62,5.62,0,0,0-6.57,1.31,5.51,5.51,0,0,0-1.33,4" transform="translate(50.72 -276.28)"/><path class="cls-26" d="M405.71,470.14" transform="translate(50.72 -276.28)"/><path class="cls-26" d="M422.67,497.23" transform="translate(50.72 -276.28)"/><path class="cls-26" d="M367.84,489.9l.18-.18c4.55-4.59,4-8.25,7.5-10.5a9.37,9.37,0,0,1,5.62-1.31" transform="translate(50.72 -276.28)"/><path class="cls-26" d="M405.71,470.14" transform="translate(50.72 -276.28)"/><path class="cls-26" d="M362.23,491" transform="translate(50.72 -276.28)"/><path class="cls-26" d="M362.7,480.27" transform="translate(50.72 -276.28)"/><path class="cls-26" d="M375.18,493.78c1.27-.83,1.77-1.93,3.53-4.25,2-2.62,3.8-5,5.81-6.18,1.47-.87,4.69-2.05,10.87.37" transform="translate(50.72 -276.28)"/><path class="cls-26" d="M367.84,489.9" transform="translate(50.72 -276.28)"/><path class="cls-26" d="M375.18,493.78" transform="translate(50.72 -276.28)"/><path class="cls-26" d="M390.52,489.91a13.93,13.93,0,0,1-2.64,3.86" transform="translate(50.72 -276.28)"/><path class="cls-26" d="M422.67,497.23" transform="translate(50.72 -276.28)"/><path class="cls-26" d="M387.88,493.77" transform="translate(50.72 -276.28)"/><path class="cls-30" d="M429.24,663H411.33l-.47-21.45-.24-11.06L409,558.32l-.71-31.85s1.13-7.5-9.37-8.25c-2.54-.18-20.07-.25-45.19-.26-17.12,0-37.78,0-59.61.07l-42.2.11-5.35,0h-3.56l-6.88,0h-3.08l-6.88,0-9.43,0h-.07c-51.84.16-94.5.35-94.5.35s-8.25-.76-7.88,8.62,0,133.88,0,133.88l-12-.38V528s-3.74-20.42,19.88-22.59H397.37s.7,0,1.87.1c6,.47,24.55,3.3,26.91,20.24C429,546,429.24,663,429.24,663Z" transform="translate(50.72 -276.28)"/><path class="cls-26" d="M243.05,518.17l-6.88,0" transform="translate(50.72 -276.28)"/><path class="cls-31" d="M497.21,660.72l-68,2.25s-.28-117-3.09-137.25c-2.36-16.94-20.9-19.77-26.91-20.24a1,1,0,0,0,0-.1h80.31a25,25,0,0,1,10.64,7.34,22.35,22.35,0,0,1,5.1,11.88C497.21,539.6,497.21,660.72,497.21,660.72Z" transform="translate(50.72 -276.28)"/><path class="cls-26" d="M252,518.14l-5.35,0" transform="translate(50.72 -276.28)"/><path class="cls-26" d="M233.09,518.2l-6.88,0" transform="translate(50.72 -276.28)"/><path class="cls-32" d="M210,526.84V661.1H114.32s.39-124.5,0-133.88,7.88-8.62,7.88-8.62,42.66-.19,94.5-.35C208.37,518.27,210,526.84,210,526.84Z" transform="translate(50.72 -276.28)"/><path class="cls-27" d="M353.77,518c-7.07,4.1-13.76,11.88-15.94,26.51-.67,4.56-1.31,9.3-1.9,14.11l-7.84.52C325.83,583.47,312,631.84,312,631.84l-2.61-.34-35.7-4.74-4.06-.54s4.5-51.38,7.87-79.5c1.9-15.85,10-24.32,16.7-28.69C316,518,336.65,518,353.77,518Z" transform="translate(50.72 -276.28)"/><path class="cls-26" d="M294.16,518" transform="translate(50.72 -276.28)"/><path class="cls-26" d="M335.92,558.58" transform="translate(50.72 -276.28)"/><path class="cls-26" d="M353.77,518" transform="translate(50.72 -276.28)"/><path class="cls-26" d="M409,558.32" transform="translate(50.72 -276.28)"/><path class="cls-10" d="M369.78,659.78H302.14a22.21,22.21,0,0,1-.85-6.56h68.94A30.54,30.54,0,0,1,369.78,659.78Z" transform="translate(50.72 -276.28)"/><path class="cls-29" d="M310.14,642.06l-2.68,1.22s-5.9,1.94-6.17,9.94H265.38a18,18,0,0,0-10.84-13.83c2.23-1,4.22-2,6-3s3.19-1.79,4.52-2.63c1.71-1.08,3.15-2.1,4.36-3a28.75,28.75,0,0,0,4.23-4l35.7,4.74C309.61,635,309.88,638.54,310.14,642.06Z" transform="translate(50.72 -276.28)"/><path class="cls-26" d="M369.78,659.78" transform="translate(50.72 -276.28)"/><path class="cls-10" d="M302.14,659.78H243.33c-2.32-2.37-3.34-4.57-3.51-6.56h61.47A22.21,22.21,0,0,0,302.14,659.78Z" transform="translate(50.72 -276.28)"/><path class="cls-10" d="M265.38,653.22H239.82c-.62-7.15,9.7-11.62,9.7-11.62,1.8-.75,3.46-1.49,5-2.21A18,18,0,0,1,265.38,653.22Z" transform="translate(50.72 -276.28)"/><path class="cls-26" d="M273.64,626.76" transform="translate(50.72 -276.28)"/><path class="cls-26" d="M370.23,653.22" transform="translate(50.72 -276.28)"/><path class="cls-26" d="M239.81,653.22" transform="translate(50.72 -276.28)"/><path class="cls-26" d="M302.13,659.78" transform="translate(50.72 -276.28)"/><path class="cls-26" d="M334.49,626.91" transform="translate(50.72 -276.28)"/><path class="cls-26" d="M265.38,653.22" transform="translate(50.72 -276.28)"/><path class="cls-26" d="M254.54,639.39" transform="translate(50.72 -276.28)"/><path class="cls-26" d="M270.89,642.44a20.71,20.71,0,0,0-5.71-4.31,21.22,21.22,0,0,0-4.64-1.72" transform="translate(50.72 -276.28)"/><path class="cls-26" d="M260.54,636.41" transform="translate(50.72 -276.28)"/><path class="cls-26" d="M265.06,633.78" transform="translate(50.72 -276.28)"/><path class="cls-26" d="M269.41,630.74" transform="translate(50.72 -276.28)"/><path class="cls-26" d="M275.68,639.25a22.28,22.28,0,0,0-6.1-4,21.84,21.84,0,0,0-4.52-1.44" transform="translate(50.72 -276.28)"/><path class="cls-26" d="M269.41,630.74a18,18,0,0,1,6.27,2.14,18.24,18.24,0,0,1,4.78,3.93" transform="translate(50.72 -276.28)"/><path class="cls-26" d="M309.34,631.5" transform="translate(50.72 -276.28)"/><path class="cls-26" d="M310.14,642.06" transform="translate(50.72 -276.28)"/><path class="cls-26" d="M316,639.22" transform="translate(50.72 -276.28)"/><path class="cls-26" d="M325.5,653.22" transform="translate(50.72 -276.28)"/><path class="cls-26" d="M321.78,636.15" transform="translate(50.72 -276.28)"/><path class="cls-26" d="M331.83,642.16a21.21,21.21,0,0,0-5-3.94,20.76,20.76,0,0,0-5.08-2.07" transform="translate(50.72 -276.28)"/><path class="cls-26" d="M326.61,633.24" transform="translate(50.72 -276.28)"/><path class="cls-26" d="M336.71,639.72a18.49,18.49,0,0,0-10.1-6.48" transform="translate(50.72 -276.28)"/><path class="cls-26" d="M330,630.9" transform="translate(50.72 -276.28)"/><path class="cls-26" d="M341.68,636.91a16.84,16.84,0,0,0-5.63-4.41,16.63,16.63,0,0,0-6.06-1.6" transform="translate(50.72 -276.28)"/><path class="cls-26" d="M369.78,659.78" transform="translate(50.72 -276.28)"/><path class="cls-26" d="M365.3,631.5" transform="translate(50.72 -276.28)"/><path class="cls-10" d="M325.51,653.22H301.29c.27-8,6.17-9.94,6.17-9.94l2.68-1.22c2.13-1,4.07-1.93,5.87-2.84a16.58,16.58,0,0,1,7.76,7.34A16.26,16.26,0,0,1,325.51,653.22Z" transform="translate(50.72 -276.28)"/><path class="cls-27" d="M409,558.32c-6.56-.65-15.45-1.48-18.52-1.48-5.06,0-3.52,3.38-3.52,3.38-2.95,36.38-19.4,71.62-19.4,71.62l-2.29-.34-30.81-4.59-4.65-.69s2.07-35.25,6.08-67.64c.59-4.81,1.23-9.55,1.9-14.11,2.18-14.63,8.87-22.41,15.94-26.51,25.12,0,42.65.08,45.19.26,10.5.75,9.37,8.25,9.37,8.25Z" transform="translate(50.72 -276.28)"/><path class="cls-29" d="M370.23,653.22H325.51a16.26,16.26,0,0,0-1.74-6.66,16.58,16.58,0,0,0-7.76-7.34c2.14-1.08,4.06-2.1,5.78-3.07s3.42-2,4.82-2.91,2.4-1.61,3.38-2.34a31.34,31.34,0,0,0,4.51-4l30.81,4.59c.16,1.44.4,3,.75,4.78.31,1.55.7,3.2,1.21,4.94.28.94.53,1.7.76,2.37a47.74,47.74,0,0,1,1.49,4.57A25.87,25.87,0,0,1,370.23,653.22Z" transform="translate(50.72 -276.28)"/><path class="cls-33" d="M410.62,630.46l-44.56,5.82a13.66,13.66,0,0,1,4.21-1.25Z" transform="translate(50.72 -276.28)"/><path class="cls-26" d="M410.62,630.46" transform="translate(50.72 -276.28)"/><path class="cls-26" d="M366.06,636.28" transform="translate(50.72 -276.28)"/><path class="cls-26" d="M410.86,641.53" transform="translate(50.72 -276.28)"/><path class="cls-33" d="M410.86,641.52l-39.46,1a12.26,12.26,0,0,0-3.37,1.06c-.23-.67-.48-1.43-.76-2.37-.51-1.74-.9-3.39-1.21-4.94l44.56-5.82Z" transform="translate(50.72 -276.28)"/><path class="cls-26" d="M368,643.59h0" transform="translate(50.72 -276.28)"/><path class="cls-26" d="M490.23,512.72" transform="translate(50.72 -276.28)"/><path class="cls-26" d="M458.11,417.72" transform="translate(50.72 -276.28)"/><path class="cls-34" d="M506.21,428.72q-8,42-16,84a25,25,0,0,0-10.64-7.34H476q2.71-13.67,5.44-27.35,2.6-13,5.18-26l-18,.15a17.7,17.7,0,0,1,1.85-4.82,10.77,10.77,0,0,0,2.62-8.62A10.9,10.9,0,0,0,467.4,431a33.36,33.36,0,0,1-9-12.56c-.11-.26-.19-.5-.28-.75h37.09c4.49-1.56,9.14.11,11,3.5S506.42,428.26,506.21,428.72Z" transform="translate(50.72 -276.28)"/><path class="cls-26" d="M476,505.38" transform="translate(50.72 -276.28)"/><path class="cls-26" d="M494.71,423.22a6.26,6.26,0,0,0-4,3.5,6.06,6.06,0,0,0,0,4.5L486.57,452" transform="translate(50.72 -276.28)"/><path class="cls-26" d="M486.57,452" transform="translate(50.72 -276.28)"/><path class="cls-26" d="M468.55,452.16" transform="translate(50.72 -276.28)"/><path class="cls-26" d="M481.4,478" transform="translate(50.72 -276.28)"/><path class="cls-34" d="M486.58,452q-2.59,13-5.18,26l-8.41-.35A37.27,37.27,0,0,0,470.21,464a18.88,18.88,0,0,1-2.06-8.81,16.44,16.44,0,0,1,.4-3.06Z" transform="translate(50.72 -276.28)"/><path class="cls-34" d="M481.4,478q-2.72,13.68-5.44,27.35H428.25a10.16,10.16,0,0,0,7.46-3.28c1.62.69,11.71,4.84,22.5-.19,2.51-1.17,9.48-4.9,12.75-12.57a28.78,28.78,0,0,0,2-11.66Z" transform="translate(50.72 -276.28)"/><path class="cls-26" d="M473,477.68" transform="translate(50.72 -276.28)"/><path class="cls-35" d="M346.7,504.87a8.58,8.58,0,0,1-3.07.51H252c-5.62,0-6-7-6-7s-11.25-55.87-13.13-64.87a12.33,12.33,0,0,1-.15-5.81h93.2a9.3,9.3,0,0,1,7.45,7.68q4.23,22,8.45,44Z" transform="translate(50.72 -276.28)"/><path class="cls-26" d="M232.67,427.66" transform="translate(50.72 -276.28)"/><path class="cls-26" d="M346.8,505.38" transform="translate(50.72 -276.28)"/><path class="cls-26" d="M349.82,497.23" transform="translate(50.72 -276.28)"/><path class="cls-26" d="M399.52,501.35" transform="translate(50.72 -276.28)"/><path class="cls-26" d="M391.63,497.55" transform="translate(50.72 -276.28)"/><path class="cls-26" d="M399.24,505.48" transform="translate(50.72 -276.28)"/><path class="cls-27" d="M346.7,504.87l-4.92-25.58q-4.21-22-8.45-44a9.3,9.3,0,0,0-7.45-7.68h-93.2c.8-2.83,3.15-2.5,3.15-2.5h94s6.11-.69,8,7.94c1.06,4.83,4.76,24.75,7.81,41.33,1.94,10.54,3.62,19.72,4.18,22.8l.2,1.11S350.89,503.25,346.7,504.87Z" transform="translate(50.72 -276.28)"/><path class="cls-35" d="M399.28,505.38H346.8c0-.17-.07-.34-.1-.51,4.19-1.62,3.32-6.53,3.32-6.53l-.2-1.11,27.41.21a11.6,11.6,0,0,0,2.71,0l11.7.09a19.47,19.47,0,0,0,2.26,1.55,23.54,23.54,0,0,0,5.62,2.24A9,9,0,0,1,399.28,505.38Z" transform="translate(50.72 -276.28)"/><path class="cls-25" d="M361.83,489a9.71,9.71,0,0,0,.4,2,9,9,0,0,1-4,1.76c-.69.12-3.46.56-4.31-.75-1.34-2.05,3-6.88,3.56-7.5a21.91,21.91,0,0,1,5.19-4.2A23.1,23.1,0,0,0,361.83,489Z" transform="translate(50.72 -276.28)"/><path class="cls-29" d="M391.64,497.55l-11.7-.09a14,14,0,0,0,5.15-1.55,11.81,11.81,0,0,0,2.79-2.14A21.25,21.25,0,0,0,391.64,497.55Z" transform="translate(50.72 -276.28)"/><path class="cls-29" d="M399.28,505.38a9,9,0,0,0,.24-4c2.33.68,7.13,2.08,12.19,1.32a20.09,20.09,0,0,0,7.59-2.87,9.92,9.92,0,0,0,8.95,5.59Z" transform="translate(50.72 -276.28)"/><path class="cls-25" d="M422.67,497.23a24.14,24.14,0,0,1-3.37,2.56,20.09,20.09,0,0,1-7.59,2.87c-5.06.76-9.86-.64-12.19-1.32a23.54,23.54,0,0,1-5.62-2.24,19.47,19.47,0,0,1-2.26-1.55,21.25,21.25,0,0,1-3.76-3.78,11.81,11.81,0,0,1-2.79,2.14,14,14,0,0,1-5.15,1.55l-2.71,0c-1.34-.19-2.34-.65-2.64-1.34s.12-1.26.59-2.32a4.06,4.06,0,0,1-.41.25c-2,1.1-5.08,1.4-6.37.19-.9-.84-1-2.43-.56-4.32-1.16,1.17-3.12,3-4.51,2.44a2.17,2.17,0,0,1-1.1-1.38,9.71,9.71,0,0,1-.4-2,23.1,23.1,0,0,1,.88-8.7,12.72,12.72,0,0,1,4.84-7c5.74-3.87,9.65,1.77,23.16-.82a102.39,102.39,0,0,1,10.1-2l1-.1c1.4-.14,2.71-.22,3.94-.27a36.34,36.34,0,0,1,17,27.09Z" transform="translate(50.72 -276.28)"/></g><g id="Outline"><path class="cls-36" d="M398.71,351.4a9.34,9.34,0,0,0-2-8.49,10.14,10.14,0,0,0-3.65-2.59" transform="translate(50.72 -276.28)"/><path class="cls-36" d="M393.06,340.32a5.27,5.27,0,0,0-2.63-.32c-3.42.53-6.52,5-6.25,11a6,6,0,0,1-2.29-1.11c-1.53-1.24-2-2.92-2.53-5.25a25.33,25.33,0,0,1-.65-7c-.26-2.37-2.08-3.93-3.57-3.84-1.69.1-3.54,2.38-2.9,5.16a5.44,5.44,0,0,1-4,4.87,5.37,5.37,0,0,1-5.25-1.69c-.38-2.39-2.41-3.82-3.94-3.56s-3.23,2.67-2.34,5.25a4.32,4.32,0,0,1-7.69,3.47c-2.17-2.8-3.74-2-4.5-1.69-1.63.62-.62,3.73-2.28,6.94a10.3,10.3,0,0,1-1.35,1.94" transform="translate(50.72 -276.28)"/><path class="cls-36" d="M395.85,356a9,9,0,0,0,2.36-3.1,8.89,8.89,0,0,0,.5-1.45" transform="translate(50.72 -276.28)"/><path class="cls-36" d="M391.41,358.06a9.5,9.5,0,0,0,4.44-2.11" transform="translate(50.72 -276.28)"/><path class="cls-36" d="M384.18,351" transform="translate(50.72 -276.28)"/><path class="cls-36" d="M391.41,358.06a9.88,9.88,0,0,1-2.67.13" transform="translate(50.72 -276.28)"/><path class="cls-36" d="M393.06,340.32" transform="translate(50.72 -276.28)"/><path class="cls-36" d="M393.06,340.32c1-3.89,2.1-10.06.65-15.22-.75-2.65-1.74-3.56-2.25-3.94-2.75-2.07-5.68.28-7.82-1.45s.13-5.3-2.5-10a10.18,10.18,0,0,0-4.68-4.5c-1.52-.65-3.41-.57-7.13-.37s-5.5.28-6.75.93c-3.31,1.73-2.93,4.54-5.25,5.07-2.56.58-3.62-2.72-8.62-4.5-1.46-.53-5.84-2.08-9.38,0-3.25,1.91-4.31,6-4.5,6.75-.79,3.07.2,4.3-.94,5.43-1.56,1.57-3.91-.32-8.06.94-1.27.39-3.91,1.19-4.87,3.38-.35.78-.17,2.53.18,6a17.73,17.73,0,0,0,.57,3.75c.73,1.76,1.63,1.83,3.75,4.37,1.72,2.07,2.62,3.15,2.5,4.5-.13,1.51-1.39,1.76-2.5,3.75a9,9,0,0,0-1,6c.74,3.54,4.39,6.44,8.25,6.75a10,10,0,0,0,8.15-3.56" transform="translate(50.72 -276.28)"/><path class="cls-36" d="M384.18,351" transform="translate(50.72 -276.28)"/><path class="cls-36" d="M363.71,325.38c-.61-1.41-3.35-2.15-6.57-1.13a5.49,5.49,0,0,1-5.71.56,5.26,5.26,0,0,1-2.35-2.62,3.37,3.37,0,0,0-3.28-3.38,3.15,3.15,0,0,0-2.53,2.07,11,11,0,0,1-1.69,3.28c-1.27,1.67-2.14,1.75-2.62,2.9a4.92,4.92,0,0,0,1.78,5.54,5.15,5.15,0,0,0,6.75-.94,8.06,8.06,0,0,1,4.12-2.44c3.79-.78,5.95,2.23,8.91,1.13C362.66,329.54,364.36,326.9,363.71,325.38Z" transform="translate(50.72 -276.28)"/><path class="cls-36" d="M381.13,373" transform="translate(50.72 -276.28)"/><path class="cls-36" d="M340.86,354.41" transform="translate(50.72 -276.28)"/><path class="cls-36" d="M367.36,382.18A34.17,34.17,0,0,0,381.13,373a20.9,20.9,0,0,1-4.49,11.14,20.26,20.26,0,0,1-5.88,4.93" transform="translate(50.72 -276.28)"/><path class="cls-36" d="M343.39,359.11c-.7-1.46-1.53-3-2.53-4.7" transform="translate(50.72 -276.28)"/><path class="cls-36" d="M355.06,380.72a11.2,11.2,0,0,0,2,1.28c2.83,1.41,6.44,1.41,10.31.18" transform="translate(50.72 -276.28)"/><path class="cls-36" d="M343.39,359.11c.91,1.91,1.6,3.62,2.13,5.08,1,2.73,1.39,4.51,2.1,6.36" transform="translate(50.72 -276.28)"/><path class="cls-36" d="M355.06,380.72a27.61,27.61,0,0,1-6-7.16,20.94,20.94,0,0,1-1.46-3" transform="translate(50.72 -276.28)"/><path class="cls-36" d="M343.39,359.11a6.19,6.19,0,0,0,4.23,11.44" transform="translate(50.72 -276.28)"/><path class="cls-36" d="M347.62,370.55" transform="translate(50.72 -276.28)"/><path class="cls-36" d="M343.39,359.11" transform="translate(50.72 -276.28)"/><path class="cls-36" d="M370.76,389.09" transform="translate(50.72 -276.28)"/><path class="cls-36" d="M381.13,373" transform="translate(50.72 -276.28)"/><path class="cls-36" d="M367.36,382.18a11.62,11.62,0,0,0,2.53,6,10.64,10.64,0,0,0,.87.9" transform="translate(50.72 -276.28)"/><path class="cls-36" d="M367.36,382.18" transform="translate(50.72 -276.28)"/><path class="cls-36" d="M402.54,378.08c-4.94,7.92-13.27,14.74-22.43,14.33-1.75-.08-6.11-.29-9.35-3.32" transform="translate(50.72 -276.28)"/><path class="cls-36" d="M395.85,356" transform="translate(50.72 -276.28)"/><path class="cls-36" d="M402.54,378.08a34.73,34.73,0,0,0,3.45-7.23c1.05-3.15,2.2-7,.28-10.22-1.75-2.95-5.62-4.6-10.42-4.68" transform="translate(50.72 -276.28)"/><path class="cls-36" d="M391.41,358.06" transform="translate(50.72 -276.28)"/><path class="cls-36" d="M402.54,378.08" transform="translate(50.72 -276.28)"/><path class="cls-36" d="M402.54,378.08a27.52,27.52,0,0,1-4.64-4.39,29.64,29.64,0,0,1-6.49-15.63" transform="translate(50.72 -276.28)"/><path class="cls-36" d="M388.68,347.57a6.2,6.2,0,0,0-.51,6" transform="translate(50.72 -276.28)"/><path class="cls-36" d="M388.68,347.57a5.64,5.64,0,0,1,1.09-1.2,6,6,0,0,1,5.91-.74" transform="translate(50.72 -276.28)"/><path class="cls-36" d="M388.68,347.57" transform="translate(50.72 -276.28)"/><path class="cls-36" d="M392.86,349.94a5.63,5.63,0,0,0-4.18-2.37" transform="translate(50.72 -276.28)"/><path class="cls-36" d="M360.14,373.38a8.47,8.47,0,0,0,9.85-5.72" transform="translate(50.72 -276.28)"/><path class="cls-36" d="M356.68,354.72a17.05,17.05,0,0,1,.93,4,17.31,17.31,0,0,1-.37,5.81,4.2,4.2,0,0,0,1.5.85,4.4,4.4,0,0,0,2.34.09" transform="translate(50.72 -276.28)"/><path class="cls-36" d="M366.25,354.75c.44,1.21,1.52,1.94,2.42,1.61a2.1,2.1,0,0,0,.84-2.79c-.44-1.22-1.52-1.94-2.43-1.62A2.12,2.12,0,0,0,366.25,354.75Z" transform="translate(50.72 -276.28)"/><path class="cls-36" d="M352.06,360.2c-.44-1.21-1.52-1.94-2.42-1.61s-1.28,1.57-.84,2.79,1.52,1.94,2.42,1.62A2.12,2.12,0,0,0,352.06,360.2Z" transform="translate(50.72 -276.28)"/><path class="cls-36" d="M363.07,350.54c.76.27,1.22-.76,3.13-1.22a10.34,10.34,0,0,0,2.65-.59c.36-.17,1.17-.55,1.14-1s-1.16-.74-1.35-.79c-.6-.13-1.25-.11-3.59.61s-2.56,1-2.67,1.25A1.4,1.4,0,0,0,363.07,350.54Z" transform="translate(50.72 -276.28)"/><path class="cls-36" d="M345.56,357.24A10.36,10.36,0,0,0,348,356c1.76-.87,2.77-.37,3.18-1.07a1.4,1.4,0,0,0-.58-1.77c-.26-.14-.62-.18-2.85.77s-2.76,1.35-3.13,1.84c-.12.16-.81,1.07-.53,1.47S345.17,357.34,345.56,357.24Z" transform="translate(50.72 -276.28)"/><path class="cls-36" d="M422.54,374.13a11.38,11.38,0,0,0,1.17-5,13,13,0,0,0-2.25-7.31c-2.53-4.07-6.18-5.93-8.82-7.22a32.2,32.2,0,0,0-13.93-3.23" transform="translate(50.72 -276.28)"/><path class="cls-36" d="M391.93,395.41a17,17,0,0,0,8.62-3.75c1.78-1.52,1.6-2.11,3.94-4.78a30.18,30.18,0,0,1,9.75-8c3.92-1.87,5.35-1.11,7.22-3.19a7.7,7.7,0,0,0,1.08-1.59" transform="translate(50.72 -276.28)"/><path class="cls-36" d="M398.71,351.4" transform="translate(50.72 -276.28)"/><path class="cls-36" d="M411.8,367.85a9.52,9.52,0,0,0-5.06-11.54" transform="translate(50.72 -276.28)"/><path class="cls-36" d="M358.87,384.86a15,15,0,0,0,11.55,9.66" transform="translate(50.72 -276.28)"/><path class="cls-36" d="M355.06,380.72a52.65,52.65,0,0,0-8.13,4.94,51.31,51.31,0,0,0-9.38,8.9c-3.26,4.1-6.69,8.41-7.78,14.63-.94,5.38.73,7.24-.84,12.37a20.5,20.5,0,0,1-1.51,3.6" transform="translate(50.72 -276.28)"/><path class="cls-36" d="M355.06,380.72" transform="translate(50.72 -276.28)"/><path class="cls-36" d="M327.42,425.16a21.5,21.5,0,0,1-1.55,2.5" transform="translate(50.72 -276.28)"/><path class="cls-36" d="M325.87,427.66" transform="translate(50.72 -276.28)"/><path class="cls-36" d="M341.78,479.29" transform="translate(50.72 -276.28)"/><path class="cls-36" d="M341.78,479.29a17.1,17.1,0,0,0,3.86-4.86" transform="translate(50.72 -276.28)"/><path class="cls-36" d="M345.64,474.43c7.54-13.88,1.67-40.67.25-46.77" transform="translate(50.72 -276.28)"/><path class="cls-36" d="M396.14,447.16a22.38,22.38,0,0,1-21.93,5.25" transform="translate(50.72 -276.28)"/><path class="cls-36" d="M395.39,451.47a25,25,0,0,1-15.18,10.31" transform="translate(50.72 -276.28)"/><path class="cls-36" d="M424.46,409.85a25.82,25.82,0,0,1,25.87-11.07" transform="translate(50.72 -276.28)"/><path class="cls-36" d="M422.54,374.13a97,97,0,0,1,10.54,4.22c6.16,2.89,9.36,4.39,12.75,7.68,6.05,5.87,8.18,13,9.38,17.07,2.14,7.21,1,9.29,2.9,14.62" transform="translate(50.72 -276.28)"/><path class="cls-36" d="M422.54,374.13" transform="translate(50.72 -276.28)"/><path class="cls-36" d="M419.29,499.79" transform="translate(50.72 -276.28)"/><path class="cls-36" d="M468.55,452.16a17.42,17.42,0,0,0-.41,3.06,19,19,0,0,0,2.07,8.81A37.47,37.47,0,0,1,473,477.68" transform="translate(50.72 -276.28)"/><path class="cls-36" d="M419.29,499.79a10,10,0,0,0,16.42,2.31c1.62.69,11.71,4.84,22.5-.19,2.5-1.17,9.48-4.9,12.75-12.56a28.86,28.86,0,0,0,2-11.67" transform="translate(50.72 -276.28)"/><path class="cls-36" d="M468.55,452.16a17.52,17.52,0,0,1,1.84-4.81,10.37,10.37,0,0,0-3-16.32,33.36,33.36,0,0,1-9-12.56l-.28-.75" transform="translate(50.72 -276.28)"/><path class="cls-36" d="M443,471c-2.29-6.09-5.1-8.13-7.31-8.81-2.58-.8-4,.34-8.25-.56-2.52-.54-5.34-1.14-7.13-3.38a6.92,6.92,0,0,1-.77-1.22" transform="translate(50.72 -276.28)"/><path class="cls-36" d="M419.56,457c-1.25-2.56-.82-5.77-.35-9.28.64-4.79,1.8-6,2.25-8.81.56-3.5-.16-8.65-6-15.75" transform="translate(50.72 -276.28)"/><path class="cls-36" d="M426,457.28c4.35-2.53,7.41-2.52,9.37-2.06,3.23.76,4.35,2.91,8.06,3.94a14.46,14.46,0,0,0,7.88-.19" transform="translate(50.72 -276.28)"/><path class="cls-36" d="M419.56,457" transform="translate(50.72 -276.28)"/><path class="cls-36" d="M400.81,470.51" transform="translate(50.72 -276.28)"/><path class="cls-36" d="M419.56,457a12.3,12.3,0,0,0-6.54,2.35,12.49,12.49,0,0,0-4.31,5.81,5.62,5.62,0,0,0-6.57,1.31,5.51,5.51,0,0,0-1.33,4" transform="translate(50.72 -276.28)"/><path class="cls-36" d="M405.71,470.14" transform="translate(50.72 -276.28)"/><path class="cls-36" d="M405.71,470.14a36.34,36.34,0,0,1,17,27.09" transform="translate(50.72 -276.28)"/><path class="cls-36" d="M422.67,497.23" transform="translate(50.72 -276.28)"/><path class="cls-36" d="M362.7,480.27a12.73,12.73,0,0,1,4.85-7c5.74-3.87,9.64,1.77,23.16-.82a101.24,101.24,0,0,1,10.1-2" transform="translate(50.72 -276.28)"/><path class="cls-36" d="M367.84,489.9l.18-.18c4.55-4.59,4-8.25,7.5-10.5a9.37,9.37,0,0,1,5.62-1.31" transform="translate(50.72 -276.28)"/><path class="cls-36" d="M405.71,470.14" transform="translate(50.72 -276.28)"/><path class="cls-36" d="M405.71,470.14c-1.24.05-2.55.13-3.94.27l-1,.1" transform="translate(50.72 -276.28)"/><path class="cls-36" d="M362.7,480.27a23.26,23.26,0,0,0-.87,8.7,9.08,9.08,0,0,0,.4,2" transform="translate(50.72 -276.28)"/><path class="cls-36" d="M362.23,491a2.19,2.19,0,0,0,1.1,1.39c1.39.55,3.34-1.28,4.51-2.45" transform="translate(50.72 -276.28)"/><path class="cls-36" d="M362.23,491" transform="translate(50.72 -276.28)"/><path class="cls-36" d="M362.7,480.27a22.07,22.07,0,0,0-5.18,4.2c-.56.62-4.9,5.45-3.56,7.5.85,1.31,3.62.87,4.31.75a9,9,0,0,0,4-1.76" transform="translate(50.72 -276.28)"/><path class="cls-36" d="M362.7,480.27" transform="translate(50.72 -276.28)"/><path class="cls-36" d="M375.18,493.78c1.27-.83,1.77-1.93,3.53-4.25,2-2.62,3.8-5,5.81-6.18,1.47-.87,4.69-2.05,10.87.37" transform="translate(50.72 -276.28)"/><path class="cls-36" d="M367.84,489.9c-.4,1.89-.34,3.48.55,4.32,1.3,1.21,4.36.91,6.38-.19a4.06,4.06,0,0,0,.41-.25" transform="translate(50.72 -276.28)"/><path class="cls-36" d="M367.84,489.9" transform="translate(50.72 -276.28)"/><path class="cls-36" d="M375.18,493.78" transform="translate(50.72 -276.28)"/><path class="cls-36" d="M377.23,497.44a11.52,11.52,0,0,0,2.7,0" transform="translate(50.72 -276.28)"/><path class="cls-36" d="M375.18,493.78c-.47,1.06-.88,1.68-.6,2.32s1.3,1.15,2.65,1.34" transform="translate(50.72 -276.28)"/><path class="cls-36" d="M387.88,493.77a11.87,11.87,0,0,1-2.8,2.14,13.9,13.9,0,0,1-5.15,1.55" transform="translate(50.72 -276.28)"/><path class="cls-36" d="M390.52,489.91a13.93,13.93,0,0,1-2.64,3.86" transform="translate(50.72 -276.28)"/><path class="cls-36" d="M422.67,497.23" transform="translate(50.72 -276.28)"/><path class="cls-36" d="M387.88,493.77" transform="translate(50.72 -276.28)"/><path class="cls-36" d="M419.29,499.79a23.68,23.68,0,0,0,3.38-2.56" transform="translate(50.72 -276.28)"/><path class="cls-36" d="M391.63,497.55a21.51,21.51,0,0,1-3.75-3.78" transform="translate(50.72 -276.28)"/><path class="cls-36" d="M419.29,499.79a19.88,19.88,0,0,1-7.58,2.87c-5.06.76-9.86-.64-12.19-1.31" transform="translate(50.72 -276.28)"/><path class="cls-36" d="M391.63,497.55a21.35,21.35,0,0,0,2.26,1.55,24.1,24.1,0,0,0,5.63,2.25" transform="translate(50.72 -276.28)"/><path class="cls-36" d="M397.36,505.38s.71,0,1.88.1" transform="translate(50.72 -276.28)"/><path class="cls-36" d="M216.7,518.25h.07" transform="translate(50.72 -276.28)"/><line class="cls-36" x1="394.35" y1="229.1" x2="397.52" y2="229.1"/><line class="cls-36" x1="461.34" y1="354.18" x2="461.58" y2="365.25"/><line class="cls-36" x1="397.52" y1="229.1" x2="441.24" y2="229.1"/><line class="cls-36" x1="448.09" y1="229.1" x2="449.99" y2="229.1"/><line class="cls-36" x1="441.24" y1="229.1" x2="448.09" y2="229.1"/><path class="cls-36" d="M216.77,518.25h-.07" transform="translate(50.72 -276.28)"/><path class="cls-36" d="M294.16,518c-6.71,4.38-14.8,12.84-16.7,28.69-3.38,28.13-7.88,79.5-7.88,79.5l4.06.54" transform="translate(50.72 -276.28)"/><line class="cls-36" x1="360.07" y1="355.22" x2="324.37" y2="350.48"/><path class="cls-36" d="M294.16,518" transform="translate(50.72 -276.28)"/><path class="cls-36" d="M335.92,558.58" transform="translate(50.72 -276.28)"/><path class="cls-36" d="M335.92,558.58l-7.84.52C325.83,583.47,312,631.85,312,631.85l-2.62-.35" transform="translate(50.72 -276.28)"/><path class="cls-36" d="M353.77,518" transform="translate(50.72 -276.28)"/><line class="cls-36" x1="385.22" y1="350.63" x2="416.02" y2="355.22"/><path class="cls-36" d="M335.92,558.58c-4,32.39-6.08,67.64-6.08,67.64l4.65.69" transform="translate(50.72 -276.28)"/><path class="cls-36" d="M409,558.32" transform="translate(50.72 -276.28)"/><path class="cls-36" d="M353.77,518c-7.07,4.1-13.76,11.88-15.94,26.51-.68,4.56-1.31,9.31-1.91,14.11" transform="translate(50.72 -276.28)"/><path class="cls-36" d="M409,558.32c-6.55-.65-15.45-1.47-18.51-1.47-5.06,0-3.52,3.37-3.52,3.37-2.95,36.38-19.4,71.63-19.4,71.63l-2.3-.35" transform="translate(50.72 -276.28)"/><path class="cls-36" d="M265.06,633.78q-2,1.26-4.52,2.63" transform="translate(50.72 -276.28)"/><line class="cls-36" x1="352.86" y1="383.5" x2="420.5" y2="383.5"/><path class="cls-36" d="M269.41,630.74a28.75,28.75,0,0,0,4.23-4" transform="translate(50.72 -276.28)"/><path class="cls-36" d="M369.78,659.78" transform="translate(50.72 -276.28)"/><path class="cls-36" d="M302.13,659.78h-58.8c-2.33-2.37-3.35-4.57-3.52-6.56" transform="translate(50.72 -276.28)"/><path class="cls-36" d="M254.54,639.39c-1.56.73-3.22,1.46-5,2.21,0,0-10.32,4.47-9.71,11.62" transform="translate(50.72 -276.28)"/><path class="cls-36" d="M254.54,639.39c2.22-1,4.22-2,6-3" transform="translate(50.72 -276.28)"/><path class="cls-36" d="M273.64,626.76" transform="translate(50.72 -276.28)"/><path class="cls-36" d="M265.06,633.78a52.69,52.69,0,0,0,4.35-3" transform="translate(50.72 -276.28)"/><path class="cls-36" d="M370.23,653.22" transform="translate(50.72 -276.28)"/><path class="cls-36" d="M239.81,653.22" transform="translate(50.72 -276.28)"/><line class="cls-36" x1="316.1" y1="376.94" x2="290.54" y2="376.94"/><line class="cls-36" x1="316.1" y1="376.94" x2="352.01" y2="376.94"/><line class="cls-36" x1="376.23" y1="376.94" x2="352.01" y2="376.94"/><line class="cls-36" x1="376.23" y1="376.94" x2="420.95" y2="376.94"/><path class="cls-36" d="M334.49,626.91a30.62,30.62,0,0,1-4.5,4" transform="translate(50.72 -276.28)"/><path class="cls-36" d="M330,630.9c-1,.73-2.1,1.51-3.38,2.34" transform="translate(50.72 -276.28)"/><path class="cls-36" d="M326.61,633.24c-1.41.91-3,1.88-4.83,2.91" transform="translate(50.72 -276.28)"/><path class="cls-36" d="M310.14,642.06l-2.68,1.22s-5.9,1.94-6.18,9.94" transform="translate(50.72 -276.28)"/><path class="cls-36" d="M302.13,659.78" transform="translate(50.72 -276.28)"/><path class="cls-36" d="M316,639.22c-1.8.91-3.74,1.85-5.87,2.84" transform="translate(50.72 -276.28)"/><path class="cls-36" d="M301.28,653.22a22.9,22.9,0,0,0,.85,6.56" transform="translate(50.72 -276.28)"/><path class="cls-36" d="M334.49,626.91" transform="translate(50.72 -276.28)"/><path class="cls-36" d="M316,639.22c2.13-1.08,4.06-2.1,5.77-3.07" transform="translate(50.72 -276.28)"/><path class="cls-36" d="M265.38,653.22a18,18,0,0,0-10.84-13.83" transform="translate(50.72 -276.28)"/><path class="cls-36" d="M265.38,653.22" transform="translate(50.72 -276.28)"/><path class="cls-36" d="M254.54,639.39" transform="translate(50.72 -276.28)"/><path class="cls-36" d="M270.89,642.44a20.71,20.71,0,0,0-5.71-4.31,21.22,21.22,0,0,0-4.64-1.72" transform="translate(50.72 -276.28)"/><path class="cls-36" d="M260.54,636.41" transform="translate(50.72 -276.28)"/><path class="cls-36" d="M275.68,639.25a22.28,22.28,0,0,0-6.1-4,21.84,21.84,0,0,0-4.52-1.44" transform="translate(50.72 -276.28)"/><path class="cls-36" d="M265.06,633.78" transform="translate(50.72 -276.28)"/><path class="cls-36" d="M269.41,630.74" transform="translate(50.72 -276.28)"/><path class="cls-36" d="M269.41,630.74a18,18,0,0,1,6.27,2.14,18.24,18.24,0,0,1,4.78,3.93" transform="translate(50.72 -276.28)"/><path class="cls-36" d="M309.34,631.5" transform="translate(50.72 -276.28)"/><path class="cls-36" d="M309.34,631.5c.27,3.52.53,7,.8,10.56" transform="translate(50.72 -276.28)"/><path class="cls-36" d="M310.14,642.06" transform="translate(50.72 -276.28)"/><path class="cls-36" d="M316,639.22" transform="translate(50.72 -276.28)"/><path class="cls-36" d="M325.5,653.22a16.08,16.08,0,0,0-1.73-6.66,16.62,16.62,0,0,0-7.76-7.34" transform="translate(50.72 -276.28)"/><path class="cls-36" d="M325.5,653.22" transform="translate(50.72 -276.28)"/><path class="cls-36" d="M321.78,636.15" transform="translate(50.72 -276.28)"/><path class="cls-36" d="M331.83,642.16a21.21,21.21,0,0,0-5-3.94,20.76,20.76,0,0,0-5.08-2.07" transform="translate(50.72 -276.28)"/><path class="cls-36" d="M326.61,633.24" transform="translate(50.72 -276.28)"/><path class="cls-36" d="M336.71,639.72a18.49,18.49,0,0,0-10.1-6.48" transform="translate(50.72 -276.28)"/><path class="cls-36" d="M330,630.9" transform="translate(50.72 -276.28)"/><path class="cls-36" d="M341.68,636.91a16.84,16.84,0,0,0-5.63-4.41,16.63,16.63,0,0,0-6.06-1.6" transform="translate(50.72 -276.28)"/><path class="cls-36" d="M369.78,659.78" transform="translate(50.72 -276.28)"/><path class="cls-36" d="M370.23,653.22a31.2,31.2,0,0,1-.45,6.56" transform="translate(50.72 -276.28)"/><path class="cls-36" d="M366.06,636.28c-.35-1.74-.59-3.34-.76-4.78" transform="translate(50.72 -276.28)"/><path class="cls-36" d="M366.06,636.28c.31,1.55.7,3.2,1.21,4.94.28.94.53,1.7.76,2.37" transform="translate(50.72 -276.28)"/><path class="cls-36" d="M365.3,631.5" transform="translate(50.72 -276.28)"/><path class="cls-36" d="M368,643.59c.59,1.72,1.06,2.83,1.49,4.57a25.87,25.87,0,0,1,.71,5.06" transform="translate(50.72 -276.28)"/><path class="cls-36" d="M410.62,630.46,370.27,635a13.59,13.59,0,0,0-4.21,1.25" transform="translate(50.72 -276.28)"/><path class="cls-36" d="M410.62,630.46" transform="translate(50.72 -276.28)"/><path class="cls-36" d="M366.06,636.28" transform="translate(50.72 -276.28)"/><path class="cls-36" d="M410.86,641.53" transform="translate(50.72 -276.28)"/><path class="cls-36" d="M410.86,641.53l-39.47,1a12.21,12.21,0,0,0-3.36,1.06" transform="translate(50.72 -276.28)"/><path class="cls-36" d="M368,643.59h0" transform="translate(50.72 -276.28)"/><path class="cls-36" d="M490.23,512.72" transform="translate(50.72 -276.28)"/><path class="cls-36" d="M458.11,417.72" transform="translate(50.72 -276.28)"/><path class="cls-36" d="M458.11,417.72h37.1c4.49-1.56,9.14.11,11,3.5s.21,7,0,7.5q-8,42-16,84" transform="translate(50.72 -276.28)"/><path class="cls-36" d="M481.4,478q2.58-13,5.17-26" transform="translate(50.72 -276.28)"/><path class="cls-36" d="M476,505.38q2.71-13.67,5.44-27.35" transform="translate(50.72 -276.28)"/><path class="cls-36" d="M476,505.38" transform="translate(50.72 -276.28)"/><path class="cls-36" d="M494.71,423.22a6.26,6.26,0,0,0-4,3.5,6.06,6.06,0,0,0,0,4.5L486.57,452" transform="translate(50.72 -276.28)"/><path class="cls-36" d="M468.55,452.16l18-.15" transform="translate(50.72 -276.28)"/><path class="cls-36" d="M486.57,452" transform="translate(50.72 -276.28)"/><path class="cls-36" d="M468.55,452.16" transform="translate(50.72 -276.28)"/><path class="cls-36" d="M481.4,478" transform="translate(50.72 -276.28)"/><path class="cls-36" d="M473,477.68l8.41.35" transform="translate(50.72 -276.28)"/><path class="cls-36" d="M473,477.68" transform="translate(50.72 -276.28)"/><path class="cls-36" d="M345.64,474.43c1.94,10.54,3.61,19.72,4.18,22.8" transform="translate(50.72 -276.28)"/><path class="cls-36" d="M343.62,505.38a8.6,8.6,0,0,0,3.08-.51" transform="translate(50.72 -276.28)"/><path class="cls-36" d="M346.7,504.87c4.19-1.62,3.32-6.52,3.32-6.52l-.2-1.12" transform="translate(50.72 -276.28)"/><path class="cls-36" d="M252,505.38c-5.63,0-6-7-6-7s-11.25-55.88-13.13-64.88a12.5,12.5,0,0,1-.16-5.81" transform="translate(50.72 -276.28)"/><path class="cls-36" d="M232.67,427.66c.81-2.83,3.16-2.5,3.16-2.5h91.59" transform="translate(50.72 -276.28)"/><path class="cls-36" d="M345.64,474.43c-3.05-16.57-6.76-36.5-7.81-41.33-1.87-8.63-8-7.94-8-7.94h-2.42" transform="translate(50.72 -276.28)"/><line class="cls-36" x1="394.35" y1="229.1" x2="302.68" y2="229.1"/><path class="cls-36" d="M341.78,479.29q-4.23-22-8.45-43.94a9.3,9.3,0,0,0-7.45-7.69h0" transform="translate(50.72 -276.28)"/><path class="cls-36" d="M341.78,479.29l4.92,25.58" transform="translate(50.72 -276.28)"/><line class="cls-36" x1="283.4" y1="151.38" x2="376.6" y2="151.38"/><path class="cls-36" d="M232.67,427.66" transform="translate(50.72 -276.28)"/><path class="cls-36" d="M346.8,505.38" transform="translate(50.72 -276.28)"/><path class="cls-36" d="M346.8,505.38c0-.17-.07-.34-.1-.51" transform="translate(50.72 -276.28)"/><path class="cls-36" d="M399.52,501.35a9,9,0,0,1-.25,4" transform="translate(50.72 -276.28)"/><path class="cls-36" d="M399.24,505.48l0-.1" transform="translate(50.72 -276.28)"/><path class="cls-36" d="M349.82,497.23" transform="translate(50.72 -276.28)"/><path class="cls-36" d="M399.52,501.35" transform="translate(50.72 -276.28)"/><path class="cls-36" d="M391.63,497.55" transform="translate(50.72 -276.28)"/><path class="cls-36" d="M391.63,497.55l-11.7-.09" transform="translate(50.72 -276.28)"/><path class="cls-36" d="M399.24,505.48" transform="translate(50.72 -276.28)"/><path class="cls-36" d="M377.23,497.44l2.7,0" transform="translate(50.72 -276.28)"/><path class="cls-36" d="M349.82,497.23l27.41.21" transform="translate(50.72 -276.28)"/><path class="cls-37" d="M374.77,395.78a18.22,18.22,0,0,0-1.13,5.63c-.11,3.1.67,4.31.38,6.19s-1.59,4.25-6.19,6.75" transform="translate(50.72 -276.28)"/><path class="cls-37" d="M388.46,396.16a13.94,13.94,0,0,0-.94,7.12c.49,3.34,2.09,4.64,2.25,7.69a11.17,11.17,0,0,1-2.06,6.75" transform="translate(50.72 -276.28)"/></g><g id="Layer_4" data-name="Layer 4"><rect class="cls-38" y="382.39" width="691.92" height="15.8"/><path class="cls-39" d="M531.49,541.48c-2.74,13.34-1.92,36.06-19.56,39.66-4.75,1-9.34-2.33-12.1-6.1-3.62-4.94-4.48-15.4-4.42-21.37,0-4.74,1.67-10,2.19-14.81.56-5.16,1-10.34,1.62-15.5,2.17-18.59,11.88-34.18,28.32-43.46,1.27,6.1,4.17,11.27,6.72,17.13a60.27,60.27,0,0,1,3,8.29c1.34,5-.28,10-1.49,14.72C534,527.06,533,534.38,531.49,541.48Z" transform="translate(50.72 -276.28)"/><path class="cls-40" d="M508.94,581.58c.13-1.11.27-2.23.42-3.35,2.1,0,4.3-1.2,6.07-2.12a32.21,32.21,0,0,0,8-6.31c.13-.13-.09-.34-.23-.23a35.7,35.7,0,0,1-7.76,5.31,21.81,21.81,0,0,1-5.89,2.2c.18-1.34.39-2.67.61-4,2.19-.27,4.2-1.71,6.06-2.81a69.08,69.08,0,0,0,8.69-6.64s0-.07,0,0c-4.31,3.13-9.11,7.58-14.56,8.56.29-1.67.59-3.33.94-5l.06-.26c6.3-1.59,10.57-6.54,15.4-10.54.08-.06,0-.2-.09-.13-4.75,3.69-9.22,7.91-15.1,9.7.51-2.36,1-4.72,1.57-7.07a33.61,33.61,0,0,0,14.25-10.11.08.08,0,0,0-.11-.11c-4.13,4.3-8.68,6.77-13.91,9.21q.8-3.5,1.55-7c2.47-1.22,5.06-2,7.34-3.55a20,20,0,0,0,5.72-5.8.11.11,0,0,0-.19-.12c-3.19,4.59-8,6-12.66,8.44.45-2.18.87-4.36,1.25-6.56,5.19-2.85,10.82-5.5,13.76-11,0,0-.05-.11-.08,0-3.11,5-8.55,7.19-13.49,9.93.06-.4.13-.78.19-1.18q.48-3,.91-6.11a49.92,49.92,0,0,0,8.5-4.62c1.9-1.24,3.94-2.47,5.18-4.41.08-.13-.1-.25-.18-.13-2.78,4-8.87,6.28-13.37,8.28l.87-6.18c5-3,10.87-4.69,13.94-10.13a.15.15,0,0,0-.25-.16c-3.18,5-8.78,6.51-13.55,9.33.18-1.28.37-2.55.56-3.83,5.39-2,11.66-6.49,14.5-11.36a.24.24,0,0,0-.41-.26A30.2,30.2,0,0,1,519.46,522c.32-2.06.65-4.12,1-6.18a.71.71,0,0,0,.08-.18c2.42-.72,4.81-2.42,6.9-3.71A18.91,18.91,0,0,0,534,506c.17-.28-.29-.54-.45-.25-2.39,4.27-8.07,7.14-12.78,8.77.14-.75.28-1.5.43-2.25.22-1.12.45-2.24.68-3.36,1.92-1.33,4.37-2,6.3-3.37a35.63,35.63,0,0,0,4.59-4.18c.14-.15-.07-.38-.22-.24a30,30,0,0,1-6.34,4.87c-1.32.71-2.84,1.11-4.12,1.89.37-1.83.75-3.66,1.1-5.49l.07,0,.07,0a.38.38,0,0,0,.32-.1c2.62-.66,4.62-2.92,6.38-4.84,0,0,0-.11-.07-.07-1.85,1.71-3.94,3.6-6.42,4.33h0l-.19,0c.29-1.49.56-3,.81-4.48a.35.35,0,0,0,.31-.39,27.29,27.29,0,0,0,3.83-3.28.1.1,0,1,0-.13-.14,22.29,22.29,0,0,1-3.83,2.7,90.93,90.93,0,0,0,1-9.35c0-.29-.42-.29-.45,0-.27,3-.71,6-1.23,9a28.11,28.11,0,0,1-3.94-6,.09.09,0,0,0-.18.06,17.68,17.68,0,0,0,1.91,3.72,22.88,22.88,0,0,0,2,3.27c-.29,1.6-.6,3.2-.93,4.79a8.23,8.23,0,0,1-7.78-7.9c0-.29-.48-.29-.45,0a10,10,0,0,0,2.56,5.86,9.39,9.39,0,0,0,5.53,2.7c-.39,1.84-.78,3.67-1.19,5.51a42.13,42.13,0,0,1-4.51-3.35c-2.32-1.85-3.69-4.07-5.7-6.16-.21-.2-.54.1-.34.31,1.89,2,3.17,4.18,5.31,6a30.35,30.35,0,0,0,5.1,3.88,2.46,2.46,0,0,1-.07.29l-.06.06a.3.3,0,0,0,0,.41q-.58,2.64-1.14,5.28c0,.11,0,.22-.07.33-4.1-1.87-10.24-5.14-10.78-9.9a.32.32,0,1,0-.62.14c1.21,5.38,7.13,7.77,11.21,10.71q-.6,3-1.11,6a24.15,24.15,0,0,1-7.39-3.81c-2-1.61-4.89-3.55-5.8-6,0-.08-.15,0-.12.05.84,2.48,3.41,4.18,5.28,5.87a19.73,19.73,0,0,0,7.85,4.83.57.57,0,0,0,0,.26c-.21,1.28-.41,2.55-.6,3.82-5-.38-12-4.16-14.51-7.93a0,0,0,1,0,0,0c1.73,2.88,4.36,4.56,7.32,6,2.21,1.09,4.6,2.38,7.1,2.57l-1.05,7.07c-2.16-.8-4.45-1.19-6.59-2a16.34,16.34,0,0,1-7.49-6.38c-.11-.17-.39,0-.28.15,3.45,5.49,8.41,7.1,14.23,9.15q-.43,2.91-.92,5.8c-4.75-.91-10.91-3.81-13.32-7.95-.17-.3-.66-.05-.48.26,1.52,2.65,4.14,4.32,6.81,5.67,1.93,1,4.58,2.59,6.88,2.76a1.29,1.29,0,0,0,0,.19c-.47,2.78-1,5.54-1.61,8.3-5.32-1.34-8.75-5.27-12.62-9-.26-.26-.68.13-.42.4,3.94,3.87,7.4,7.94,12.87,9.37-.49,2.24-1,4.48-1.56,6.71a24.64,24.64,0,0,1-11.94-8.17c-.2-.26-.57.09-.37.35a26.31,26.31,0,0,0,12.1,8.68c-.58,2.4-1.19,4.79-1.81,7.17-4.65-.7-8.23-3.62-11.1-7.3-.06-.08-.21,0-.15.12,2.55,3.54,6.4,7.63,11,8.06-.2.76-.4,1.52-.59,2.28-.12.46-.25.93-.37,1.4a26.33,26.33,0,0,1-9.66-4.66c-.08-.06-.17.06-.1.13a25.11,25.11,0,0,0,9.57,5.23c-.39,1.43-.81,2.91-1.21,4.41a19.8,19.8,0,0,0-2.67-1.13c-1.74-.53-2.87-1.63-4.39-2.54-.14-.09-.3.11-.16.2,1.34.87,2.27,2,3.8,2.56,1.12.43,2.18,1,3.27,1.45-1.6,6-3,12.29-2.24,18,.17,1.27,2.3,1.61,2.62.26C508.52,590.25,508.47,585.82,508.94,581.58Z" transform="translate(50.72 -276.28)"/><path class="cls-41" d="M475.66,537.66c3.14,13.26,13.47,33.5-1,44.21-3.9,2.88-9.45,1.83-13.55-.42-5.36-3-10.55-12.07-13-17.51-2-4.32-2.72-9.79-4.27-14.35-1.67-4.91-3.44-9.8-5.07-14.73-5.88-17.77-3.65-36,7.33-51.35,3.73,5,8.54,8.45,13.33,12.69a61,61,0,0,1,6.19,6.26c3.32,3.93,4,9.16,4.87,14C471.81,523.55,474,530.61,475.66,537.66Z" transform="translate(50.72 -276.28)"/><path class="cls-40" d="M472.14,583.54c-.36-1.07-.7-2.14-1-3.22,1.91-.89,3.39-2.9,4.61-4.48a32.45,32.45,0,0,0,4.56-9.09c.06-.17-.23-.27-.3-.11a35.48,35.48,0,0,1-4.8,8.09,21.72,21.72,0,0,1-4.41,4.48c-.4-1.29-.78-2.58-1.14-3.88,1.88-1.17,3.1-3.33,4.31-5.11a67.68,67.68,0,0,0,5.08-9.69s0-.06-.05,0c-2.59,4.66-5.06,10.72-9.59,13.91-.44-1.63-.86-3.27-1.24-4.91l-.06-.26c5-4.11,6.82-10.4,9.51-16.06.05-.09-.09-.18-.13-.08-2.76,5.35-5,11.06-9.6,15.16-.54-2.35-1.05-4.71-1.56-7.07A33.59,33.59,0,0,0,475,546c0-.1-.12-.16-.15-.06-1.93,5.64-5,9.8-8.73,14.22-.5-2.33-1-4.66-1.55-7,1.73-2.14,3.77-3.91,5.16-6.32a19.92,19.92,0,0,0,2.74-7.66.11.11,0,0,0-.22,0c-1,5.51-4.72,8.83-7.92,13q-.76-3.25-1.63-6.47c3.5-4.78,7.49-9.56,7.84-15.76,0-.06-.09-.07-.09,0-.7,5.87-4.72,10.13-8,14.69-.11-.38-.21-.76-.32-1.14q-.85-3-1.76-5.93a49.86,49.86,0,0,0,5.76-7.78c1.2-1.92,2.52-3.89,2.83-6.18a.11.11,0,0,0-.22,0c-.84,4.78-5.39,9.44-8.63,13.15-.6-2-1.21-4-1.81-6,3.25-4.85,7.87-8.84,8.36-15.07a.15.15,0,0,0-.29,0c-.79,5.85-5.22,9.6-8.35,14.17l-1.11-3.7c4.05-4.08,7.83-10.81,8.35-16.43a.24.24,0,0,0-.48-.06,30.18,30.18,0,0,1-8.15,15.5c-.58-2-1.15-4-1.69-6a.67.67,0,0,0,0-.2c1.89-1.66,3.34-4.22,4.69-6.27a18.79,18.79,0,0,0,3.39-8.1.26.26,0,0,0-.51,0c-.37,4.88-4.31,9.88-7.89,13.34-.19-.74-.39-1.47-.57-2.22-.27-1.11-.53-2.22-.8-3.33,1.19-2,3.13-3.63,4.29-5.72a35.47,35.47,0,0,0,2.4-5.72.16.16,0,0,0-.3-.12,30.38,30.38,0,0,1-3.69,7.08c-.9,1.21-2.1,2.21-2.94,3.46-.43-1.82-.87-3.63-1.31-5.45l.05,0,.07,0a.32.32,0,0,0,.24-.22c2.1-1.7,3-4.59,3.75-7.08a0,0,0,0,0-.09,0c-1,2.33-2.06,4.92-4,6.63h0l-.18.05c-.37-1.48-.76-2.95-1.16-4.41a.35.35,0,0,0,.12-.48,27.85,27.85,0,0,0,2.08-4.59.09.09,0,1,0-.17-.08,22.28,22.28,0,0,1-2.33,4.07c-.87-3-1.84-6-3-8.91-.1-.28-.51-.09-.41.18,1,2.86,1.9,5.76,2.68,8.68a27.9,27.9,0,0,1-6.1-3.79c-.09-.09-.23,0-.15.12a16.88,16.88,0,0,0,3.31,2.57,22,22,0,0,0,3.22,2.11q.62,2.37,1.17,4.74a8.87,8.87,0,0,1-5.16.32,8.7,8.7,0,0,1-5.22-4.21c-.14-.25-.56,0-.41.2a10,10,0,0,0,4.8,4.23,9.34,9.34,0,0,0,6.15.11c.42,1.83.84,3.67,1.25,5.5a42.71,42.71,0,0,1-5.51-1.13c-2.88-.7-5.06-2.14-7.77-3.17a.22.22,0,0,0-.17.41c2.56,1,4.63,2.45,7.34,3.18a30,30,0,0,0,6.26,1.37l.06.29,0,.08a.3.3,0,0,0,.13.39q.59,2.64,1.19,5.27l.09.33c-4.52,0-11.46-.34-14-4.43-.24-.39-.8,0-.5.39,3.37,4.37,9.75,4,14.68,5,.48,2,1,3.94,1.53,5.91a24.19,24.19,0,0,1-8.31-.34c-2.52-.6-5.93-1.15-7.81-3-.06-.06-.14,0-.09.1,1.81,1.89,4.86,2.35,7.27,3.09a19.68,19.68,0,0,0,9.15,1.06.57.57,0,0,0,.11.25c.35,1.24.7,2.48,1.06,3.72-4.68,1.75-12.6,1.27-16.5-1.08,0,0,0,0,0,0,2.79,1.88,5.88,2.29,9.18,2.37,2.46,0,5.17.21,7.52-.68q1,3.44,2,6.87c-2.3.18-4.54.79-6.84.92a16.34,16.34,0,0,1-9.48-2.62c-.17-.1-.37.14-.19.26,5.44,3.51,10.62,2.88,16.76,2.29.55,1.87,1.1,3.76,1.62,5.64-4.7,1.18-11.5,1.15-15.43-1.58-.29-.2-.62.23-.33.43,2.5,1.76,5.58,2.17,8.57,2.27,2.16.07,5.24.41,7.39-.4l.06.18c.74,2.72,1.41,5.46,2,8.21-5.39,1-10.16-1.09-15.22-2.8-.35-.12-.57.41-.22.54,5.21,1.85,10.06,4.08,15.62,3.07.5,2.24,1,4.48,1.42,6.74a24.58,24.58,0,0,1-14.27-2.37c-.3-.15-.48.32-.19.47A26.39,26.39,0,0,0,465,561.69c.48,2.42.93,4.84,1.38,7.26-4.51,1.32-9,.2-13.14-1.93a.1.1,0,0,0-.09.17c3.8,2.13,9,4.22,13.4,2.65.14.77.29,1.55.43,2.32.08.47.17.94.25,1.42a26.34,26.34,0,0,1-10.72-.14c-.1,0-.13.13,0,.15a25.16,25.16,0,0,0,10.88.71c.25,1.46.49,3,.76,4.51a20,20,0,0,0-2.89.09c-1.81.27-3.3-.26-5.06-.45-.16,0-.22.23,0,.25,1.57.23,2.89.85,4.51.73,1.2-.09,2.4,0,3.59-.07,1.06,6.07,2.45,12.41,5.56,17.28.69,1.07,2.76.48,2.49-.88C475.42,591.57,473.5,587.58,472.14,583.54Z" transform="translate(50.72 -276.28)"/><path class="cls-42" d="M506.24,527.39c.74,16.84,8.62,43.85-11.45,53.51-5.41,2.6-11.92.05-16.37-3.65-5.84-4.83-10.05-17.11-11.78-24.3-1.38-5.7-1-12.53-1.87-18.42-.89-6.37-1.91-12.72-2.75-19.09-3-23,3.9-44.62,20.8-60.73,3.37,6.93,8.42,12.25,13.26,18.51a75,75,0,0,1,6.09,9c3.11,5.54,2.68,12,2.67,18.11C504.83,509.34,505.84,518.43,506.24,527.39Z" transform="translate(50.72 -276.28)"/><path class="cls-40" d="M491.34,582.35c-.19-1.38-.36-2.77-.52-4.15,2.52-.65,4.79-2.75,6.64-4.39a40.1,40.1,0,0,0,7.65-10c.11-.19-.21-.38-.34-.2a44.81,44.81,0,0,1-7.7,8.73c-1.69,1.37-4.12,3.54-6.41,4.42q-.27-2.49-.48-5c2.55-1,4.53-3.33,6.42-5.22,3.23-3.21,5.75-6.94,8.42-10.6,0,0,0-.09-.06-.05-4.22,5.06-8.63,11.86-14.87,14.69-.16-2.09-.3-4.18-.38-6.26,0-.11,0-.22,0-.33,7.08-3.83,10.7-11.06,15.28-17.32.08-.1-.06-.23-.14-.13-4.59,5.87-8.67,12.28-15.18,16.22-.11-3-.19-6-.26-9a41.72,41.72,0,0,0,14-16.45c.05-.11-.11-.21-.17-.1-3.65,6.41-8.36,10.75-13.9,15.27-.07-2.95-.15-5.91-.26-8.86,2.59-2.2,5.48-3.88,7.73-6.48a24.8,24.8,0,0,0,5.1-8.69.14.14,0,0,0-.26-.09c-2.44,6.48-7.78,9.65-12.63,14-.12-2.75-.27-5.5-.48-8.24,5.35-5,11.31-9.89,13.17-17.34,0-.07-.09-.11-.11,0-2.21,7-8.08,11.22-13.18,16,0-.49-.07-1-.12-1.46-.23-2.54-.49-5.08-.76-7.61a62.16,62.16,0,0,0,8.8-8.13c1.9-2.06,4-4.15,4.87-6.86a.14.14,0,0,0-.26-.1c-2.12,5.62-8.73,10.23-13.53,14-.27-2.56-.55-5.12-.82-7.68,5.07-5.14,11.61-8.92,13.65-16.38a.18.18,0,0,0-.34-.11c-2.31,6.93-8.57,10.47-13.44,15.3-.16-1.59-.33-3.18-.48-4.76,5.86-4,12-11.33,14-18a.3.3,0,0,0-.57-.19c-2.18,6-7.76,13.34-13.5,17-.24-2.58-.47-5.15-.65-7.73a.69.69,0,0,0,0-.25c2.69-1.59,5-4.36,7.16-6.54,2.55-2.63,4.88-5.52,6-9.06.12-.39-.51-.56-.62-.17-1.57,5.85-7.52,11-12.67,14.4-.06-.95-.13-1.89-.18-2.83-.07-1.41-.13-2.83-.2-4.24,1.91-2.18,4.65-3.69,6.54-6a44.08,44.08,0,0,0,4.24-6.4c.13-.23-.2-.44-.33-.22a37.7,37.7,0,0,1-6.13,7.76c-1.38,1.25-3.07,2.2-4.38,3.52q-.15-3.47-.33-6.93l.08,0h.08a.43.43,0,0,0,.35-.21c2.94-1.59,4.66-4.9,6.19-7.74a.06.06,0,1,0-.1-.06c-1.7,2.61-3.64,5.51-6.39,7.14h0l-.24,0q-.15-2.82-.39-5.63a.42.42,0,0,0,.26-.55,34,34,0,0,0,3.6-5.1.12.12,0,0,0-.2-.14,27.16,27.16,0,0,1-3.77,4.41,112.48,112.48,0,0,0-1.59-11.53c-.07-.36-.6-.23-.54.12.59,3.72,1,7.44,1.25,11.18-2.31-1.84-4.83-3.69-6.55-6-.08-.12-.28,0-.2.12a21.11,21.11,0,0,0,3.42,3.89,28.21,28.21,0,0,0,3.43,3.31c.14,2,.24,4,.33,6a10.17,10.17,0,0,1-11.73-7.13c-.11-.33-.66-.19-.54.14a12.39,12.39,0,0,0,4.85,6.26c2.41,1.58,4.78,1.67,7.45,1.56q.15,3.48.25,7a54,54,0,0,1-6.43-2.66c-3.34-1.51-5.66-3.76-8.71-5.65-.3-.19-.61.27-.31.46,2.88,1.84,5.07,4.06,8.19,5.57a38.29,38.29,0,0,0,7.29,3.12c0,.12,0,.24,0,.36l-.06.09a.37.37,0,0,0,.08.5c.07,2.23.14,4.46.23,6.69,0,.14,0,.28,0,.42-5.49-1-13.84-3.07-15.94-8.62-.2-.53-1-.17-.7.36,3.08,6.09,10.91,7.16,16.7,9.45.12,2.51.29,5,.49,7.53a29.94,29.94,0,0,1-10-2.32c-2.92-1.32-6.94-2.78-8.79-5.5-.06-.08-.18,0-.13.1,1.77,2.72,5.36,4,8.12,5.44,3.5,1.86,7,3.31,10.88,3.42a.71.71,0,0,0,.07.32c.14,1.59.28,3.18.43,4.76-6.09,1.06-15.61-1.37-19.81-5.12,0,0,0,0,0,0,2.95,2.92,6.62,4.14,10.61,5,3,.63,6.24,1.46,9.3.92.29,2.94.59,5.88.88,8.81-2.84-.31-5.7-.08-8.53-.46a20.22,20.22,0,0,1-10.91-5.37c-.19-.17-.48.09-.3.26,5.81,5.54,12.25,6,19.85,6.67q.36,3.61.66,7.23c-6,.35-14.25-1.27-18.39-5.5-.3-.31-.81.14-.5.46,2.62,2.71,6.28,3.93,9.89,4.74,2.61.58,6.28,1.71,9.08,1.22a1.94,1.94,0,0,1,0,.24c.28,3.48.46,7,.58,10.45-6.78,0-12.1-3.68-17.85-6.93-.4-.22-.79.37-.39.61,5.9,3.45,11.28,7.28,18.28,7.34.09,2.84.14,5.68.17,8.52a30.33,30.33,0,0,1-16.8-6.18c-.33-.25-.66.29-.34.54a32.67,32.67,0,0,0,17.15,6.75q0,4.57,0,9.15c-5.79.56-11-1.85-15.53-5.4-.1-.08-.25.1-.15.19,4.13,3.48,10,7.22,15.68,6.33,0,1,0,1.94,0,2.92,0,.58,0,1.18,0,1.78-4.52-.17-8.81-.7-13-2.65-.11-.06-.19.12-.07.18A31.08,31.08,0,0,0,487.64,570c0,1.84-.09,3.73-.12,5.66a24,24,0,0,0-3.54-.55c-2.25-.1-3.94-1.09-6-1.72-.19-.06-.32.23-.12.29,1.86.64,3.32,1.7,5.32,1.93,1.48.17,2.92.49,4.37.74-.11,7.64.11,15.66,2.77,22.3.59,1.47,3.24,1.22,3.23-.49C493.46,592.87,492.06,587.57,491.34,582.35Z" transform="translate(50.72 -276.28)"/><polygon class="cls-10" points="568.04 312.37 567.3 326.06 566.14 347.37 564.23 382.38 516.83 382.38 514.92 347.37 513.76 326.06 513.01 312.37 568.04 312.37"/><polygon class="cls-38" points="567.3 326.06 567.15 328.8 566.99 331.64 566.14 347.37 514.92 347.37 514.06 331.64 513.91 328.8 513.76 326.06 567.3 326.06"/><polygon class="cls-43" points="567.15 328.8 566.99 331.64 514.06 331.64 513.91 328.8 567.15 328.8"/></g></g></svg>