<svg id="Layer_1" data-name="Layer 1" xmlns="http://www.w3.org/2000/svg" viewBox="0 0 1187.95 1006.22"><defs><style>.cls-1{fill:#363c44;}.cls-2{fill:#d9e2e8;}.cls-3{fill:#c60000;}.cls-4{fill:#a8b8cc;}.cls-5{fill:#ffb000;}.cls-6{fill:#3a9627;}.cls-7{fill:#fff;}.cls-8{fill:#5b6572;}.cls-9{fill:#ffbd5c;}.cls-10{fill:#ff4040;}.cls-11{fill:#51bc60;}</style></defs><g id="Objects"><polygon class="cls-1" points="887.8 97.79 887.8 833.86 872.6 852.1 19.29 852.1 0 833.86 0 97.79 12.04 82.81 873.99 82.81 887.8 97.79"/><path class="cls-2" d="M1275.57,336.86v50H387.77v-50a47.76,47.76,0,0,1,47.77-47.76h792.27a47.75,47.75,0,0,1,47.76,47.76Z" transform="translate(-387.77 -289.1)"/><circle class="cls-3" cx="56.19" cy="50.43" r="10.22"/><circle class="cls-4" cx="831.61" cy="50.43" r="10.22"/><circle class="cls-5" cx="94.04" cy="50.43" r="10.22"/><circle class="cls-6" cx="131.88" cy="50.43" r="10.22"/><path class="cls-7" d="M904.05,349.75a10.23,10.23,0,0,0,0-20.45H759.3a10.23,10.23,0,1,0,0,20.45Z" transform="translate(-387.77 -289.1)"/><path class="cls-2" d="M1275.57,1123v6.19a47.76,47.76,0,0,1-47.76,47.76H435.54a47.76,47.76,0,0,1-47.77-47.76V1123Z" transform="translate(-387.77 -289.1)"/><path class="cls-7" d="M766.45,480.54a7.1,7.1,0,0,0-10.05,0L690,546.89a7.11,7.11,0,0,0,0,10.05L756.4,623.3a7.11,7.11,0,0,0,10.05-10l-61.33-61.33,61.33-61.33a7.12,7.12,0,0,0,0-10Z" transform="translate(-387.77 -289.1)"/><path class="cls-7" d="M973.3,546.89,907,480.54a7.11,7.11,0,1,0-10.05,10l61.32,61.33L896.9,613.25a7.11,7.11,0,0,0,10.05,10l66.35-66.36a7.12,7.12,0,0,0,0-10.05Z" transform="translate(-387.77 -289.1)"/><path class="cls-7" d="M863.11,466.2a7.11,7.11,0,0,0-9.12,4.22l-58,158.1a7.12,7.12,0,0,0,4.23,9.12,7.24,7.24,0,0,0,2.45.44,7.11,7.11,0,0,0,6.67-4.67l58-158.09a7.1,7.1,0,0,0-4.23-9.12Z" transform="translate(-387.77 -289.1)"/><path class="cls-8" d="M555.85,705.58H536.23a7.11,7.11,0,1,1,0-14.21h19.62a7.11,7.11,0,0,1,0,14.21Z" transform="translate(-387.77 -289.1)"/><path class="cls-9" d="M1107.5,705.58H763.28a7.11,7.11,0,1,1,0-14.21H1107.5a7.11,7.11,0,0,1,0,14.21Z" transform="translate(-387.77 -289.1)"/><path class="cls-9" d="M722.89,705.58H625.37a7.11,7.11,0,0,1,0-14.21h97.52a7.11,7.11,0,0,1,0,14.21Z" transform="translate(-387.77 -289.1)"/><path class="cls-8" d="M575.46,772.51H555.85a7.11,7.11,0,1,1,0-14.21h19.61a7.11,7.11,0,1,1,0,14.21Z" transform="translate(-387.77 -289.1)"/><path class="cls-10" d="M1127.11,772.51H901.46a7.11,7.11,0,0,1,0-14.21h225.65a7.11,7.11,0,1,1,0,14.21Z" transform="translate(-387.77 -289.1)"/><path class="cls-10" d="M868.38,772.51H800a7.11,7.11,0,1,1,0-14.21h68.37a7.11,7.11,0,1,1,0,14.21Z" transform="translate(-387.77 -289.1)"/><path class="cls-10" d="M765.87,772.51H645a7.11,7.11,0,1,1,0-14.21H765.87a7.11,7.11,0,1,1,0,14.21Z" transform="translate(-387.77 -289.1)"/><path class="cls-7" d="M1127.11,839.44H874a7.11,7.11,0,1,1,0-14.21h253.1a7.11,7.11,0,1,1,0,14.21Z" transform="translate(-387.77 -289.1)"/><path class="cls-7" d="M834.2,839.44H645a7.11,7.11,0,1,1,0-14.21H834.2a7.11,7.11,0,0,1,0,14.21Z" transform="translate(-387.77 -289.1)"/><path class="cls-9" d="M1107.5,906.37H763.28a7.11,7.11,0,1,1,0-14.21H1107.5a7.11,7.11,0,0,1,0,14.21Z" transform="translate(-387.77 -289.1)"/><path class="cls-9" d="M722.89,906.37H625.37a7.11,7.11,0,0,1,0-14.21h97.52a7.11,7.11,0,0,1,0,14.21Z" transform="translate(-387.77 -289.1)"/><path class="cls-10" d="M1127.11,973.31H901.46a7.11,7.11,0,0,1,0-14.22h225.65a7.11,7.11,0,1,1,0,14.22Z" transform="translate(-387.77 -289.1)"/><path class="cls-10" d="M868.38,973.31H800a7.11,7.11,0,0,1,0-14.22h68.37a7.11,7.11,0,1,1,0,14.22Z" transform="translate(-387.77 -289.1)"/><path class="cls-10" d="M765.87,973.31H645a7.11,7.11,0,0,1,0-14.22H765.87a7.11,7.11,0,0,1,0,14.22Z" transform="translate(-387.77 -289.1)"/><path class="cls-7" d="M1127.11,1040.24H874a7.11,7.11,0,0,1,0-14.22h253.1a7.11,7.11,0,1,1,0,14.22Z" transform="translate(-387.77 -289.1)"/><path class="cls-7" d="M834.2,1040.24H645a7.11,7.11,0,1,1,0-14.22H834.2a7.11,7.11,0,0,1,0,14.22Z" transform="translate(-387.77 -289.1)"/><path class="cls-8" d="M575.46,839.44H555.85a7.11,7.11,0,1,1,0-14.21h19.61a7.11,7.11,0,1,1,0,14.21Z" transform="translate(-387.77 -289.1)"/><path class="cls-8" d="M555.85,906.38H536.23a7.11,7.11,0,0,1,0-14.22h19.62a7.11,7.11,0,0,1,0,14.22Z" transform="translate(-387.77 -289.1)"/><path class="cls-8" d="M575.46,973.31H555.85a7.11,7.11,0,0,1,0-14.22h19.61a7.11,7.11,0,1,1,0,14.22Z" transform="translate(-387.77 -289.1)"/><path class="cls-8" d="M575.46,1040.24H555.85a7.11,7.11,0,0,1,0-14.22h19.61a7.11,7.11,0,1,1,0,14.22Z" transform="translate(-387.77 -289.1)"/><polygon class="cls-1" points="1187.95 216.21 1187.95 952.28 1172.74 970.52 319.43 970.52 300.15 952.28 300.15 216.21 312.19 201.23 1174.13 201.23 1187.95 216.21"/><path class="cls-2" d="M1575.72,455.28v50H687.92v-50a47.76,47.76,0,0,1,47.76-47.76H1528a47.76,47.76,0,0,1,47.76,47.76Z" transform="translate(-387.77 -289.1)"/><circle class="cls-3" cx="356.34" cy="168.85" r="10.22"/><circle class="cls-4" cx="1131.76" cy="168.85" r="10.22"/><circle class="cls-5" cx="394.19" cy="168.85" r="10.22"/><circle class="cls-6" cx="432.03" cy="168.85" r="10.22"/><path class="cls-7" d="M1204.2,468.17a10.22,10.22,0,1,0,0-20.44H1059.44a10.22,10.22,0,0,0,0,20.44Z" transform="translate(-387.77 -289.1)"/><rect class="cls-8" x="359.11" y="293.01" width="31.88" height="8.51"/><rect class="cls-10" x="584.13" y="293" width="409.27" height="8.51"/><rect class="cls-9" x="517.45" y="293.01" width="35.81" height="8.51"/><rect class="cls-11" x="727.38" y="333.53" width="125.82" height="8.51"/><rect class="cls-9" x="819.74" y="374.06" width="89.77" height="8.51"/><rect class="cls-7" x="663.1" y="333.53" width="31.06" height="8.51"/><rect class="cls-10" x="461.35" y="333.53" width="170.88" height="8.51"/><rect class="cls-7" x="621.12" y="374.06" width="169.17" height="8.51"/><rect class="cls-11" x="556.84" y="374.06" width="31.06" height="8.51"/><rect class="cls-7" x="461.35" y="374.06" width="64.62" height="8.51"/><rect class="cls-10" x="443.9" y="293.01" width="34.9" height="8.51"/><rect class="cls-11" x="762.02" y="455.11" width="231.38" height="8.51"/><rect class="cls-10" x="622.77" y="455.11" width="35.81" height="8.51"/><rect class="cls-10" x="694.16" y="455.11" width="35.81" height="8.51"/><rect class="cls-10" x="648.41" y="495.64" width="204.79" height="8.51"/><rect class="cls-7" x="847.55" y="536.16" width="89.77" height="8.51"/><rect class="cls-11" x="584.13" y="495.64" width="31.06" height="8.51"/><rect class="cls-7" x="461.35" y="495.64" width="91.91" height="8.51"/><rect class="cls-10" x="695.98" y="536.16" width="122.11" height="8.51"/><rect class="cls-9" x="631.7" y="536.16" width="31.06" height="8.51"/><rect class="cls-10" x="461.35" y="536.16" width="139.48" height="8.51"/><rect class="cls-9" x="443.9" y="455.11" width="140.22" height="8.51"/><rect class="cls-10" x="584.12" y="617.22" width="312.03" height="8.51"/><rect class="cls-10" x="929.11" y="617.22" width="88.73" height="8.51"/><rect class="cls-9" x="517.45" y="617.22" width="35.81" height="8.51"/><rect class="cls-11" x="727.38" y="657.74" width="125.82" height="8.51"/><rect class="cls-9" x="819.74" y="698.27" width="89.77" height="8.51"/><rect class="cls-7" x="663.1" y="657.74" width="31.06" height="8.51"/><rect class="cls-10" x="461.35" y="657.74" width="170.88" height="8.51"/><rect class="cls-7" x="621.12" y="698.27" width="169.17" height="8.51"/><rect class="cls-11" x="556.84" y="698.27" width="31.06" height="8.51"/><rect class="cls-7" x="461.35" y="698.27" width="64.62" height="8.51"/><rect class="cls-10" x="443.9" y="617.22" width="34.9" height="8.51"/><rect class="cls-11" x="762.02" y="779.32" width="231.38" height="8.51"/><rect class="cls-10" x="622.77" y="779.32" width="35.81" height="8.51"/><rect class="cls-10" x="694.16" y="779.32" width="35.81" height="8.51"/><rect class="cls-10" x="648.41" y="819.85" width="204.79" height="8.51"/><rect class="cls-7" x="847.55" y="860.37" width="89.77" height="8.51"/><rect class="cls-11" x="584.13" y="819.85" width="31.06" height="8.51"/><rect class="cls-7" x="461.35" y="819.85" width="91.91" height="8.51"/><rect class="cls-10" x="695.98" y="860.37" width="122.11" height="8.51"/><rect class="cls-9" x="631.7" y="860.37" width="31.06" height="8.51"/><rect class="cls-10" x="461.35" y="860.37" width="139.48" height="8.51"/><rect class="cls-9" x="443.9" y="779.32" width="140.22" height="8.51"/><rect class="cls-8" x="359.11" y="333.53" width="31.88" height="8.51"/><rect class="cls-8" x="359.11" y="374.06" width="31.88" height="8.51"/><rect class="cls-8" x="359.11" y="414.58" width="31.88" height="8.51"/><rect class="cls-8" x="359.11" y="455.11" width="31.88" height="8.51"/><rect class="cls-8" x="359.11" y="495.64" width="31.88" height="8.51"/><rect class="cls-8" x="359.11" y="536.16" width="31.88" height="8.51"/><rect class="cls-8" x="359.11" y="576.69" width="31.88" height="8.51"/><rect class="cls-8" x="359.11" y="617.22" width="31.88" height="8.51"/><rect class="cls-8" x="359.11" y="657.74" width="31.88" height="8.51"/><rect class="cls-8" x="359.11" y="698.27" width="31.88" height="8.51"/><rect class="cls-8" x="359.11" y="738.79" width="31.88" height="8.51"/><rect class="cls-8" x="359.11" y="779.32" width="31.88" height="8.51"/><rect class="cls-8" x="359.11" y="819.85" width="31.88" height="8.51"/><rect class="cls-8" x="359.11" y="860.37" width="31.88" height="8.51"/><path class="cls-2" d="M1575.72,1241.38v6.18a47.76,47.76,0,0,1-47.76,47.76H735.68a47.76,47.76,0,0,1-47.76-47.76v-6.18Z" transform="translate(-387.77 -289.1)"/></g></svg>