<svg id="Layer_2" data-name="Layer 2" xmlns="http://www.w3.org/2000/svg" viewBox="0 0 1944.06 516.46"><defs><style>.cls-1{fill:#04abb4;}.cls-2{fill:#fff;}</style></defs><path class="cls-1" d="M816.32,755h-72.2a267.1,267.1,0,0,1-195-105.74l-33.09-57.38L422.37,429.37,525,249.74l36.11,62.63,252.8,438.38Z" transform="translate(-236.41 -245.58)"/><path class="cls-1" d="M481,615c0,77.32-65.59,140-146.49,140H236.41l14.35-25.14L390.31,485.51l18.13-31.74,49.24,85.38,9.82,17A134.23,134.23,0,0,1,481,615Z" transform="translate(-236.41 -245.58)"/><path class="cls-2" d="M1017.92,520.06,884.86,726.85h48.72l84.67-131.38,16.8,26.14L949,755H833.12l184.8-286.88,166.65,258.73h48.72L1083.44,493.92l137.09-212.81h-48.39L1059.25,456.39,946,281.11H897.63l96.1,148.8-16.8,26.14L845.89,253H961.47l97.78,151.15L1156.69,253h115.58L1117,493.92,1285,755H1169.12Z" transform="translate(-236.41 -245.58)"/><path class="cls-2" d="M1723.85,503.64c0,140.76-80,258.4-221.09,258.4s-221.08-117.64-221.08-258.4,80-258.06,221.08-258.06c4.71,0,9.41.34,14.12.67v66.36c93.4,8.71,136.41,103.22,136.41,191,0,92.5-47,192-150.53,192s-150.52-99.54-150.52-192c0-73.39,29.9-151.15,94.08-180v31.84c-47.38,29.49-65.86,95.51-65.86,148.13,0,70.38,32.59,163.89,122.3,163.89S1625.07,574,1625.07,503.64s-32.93-163.55-122.31-163.55a93.18,93.18,0,0,0-14.11,1v-67c-123.31,8.38-178.75,119.31-178.75,229.57,0,114.62,59.81,230.25,192.86,230.25s192.87-115.63,192.87-230.25c0-96.52-42.68-194-136.42-221.86V252.62C1665.05,279.77,1723.85,383,1723.85,503.64Z" transform="translate(-236.41 -245.58)"/><path class="cls-2" d="M2081.69,253h98.78V755h-109.2L1807.51,308.92V726.85h42.34V461.75l28.22,47.92V755h-98.78V253h27.88l280.23,473.9h64.85V281.11h-42.34V685l-255-432h32.92L2081.69,581.4Z" transform="translate(-236.41 -245.58)"/></svg>